# Blender 3.6.0
# www.blender.org
mtllib mig21wing_l.mtl
o Wing_L
v 0.000000 0.062500 3.687500
v 3.312500 0.062500 -1.500000
v 3.312500 0.062500 -2.000000
v 0.000000 0.062500 3.187500
v 0.000000 -0.062500 3.187500
v 3.312500 -0.062500 -2.000000
v 3.312500 -0.062500 -1.500000
v 0.000000 -0.062500 3.687500
v 0.000000 0.125000 3.187500
v 3.312500 0.125000 -2.000000
v 3.312500 0.125000 -2.250000
v 0.000000 0.125000 1.062500
v 0.000000 -0.125000 1.062500
v 3.312500 -0.125000 -2.250000
v 3.312500 -0.125000 -2.000000
v 0.000000 -0.125000 3.187500
v 0.000000 0.125000 0.562500
v 1.125000 0.125000 -0.562500
v 1.125000 0.125000 -2.062500
v 0.000000 0.125000 -2.062500
v 0.000000 -0.125000 -2.062500
v 1.125000 -0.125000 -2.062500
v 1.125000 -0.125000 -0.562500
v 0.000000 -0.125000 0.562500
v 1.125000 0.125000 -0.062500
v 1.687500 0.125000 -0.625000
v 1.687500 0.125000 -2.062500
v 1.125000 0.125000 -2.062500
v 1.125000 -0.125000 -2.062500
v 1.687500 -0.125000 -2.062500
v 1.687500 -0.125000 -0.625000
v 1.125000 -0.125000 -0.062500
v 1.687500 0.125000 -0.625000
v 3.312500 0.125000 -2.250000
v 3.312500 0.125000 -2.562500
v 1.687500 0.125000 -2.062500
v 1.687500 -0.125000 -2.062500
v 3.312500 -0.125000 -2.562500
v 3.312500 -0.125000 -2.250000
v 1.687500 -0.125000 -0.625000
v 3.312500 0.062500 -1.500000
v 3.875000 0.062500 -2.312500
v 3.875000 0.062500 -2.937500
v 3.312500 0.062500 -2.937500
v 3.312500 -0.062500 -2.937500
v 3.875000 -0.062500 -2.937500
v 3.875000 -0.062500 -2.312500
v 3.312500 -0.062500 -1.500000
v 3.312500 0.125000 -2.000000
v 3.625000 0.125000 -2.500000
v 3.625000 0.125000 -2.687500
v 3.312500 0.125000 -2.562500
v 3.312500 0.062500 -2.562500
v 3.625000 0.062500 -2.687500
v 3.625000 0.062500 -2.500000
v 3.312500 0.062500 -2.000000
v 1.625000 0.093750 -2.062500
v 1.687500 0.093750 -2.062500
v 1.687500 0.093750 -3.000000
v 1.625000 0.093750 -3.000000
v 1.625000 -0.093750 -3.000000
v 1.687500 -0.093750 -3.000000
v 1.687500 -0.093750 -2.062500
v 1.625000 -0.093750 -2.062500
v 3.312500 0.187500 -1.937500
v 3.375000 0.187500 -1.937500
v 3.375000 0.187500 -2.687500
v 3.312500 0.187500 -2.687500
v 3.312500 0.062500 -2.687500
v 3.375000 0.062500 -2.687500
v 3.375000 0.062500 -1.937500
v 3.312500 0.062500 -1.937500
v 3.312500 0.125000 -1.687500
v 3.375000 0.125000 -1.687500
v 3.375000 0.125000 -1.937500
v 3.312500 0.125000 -1.937500
v 3.312500 0.062500 -1.937500
v 3.375000 0.062500 -1.937500
v 3.375000 0.062500 -1.687500
v 3.312500 0.062500 -1.687500
v 3.312500 0.125000 -2.687500
v 3.375000 0.125000 -2.687500
v 3.375000 0.125000 -2.875000
v 3.312500 0.125000 -2.875000
v 3.312500 0.062500 -2.875000
v 3.375000 0.062500 -2.875000
v 3.375000 0.062500 -2.687500
v 3.312500 0.062500 -2.687500
v 1.290891 -0.093750 -0.432301
v 1.290891 -0.156250 -0.432301
v 1.158308 -0.093750 -0.299718
v 1.158308 -0.156250 -0.299718
v 1.141735 -0.093750 -0.581456
v 1.141735 -0.156250 -0.581456
v 1.009153 -0.093750 -0.448874
v 1.009153 -0.156250 -0.448874
v 3.890625 0.054687 -2.328125
v 3.890625 0.054687 -2.437500
v 3.890625 -0.054688 -2.328125
v 3.890625 -0.054688 -2.437500
v 3.875000 0.054687 -2.328125
v 3.875000 0.054687 -2.437500
v 3.875000 -0.054688 -2.328125
v 3.875000 -0.054688 -2.437500
vn -0.0000 1.0000 -0.0000
vn -0.0000 -1.0000 -0.0000
vn 0.8428 -0.0000 0.5382
vn -1.0000 -0.0000 -0.0000
vn -0.7071 -0.0000 -0.7071
vn 1.0000 -0.0000 -0.0000
vn 0.7071 -0.0000 0.7071
vn -0.0000 -0.0000 -1.0000
vn -0.2941 -0.0000 -0.9558
vn 0.8222 -0.0000 0.5692
vn 0.8480 -0.0000 0.5300
vn -0.3714 -0.0000 -0.9285
vn -0.0000 -0.0000 1.0000
vn 0.7071 -0.0000 -0.7071
vn -0.7071 -0.0000 0.7071
vt 0.400663 0.986328
vt 0.593004 0.986328
vt 0.606173 0.994141
vt 0.413832 0.994141
vt 0.384766 0.564411
vt 0.384766 0.372070
vt 0.392578 0.385239
vt 0.392578 0.577580
vt 0.605469 0.998047
vt 0.414062 0.998047
vt 0.414062 0.994141
vt 0.605469 0.994141
vt 0.685547 0.572266
vt 0.669922 0.572266
vt 0.669922 0.568359
vt 0.685547 0.568359
vt 0.162256 0.964844
vt 0.354597 0.964844
vt 0.361181 0.968466
vt 0.218225 1.000000
vt 0.126953 0.779675
vt 0.158488 0.636719
vt 0.162109 0.643303
vt 0.162109 0.835644
vt 0.609375 0.708984
vt 0.417969 0.708984
vt 0.417969 0.701172
vt 0.609375 0.701172
vt 0.585938 0.652344
vt 0.439453 0.652344
vt 0.439453 0.644531
vt 0.585938 0.644531
vt 0.312500 1.000000
vt 0.304688 1.000000
vt 0.304688 0.992188
vt 0.312500 0.992188
vt 0.337891 0.925781
vt 0.271484 0.925781
vt 0.271484 0.917969
vt 0.337891 0.917969
vt 0.242188 0.611328
vt 0.277344 0.646484
vt 0.277344 0.693359
vt 0.242188 0.693359
vt 0.275391 0.560547
vt 0.310547 0.560547
vt 0.310547 0.607422
vt 0.275391 0.642578
vt 0.623047 0.464844
vt 0.574219 0.464844
vt 0.574219 0.457031
vt 0.623047 0.457031
vt 0.630859 0.779297
vt 0.595703 0.779297
vt 0.595703 0.771484
vt 0.630859 0.771484
vt 0.605469 0.851562
vt 0.523438 0.851562
vt 0.523438 0.843750
vt 0.605469 0.843750
vt 0.091797 0.505859
vt 0.109375 0.523438
vt 0.109375 0.568359
vt 0.091797 0.568359
vt 0.199219 0.500000
vt 0.216797 0.500000
vt 0.216797 0.544922
vt 0.199219 0.562500
vt 0.662109 0.773438
vt 0.644531 0.773438
vt 0.644531 0.765625
vt 0.662109 0.765625
vt 0.617188 0.794922
vt 0.554688 0.794922
vt 0.554688 0.787109
vt 0.617188 0.787109
vt 0.304878 0.554688
vt 0.376693 0.554688
vt 0.383599 0.561078
vt 0.336642 0.585938
vt 0.208984 0.563558
vt 0.233844 0.516602
vt 0.240234 0.523507
vt 0.240234 0.595322
vt 0.626953 0.515625
vt 0.574219 0.515625
vt 0.574219 0.507812
vt 0.626953 0.507812
vt 0.037109 0.841797
vt 0.027344 0.841797
vt 0.027344 0.833984
vt 0.037109 0.833984
vt 0.277344 0.650391
vt 0.294922 0.675781
vt 0.294922 0.695312
vt 0.277344 0.695312
vt 0.031250 0.642578
vt 0.048828 0.642578
vt 0.048828 0.662109
vt 0.031250 0.687500
vt 0.675781 0.480469
vt 0.644531 0.480469
vt 0.644531 0.476562
vt 0.675781 0.476562
vt 0.179688 0.833984
vt 0.162109 0.833984
vt 0.162109 0.830078
vt 0.179688 0.830078
vt 0.380859 0.968750
vt 0.361328 0.968750
vt 0.361328 0.964844
vt 0.380859 0.964844
vt 0.673828 0.949219
vt 0.628906 0.949219
vt 0.628906 0.945312
vt 0.673828 0.945312
vt 0.134766 0.802734
vt 0.144531 0.818359
vt 0.144531 0.824219
vt 0.134766 0.820312
vt 0.519531 0.873047
vt 0.501953 0.873047
vt 0.501953 0.871094
vt 0.519531 0.871094
vt 0.119141 0.847656
vt 0.109375 0.847656
vt 0.109375 0.845703
vt 0.119141 0.845703
vt 0.173828 0.974609
vt 0.167969 0.974609
vt 0.167969 0.972656
vt 0.173828 0.972656
vt 0.310547 0.585938
vt 0.312500 0.585938
vt 0.312500 0.615234
vt 0.310547 0.615234
vt 0.294922 0.294922
vt 0.296875 0.294922
vt 0.296875 0.324219
vt 0.294922 0.324219
vt 0.005859 0.648438
vt 0.003906 0.648438
vt 0.003906 0.642578
vt 0.005859 0.642578
vt 0.658203 0.904297
vt 0.628906 0.904297
vt 0.628906 0.898438
vt 0.658203 0.898438
vt 0.658203 0.654297
vt 0.628906 0.654297
vt 0.628906 0.648438
vt 0.658203 0.648438
vt 0.175781 0.550781
vt 0.177734 0.550781
vt 0.177734 0.574219
vt 0.175781 0.574219
vt 0.011719 0.603516
vt 0.009766 0.603516
vt 0.009766 0.599609
vt 0.011719 0.599609
vt 0.005859 0.597656
vt 0.003906 0.597656
vt 0.003906 0.593750
vt 0.005859 0.593750
vt 0.220703 0.824219
vt 0.197266 0.824219
vt 0.197266 0.820312
vt 0.220703 0.820312
vt 0.560547 0.941406
vt 0.537109 0.941406
vt 0.537109 0.937500
vt 0.560547 0.937500
vt 0.695312 0.822266
vt 0.697266 0.822266
vt 0.697266 0.830078
vt 0.695312 0.830078
vt 0.039062 0.839844
vt 0.037109 0.839844
vt 0.037109 0.837891
vt 0.039062 0.837891
vt 0.425781 0.689453
vt 0.417969 0.689453
vt 0.417969 0.687500
vt 0.425781 0.687500
vt 0.427734 0.656250
vt 0.419922 0.656250
vt 0.419922 0.654297
vt 0.427734 0.654297
vt 0.154297 0.640625
vt 0.156250 0.640625
vt 0.156250 0.646484
vt 0.154297 0.646484
vt 0.164062 0.968750
vt 0.162109 0.968750
vt 0.162109 0.966797
vt 0.164062 0.966797
vt 0.281250 0.902344
vt 0.275391 0.902344
vt 0.275391 0.900391
vt 0.281250 0.900391
vt 0.058594 0.716797
vt 0.052734 0.716797
vt 0.052734 0.714844
vt 0.058594 0.714844
vt 0.062500 0.710938
vt 0.068359 0.710938
vt 0.068359 0.712891
vt 0.062500 0.712891
vt 0.271484 0.695312
vt 0.271484 0.693359
vt 0.306641 0.986328
vt 0.306641 0.984375
vt 0.312500 0.984375
vt 0.312500 0.986328
vt 0.349609 0.972656
vt 0.349609 0.974609
vt 0.343750 0.974609
vt 0.343750 0.972656
vt 0.687500 0.781250
vt 0.693359 0.781250
vt 0.693359 0.787109
vt 0.687500 0.787109
vt 0.109375 0.664062
vt 0.109375 0.667969
vt 0.105469 0.667969
vt 0.105469 0.664062
vt 0.228516 0.583984
vt 0.228516 0.587891
vt 0.226562 0.587891
vt 0.226562 0.583984
vt 0.332031 0.582031
vt 0.332031 0.585938
vt 0.330078 0.585938
vt 0.330078 0.582031
vt 0.138672 0.578125
vt 0.138672 0.582031
vt 0.136719 0.582031
vt 0.136719 0.578125
vt 0.390625 0.576172
vt 0.390625 0.580078
vt 0.388672 0.580078
vt 0.388672 0.576172
vt 0.583984 0.724609
vt 0.583984 0.730469
vt 0.578125 0.730469
vt 0.578125 0.724609
s 0
usemtl m_7b790a68-76aa-c224-ea77-9059fe8b5fdb
f 1/1/1 2/2/1 3/3/1 4/4/1
f 5/5/2 6/6/2 7/7/2 8/8/2
f 2/9/3 1/10/3 8/11/3 7/12/3
f 1/13/4 4/14/4 5/15/4 8/16/4
f 9/17/1 10/18/1 11/19/1 12/20/1
f 13/21/2 14/22/2 15/23/2 16/24/2
f 10/25/3 9/26/3 16/27/3 15/28/3
f 12/29/5 11/30/5 14/31/5 13/32/5
f 11/33/6 10/34/6 15/35/6 14/36/6
f 9/37/4 12/38/4 13/39/4 16/40/4
f 17/41/1 18/42/1 19/43/1 20/44/1
f 21/45/2 22/46/2 23/47/2 24/48/2
f 18/49/7 17/50/7 24/51/7 23/52/7
f 20/53/8 19/54/8 22/55/8 21/56/8
f 17/57/4 20/58/4 21/59/4 24/60/4
f 25/61/1 26/62/1 27/63/1 28/64/1
f 29/65/2 30/66/2 31/67/2 32/68/2
f 28/69/8 27/70/8 30/71/8 29/72/8
f 25/73/4 28/74/4 29/75/4 32/76/4
f 33/77/1 34/78/1 35/79/1 36/80/1
f 37/81/2 38/82/2 39/83/2 40/84/2
f 36/85/9 35/86/9 38/87/9 37/88/9
f 35/89/6 34/90/6 39/91/6 38/92/6
f 41/93/1 42/94/1 43/95/1 44/96/1
f 45/97/2 46/98/2 47/99/2 48/100/2
f 42/101/10 41/102/10 48/103/10 47/104/10
f 44/105/8 43/106/8 46/107/8 45/108/8
f 43/109/6 42/110/6 47/111/6 46/112/6
f 41/113/4 44/114/4 45/115/4 48/116/4
f 49/117/1 50/118/1 51/119/1 52/120/1
f 50/121/11 49/122/11 56/123/11 55/124/11
f 52/125/12 51/126/12 54/127/12 53/128/12
f 51/129/6 50/130/6 55/131/6 54/132/6
f 57/133/1 58/134/1 59/135/1 60/136/1
f 61/137/2 62/138/2 63/139/2 64/140/2
f 60/141/8 59/142/8 62/143/8 61/144/8
f 59/145/6 58/146/6 63/147/6 62/148/6
f 57/149/4 60/150/4 61/151/4 64/152/4
f 65/153/1 66/154/1 67/155/1 68/156/1
f 66/157/13 65/158/13 72/159/13 71/160/13
f 68/161/8 67/162/8 70/163/8 69/164/8
f 67/165/6 66/166/6 71/167/6 70/168/6
f 65/169/4 68/170/4 69/171/4 72/172/4
f 73/173/1 74/174/1 75/175/1 76/176/1
f 74/177/13 73/178/13 80/179/13 79/180/13
f 75/181/6 74/182/6 79/183/6 78/184/6
f 73/185/4 76/186/4 77/187/4 80/188/4
f 81/189/1 82/190/1 83/191/1 84/192/1
f 84/193/8 83/194/8 86/195/8 85/196/8
f 83/197/6 82/198/6 87/199/6 86/200/6
f 81/201/4 84/202/4 85/203/4 88/204/4
f 92/205/7 90/206/7 89/207/7 91/208/7
f 95/96/5 93/209/5 94/210/5 96/43/5
f 89/211/14 90/212/14 94/213/14 93/214/14
f 92/215/15 91/216/15 95/217/15 96/218/15
f 96/219/2 94/220/2 90/221/2 92/222/2
f 100/223/6 98/224/6 97/225/6 99/226/6
f 97/227/1 98/228/1 102/229/1 101/230/1
f 100/231/2 99/232/2 103/233/2 104/234/2
f 99/235/13 97/236/13 101/237/13 103/238/13
f 104/239/8 102/240/8 98/241/8 100/242/8
f 91/243/1 89/244/1 93/245/1 95/246/1
