# Blender 3.6.0
# www.blender.org
mtllib j2mwing_r.mtl
o particle
v -2.812500 0.500000 -0.250000
v -4.750000 0.812500 -0.000000
v -4.750000 0.812500 0.312500
v -2.812500 0.500000 0.062500
v -2.812500 0.375000 0.062500
v -4.750000 0.687500 0.312500
v -4.750000 0.687500 -0.000000
v -2.812500 0.375000 -0.250000
v -2.812500 0.468750 -0.500000
v -4.750000 0.781250 -0.250000
v -4.750000 0.781250 -0.000000
v -2.812500 0.468750 -0.250000
v -2.812500 0.406250 -0.250000
v -4.750000 0.718750 -0.000000
v -4.750000 0.718750 -0.250000
v -2.812500 0.406250 -0.500000
v -0.000000 -0.031250 -0.937500
v -1.187500 0.156250 -0.750000
v -0.000000 -0.031250 -0.375000
v -0.000000 -0.093750 -0.375000
v -1.187500 0.093750 -0.187500
v -1.187500 0.093750 -0.750000
v -0.000000 -0.093750 -0.937500
v -1.187500 0.156250 -0.750000
v -2.000000 0.281250 -0.625000
v -2.000000 0.281250 -0.062500
v -1.187500 0.156250 -0.187500
v -1.187500 0.093750 -0.187500
v -2.000000 0.218750 -0.062500
v -2.000000 0.218750 -0.625000
v -1.187500 0.093750 -0.750000
v 0.000000 0.125000 0.062500
v -1.187500 0.312500 0.062500
v -1.187500 0.312500 0.562500
v 0.000000 0.125000 0.562500
v 0.000000 -0.125000 0.562500
v -1.187500 0.062500 0.562500
v -1.187500 0.062500 0.062500
v 0.000000 -0.125000 0.062500
v -0.000000 0.093750 -0.375000
v -1.187500 0.281250 -0.187500
v -1.187500 0.281250 0.062500
v 0.000000 0.093750 0.062500
v 0.000000 -0.093750 0.062500
v -1.187500 0.093750 0.062500
v -1.187500 0.093750 -0.187500
v -0.000000 -0.093750 -0.375000
v -1.187500 0.312500 1.625000
v -2.812500 0.562500 1.437500
v -2.812500 0.562500 1.562500
v -1.187500 0.312500 1.750000
v -1.187500 0.187500 1.750000
v -2.812500 0.437500 1.562500
v -2.812500 0.437500 1.437500
v -1.187500 0.187500 1.625000
v -2.812500 0.562500 1.437500
v -4.750000 0.875000 1.187500
v -4.750000 0.875000 1.312500
v -2.812500 0.562500 1.562500
v -2.812500 0.437500 1.562500
v -4.750000 0.750000 1.312500
v -4.750000 0.750000 1.187500
v -2.812500 0.437500 1.437500
v -2.812500 0.625000 0.562500
v -4.750000 0.937500 0.562500
v -4.750000 0.937500 1.187500
v -2.812500 0.625000 1.437500
v -2.812500 0.375000 1.437500
v -4.750000 0.687500 1.187500
v -4.750000 0.687500 0.562500
v -2.812500 0.375000 0.562500
v -1.187500 0.375000 0.562500
v -2.812500 0.625000 0.562500
v -2.812500 0.625000 0.875000
v -1.187500 0.375000 0.875000
v -1.187500 0.062500 0.875000
v -2.812500 0.312500 0.875000
v -2.812500 0.312500 0.562500
v -1.187500 0.062500 0.562500
v -1.187500 0.312500 0.187500
v -2.812500 0.562500 0.187500
v -2.812500 0.562500 0.562500
v -1.187500 0.312500 0.562500
v -1.187500 0.062500 0.562500
v -2.812500 0.312500 0.562500
v -2.812500 0.312500 0.187500
v -1.187500 0.062500 0.187500
v -2.812500 0.562500 0.062500
v -4.750000 0.875000 0.312500
v -4.750000 0.875000 0.562500
v -2.812500 0.562500 0.562500
v -2.812500 0.375000 0.562500
v -4.750000 0.687500 0.562500
v -4.750000 0.687500 0.312500
v -2.812500 0.375000 0.062500
v -0.000000 0.093750 -0.687500
v -1.187500 0.281250 -0.500000
v -1.187500 0.281250 -0.187500
v -0.000000 0.093750 -0.375000
v -0.000000 -0.031250 -0.375000
v -1.187500 0.156250 -0.187500
v -1.187500 0.156250 -0.500000
v -0.000000 -0.031250 -0.687500
v -0.000000 0.031250 -0.937500
v -1.187500 0.218750 -0.750000
v -1.187500 0.218750 -0.500000
v -0.000000 0.031250 -0.687500
v -0.000000 -0.031250 -0.687500
v -1.187500 0.156250 -0.500000
v -1.187500 0.156250 -0.750000
v -0.000000 -0.031250 -0.937500
v -1.187500 0.281250 -0.500000
v -2.000000 0.406250 -0.375000
v -2.000000 0.406250 -0.062500
v -1.187500 0.281250 -0.187500
v -2.000000 0.281250 -0.375000
v -1.187500 0.156250 -0.500000
v -1.187500 0.281250 -0.187500
v -2.812500 0.531250 0.062500
v -2.812500 0.531250 0.187500
v -1.187500 0.281250 0.187500
v -1.187500 0.093750 0.187500
v -2.812500 0.343750 0.187500
v -2.812500 0.343750 0.062500
v -1.187500 0.093750 -0.187500
v -1.187500 0.218750 -0.750000
v -2.000000 0.343750 -0.625000
v -2.000000 0.343750 -0.375000
v -1.187500 0.218750 -0.500000
v -1.187500 0.156250 -0.500000
v -2.000000 0.281250 -0.375000
v -2.000000 0.281250 -0.625000
v -1.187500 0.156250 -0.750000
v -2.000000 0.406250 -0.375000
v -2.812500 0.531250 -0.250000
v -2.812500 0.531250 0.062500
v -2.000000 0.406250 -0.062500
v -2.000000 0.218750 -0.062500
v -2.812500 0.343750 0.062500
v -2.812500 0.343750 -0.250000
v -2.000000 0.218750 -0.375000
v -2.000000 0.343750 -0.625000
v -2.812500 0.468750 -0.500000
v -2.812500 0.468750 -0.187500
v -2.000000 0.343750 -0.312500
v -2.000000 0.281250 -0.312500
v -2.812500 0.406250 -0.187500
v -2.812500 0.406250 -0.500000
v -2.000000 0.281250 -0.625000
v -4.750000 0.875000 0.500000
v -4.937500 0.906250 0.500000
v -4.937500 0.906250 0.937500
v -4.750000 0.875000 0.937500
v -4.750000 0.687500 0.937500
v -4.937500 0.718750 0.937500
v -4.937500 0.718750 0.500000
v -4.750000 0.687500 0.500000
v -4.750000 0.812500 0.125000
v -4.937500 0.843750 0.125000
v -4.937500 0.843750 0.500000
v -4.750000 0.812500 0.500000
v -4.750000 0.687500 0.500000
v -4.937500 0.718750 0.500000
v -4.937500 0.718750 0.125000
v -4.750000 0.687500 0.125000
v -4.750000 0.875000 0.937500
v -4.937500 0.906250 0.937500
v -4.937500 0.906250 1.187500
v -4.750000 0.875000 1.187500
v -4.750000 0.750000 1.187500
v -4.937500 0.781250 1.187500
v -4.937500 0.781250 0.937500
v -4.750000 0.750000 0.937500
v -4.750000 0.781250 -0.187500
v -4.937500 0.812500 -0.187500
v -4.937500 0.812500 0.125000
v -4.750000 0.781250 0.125000
v -4.750000 0.718750 0.125000
v -4.937500 0.750000 0.125000
v -4.937500 0.750000 -0.187500
v -4.750000 0.718750 -0.187500
v -4.937500 0.812500 -0.000000
v -5.125000 0.843750 -0.000000
v -5.125000 0.843750 0.375000
v -4.937500 0.812500 0.375000
v -4.937500 0.750000 0.375000
v -5.125000 0.781250 0.375000
v -5.125000 0.781250 -0.000000
v -4.937500 0.750000 -0.000000
v -4.937500 0.875000 0.375000
v -5.125000 0.906250 0.375000
v -5.125000 0.906250 0.750000
v -4.937500 0.875000 0.750000
v -4.937500 0.750000 0.750000
v -5.125000 0.781250 0.750000
v -5.125000 0.781250 0.375000
v -4.937500 0.750000 0.375000
v -4.937500 0.843750 0.750000
v -5.125000 0.875000 0.750000
v -5.125000 0.875000 1.062500
v -4.937500 0.843750 1.062500
v -4.937500 0.781250 1.062500
v -5.125000 0.812500 1.062500
v -5.125000 0.812500 0.750000
v -4.937500 0.781250 0.750000
v -5.125000 0.843750 0.125000
v -5.312500 0.875000 0.125000
v -5.312500 0.875000 0.625000
v -5.125000 0.843750 0.625000
v -5.125000 0.781250 0.625000
v -5.312500 0.812500 0.625000
v -5.312500 0.812500 0.125000
v -5.125000 0.781250 0.125000
v -5.125000 0.875000 0.625000
v -5.312500 0.906250 0.625000
v -5.312500 0.906250 0.937500
v -5.125000 0.875000 0.937500
v -5.125000 0.812500 0.937500
v -5.312500 0.843750 0.937500
v -5.312500 0.843750 0.625000
v -5.125000 0.812500 0.625000
vn 0.1592 0.9872 -0.0000
vn -0.1592 -0.9872 -0.0000
vn -0.1280 -0.0000 -0.9918
vn -1.0000 -0.0000 -0.0000
vn -0.1560 -0.9878 -0.0000
vn -0.1560 -0.0000 -0.9878
vn 1.0000 -0.0000 -0.0000
vn -0.1521 -0.9884 -0.0000
vn -0.1521 -0.0000 -0.9884
vn 0.1560 0.9878 -0.0000
vn -0.0000 -0.0000 -1.0000
vn -0.0000 -0.0000 1.0000
vn 0.1521 0.9884 -0.0000
vn 0.1146 -0.0000 -0.9934
vn -0.1146 -0.0000 0.9934
vn -0.1280 -0.0000 0.9918
vn 0.1560 -0.0000 0.9878
vn 0.1521 -0.0000 0.9884
vn 0.1644 0.9864 -0.0000
vn -0.1644 -0.9864 -0.0000
vt 0.023438 0.433035
vt 0.023438 0.494860
vt 0.013672 0.496094
vt 0.013672 0.434269
vt 0.507302 0.990234
vt 0.569127 0.990234
vt 0.567893 1.000000
vt 0.506068 1.000000
vt 0.730469 0.791016
vt 0.668644 0.791016
vt 0.668027 0.787109
vt 0.729852 0.787109
vt 0.832031 1.000000
vt 0.822266 1.000000
vt 0.822266 0.996094
vt 0.832031 0.996094
vt 0.042969 0.372735
vt 0.042969 0.434560
vt 0.035156 0.435547
vt 0.035156 0.373722
vt 0.559913 0.781250
vt 0.621738 0.781250
vt 0.620751 0.789062
vt 0.558926 0.789062
vt 0.775391 0.751953
vt 0.713566 0.751953
vt 0.713257 0.750000
vt 0.775082 0.750000
vt 0.871094 0.146484
vt 0.863281 0.146484
vt 0.863281 0.144531
vt 0.871094 0.144531
vt 0.475507 0.906250
vt 0.513530 0.906250
vt 0.510821 0.923828
vt 0.472798 0.923828
vt 0.814453 0.779297
vt 0.776430 0.779297
vt 0.776129 0.777344
vt 0.814152 0.777344
vt 0.841797 0.642578
vt 0.824219 0.642578
vt 0.824219 0.640625
vt 0.841797 0.640625
vt 0.557665 0.599609
vt 0.583650 0.599609
vt 0.581007 0.617188
vt 0.555022 0.617188
vt 0.833008 0.898438
vt 0.807023 0.898438
vt 0.806729 0.896484
vt 0.832714 0.896484
vt 0.841797 0.472656
vt 0.824219 0.472656
vt 0.824219 0.470703
vt 0.841797 0.470703
vt 0.841797 0.404297
vt 0.824219 0.404297
vt 0.824219 0.402344
vt 0.841797 0.402344
vt 0.423828 0.437500
vt 0.423828 0.474609
vt 0.408203 0.474609
vt 0.408203 0.437500
vt 0.441406 0.437500
vt 0.441406 0.474609
vt 0.425781 0.474609
vt 0.425781 0.437500
vt 0.677597 0.906250
vt 0.640028 0.906250
vt 0.638809 0.898438
vt 0.676378 0.898438
vt 0.658203 0.390165
vt 0.658203 0.427734
vt 0.650391 0.426516
vt 0.650391 0.388947
vt 0.748047 0.511719
vt 0.732422 0.511719
vt 0.732422 0.503906
vt 0.748047 0.503906
vt 0.748047 0.501953
vt 0.732422 0.501953
vt 0.732422 0.494141
vt 0.748047 0.494141
vt 0.566406 0.951172
vt 0.560547 0.988281
vt 0.552734 0.988281
vt 0.552734 0.951172
vt 0.568359 0.714844
vt 0.568359 0.751953
vt 0.560547 0.751953
vt 0.554688 0.714844
vt 0.328125 0.278837
vt 0.328125 0.316406
vt 0.322266 0.315492
vt 0.322266 0.277923
vt 0.789062 0.984375
vt 0.775391 0.984375
vt 0.775391 0.978516
vt 0.789062 0.978516
vt 0.690186 0.767578
vt 0.741897 0.767578
vt 0.741455 0.771484
vt 0.689743 0.771484
vt 0.107422 0.251953
vt 0.107422 0.303665
vt 0.103516 0.304107
vt 0.103516 0.252396
vt 0.731989 0.931641
vt 0.680278 0.931641
vt 0.679688 0.927734
vt 0.731399 0.927734
vt 0.697266 0.282273
vt 0.697266 0.333984
vt 0.693359 0.333394
vt 0.693359 0.281683
vt 0.291016 0.134766
vt 0.287109 0.134766
vt 0.287109 0.130859
vt 0.291016 0.130859
vt 0.670506 0.744141
vt 0.732331 0.744141
vt 0.731838 0.748047
vt 0.670013 0.748047
vt 0.683594 0.332031
vt 0.683594 0.393856
vt 0.679688 0.394350
vt 0.679688 0.332525
vt 0.664062 0.262394
vt 0.664062 0.324219
vt 0.660156 0.323602
vt 0.660156 0.261777
vt 0.869141 0.710938
vt 0.865234 0.710938
vt 0.865234 0.707031
vt 0.869141 0.707031
vt 0.296875 0.134766
vt 0.292969 0.134766
vt 0.292969 0.130859
vt 0.296875 0.130859
vt 0.251953 0.664062
vt 0.251953 0.724609
vt 0.232422 0.724609
vt 0.224609 0.664062
vt 0.281250 0.664062
vt 0.273438 0.724609
vt 0.253906 0.724609
vt 0.253906 0.664062
vt 0.627478 0.988281
vt 0.566149 0.988281
vt 0.564905 0.980469
vt 0.626234 0.980469
vt 0.462891 0.379581
vt 0.462891 0.441406
vt 0.455078 0.440172
vt 0.455078 0.378347
vt 0.638672 0.574219
vt 0.619141 0.574219
vt 0.619141 0.566406
vt 0.638672 0.566406
vt 0.707031 0.916016
vt 0.679688 0.916016
vt 0.679688 0.908203
vt 0.707031 0.908203
vt 0.300781 0.390625
vt 0.300781 0.441406
vt 0.291016 0.441406
vt 0.291016 0.390625
vt 0.453125 0.390625
vt 0.453125 0.441406
vt 0.443359 0.441406
vt 0.443359 0.390625
vt 0.596256 0.683594
vt 0.544877 0.683594
vt 0.543392 0.673828
vt 0.594771 0.673828
vt 0.328125 0.405653
vt 0.328125 0.457031
vt 0.318359 0.455546
vt 0.318359 0.404168
vt 0.763672 0.345703
vt 0.753906 0.345703
vt 0.753906 0.335938
vt 0.763672 0.335938
vt 0.023438 0.244141
vt 0.013672 0.244141
vt 0.013672 0.234375
vt 0.023438 0.234375
vt 0.527344 0.583984
vt 0.527344 0.634766
vt 0.515625 0.634766
vt 0.515625 0.583984
vt 0.496094 0.433594
vt 0.496094 0.484375
vt 0.484375 0.484375
vt 0.484375 0.433594
vt 0.622963 0.722656
vt 0.571584 0.722656
vt 0.570396 0.714844
vt 0.621775 0.714844
vt 0.599609 0.382215
vt 0.599609 0.433594
vt 0.591797 0.432406
vt 0.591797 0.381027
vt 0.771484 0.529297
vt 0.759766 0.529297
vt 0.759766 0.521484
vt 0.771484 0.521484
vt 0.015625 0.531250
vt 0.007812 0.591797
vt 0.000000 0.591797
vt 0.000000 0.531250
vt 0.423828 0.849609
vt 0.423828 0.910156
vt 0.416016 0.910156
vt 0.408203 0.849609
vt 0.657227 0.562500
vt 0.595402 0.562500
vt 0.594476 0.556641
vt 0.656301 0.556641
vt 0.140625 0.335155
vt 0.140625 0.396484
vt 0.134766 0.395551
vt 0.134766 0.334222
vt 0.824219 0.966797
vt 0.816406 0.966797
vt 0.816406 0.960938
vt 0.824219 0.960938
vt 0.775391 0.509766
vt 0.759766 0.509766
vt 0.759766 0.503906
vt 0.775391 0.503906
vt 0.427734 0.353050
vt 0.427734 0.391073
vt 0.417969 0.392578
vt 0.417969 0.354555
vt 0.759766 0.958984
vt 0.721742 0.958984
vt 0.721140 0.955078
vt 0.759164 0.955078
vt 0.162109 0.237367
vt 0.162109 0.275391
vt 0.158203 0.274789
vt 0.158203 0.236765
vt 0.832031 0.283203
vt 0.822266 0.283203
vt 0.822266 0.279297
vt 0.832031 0.279297
vt 0.650391 0.472492
vt 0.650391 0.510515
vt 0.642578 0.511719
vt 0.642578 0.473695
vt 0.818359 0.582031
vt 0.780336 0.582031
vt 0.780035 0.580078
vt 0.818058 0.580078
vt 0.457031 0.176820
vt 0.457031 0.214844
vt 0.455078 0.214543
vt 0.455078 0.176519
vt 0.873047 0.705078
vt 0.865234 0.705078
vt 0.865234 0.703125
vt 0.873047 0.703125
vt 0.320312 0.306532
vt 0.320312 0.332516
vt 0.310547 0.333984
vt 0.310547 0.308000
vt 0.771484 0.966797
vt 0.745500 0.966797
vt 0.744913 0.962891
vt 0.770897 0.962891
vt 0.230469 0.433594
vt 0.222656 0.484375
vt 0.218750 0.484375
vt 0.218750 0.433594
vt 0.316406 0.433594
vt 0.316406 0.484375
vt 0.312500 0.484375
vt 0.304688 0.433594
vt 0.680664 0.755859
vt 0.628695 0.755859
vt 0.627814 0.750000
vt 0.679783 0.750000
vt 0.369141 0.304090
vt 0.369141 0.355469
vt 0.363281 0.354578
vt 0.363281 0.303199
vt 0.851562 0.771484
vt 0.847656 0.771484
vt 0.847656 0.765625
vt 0.851562 0.765625
vt 0.544922 0.281435
vt 0.544922 0.307419
vt 0.537109 0.308594
vt 0.537109 0.282609
vt 0.833008 0.894531
vt 0.807023 0.894531
vt 0.806729 0.892578
vt 0.832714 0.892578
vt 0.767578 0.169328
vt 0.767578 0.195312
vt 0.765625 0.195019
vt 0.765625 0.169034
vt 0.324219 0.134766
vt 0.316406 0.134766
vt 0.316406 0.132812
vt 0.324219 0.132812
vt 0.583984 0.622938
vt 0.583984 0.648923
vt 0.574219 0.650391
vt 0.574219 0.624406
vt 0.669871 0.671875
vt 0.695855 0.671875
vt 0.694387 0.681641
vt 0.668403 0.681641
vt 0.742188 0.394531
vt 0.716203 0.394531
vt 0.715322 0.388672
vt 0.741307 0.388672
vt 0.490234 0.974015
vt 0.490234 1.000000
vt 0.484375 0.999119
vt 0.484375 0.973135
vt 0.435547 0.197266
vt 0.425781 0.197266
vt 0.425781 0.191406
vt 0.435547 0.191406
vt 0.380859 0.306532
vt 0.380859 0.332516
vt 0.371094 0.333984
vt 0.371094 0.308000
vt 0.669871 0.875000
vt 0.695855 0.875000
vt 0.694387 0.884766
vt 0.668402 0.884766
vt 0.833008 0.623047
vt 0.807023 0.623047
vt 0.806730 0.621094
vt 0.832714 0.621094
vt 0.863281 0.652344
vt 0.853516 0.652344
vt 0.853516 0.650391
vt 0.863281 0.650391
vt 0.789062 0.884766
vt 0.789062 0.890625
vt 0.775391 0.890625
vt 0.775391 0.884766
vt 0.789062 0.876953
vt 0.789062 0.882812
vt 0.775391 0.882812
vt 0.775391 0.876953
vt 0.825717 0.822266
vt 0.819777 0.822266
vt 0.818814 0.816406
vt 0.824754 0.816406
vt 0.216797 0.175700
vt 0.216797 0.181641
vt 0.210938 0.180677
vt 0.210938 0.174737
vt 0.789062 0.912109
vt 0.775391 0.912109
vt 0.775391 0.906250
vt 0.789062 0.906250
vt 0.804688 0.271484
vt 0.804688 0.277344
vt 0.792969 0.277344
vt 0.792969 0.271484
vt 0.804688 0.263672
vt 0.804688 0.269531
vt 0.792969 0.269531
vt 0.792969 0.263672
vt 0.846553 0.193359
vt 0.840613 0.193359
vt 0.839971 0.189453
vt 0.845911 0.189453
vt 0.828125 0.931641
vt 0.816406 0.931641
vt 0.816406 0.927734
vt 0.828125 0.927734
vt 0.828125 0.912109
vt 0.816406 0.912109
vt 0.816406 0.908203
vt 0.828125 0.908203
vt 0.169922 0.177734
vt 0.169922 0.183594
vt 0.162109 0.183594
vt 0.162109 0.177734
vt 0.248047 0.177734
vt 0.248047 0.183594
vt 0.240234 0.183594
vt 0.240234 0.177734
vt 0.848506 0.800781
vt 0.842566 0.800781
vt 0.841924 0.796875
vt 0.847864 0.796875
vt 0.232422 0.152263
vt 0.232422 0.158203
vt 0.228516 0.157561
vt 0.228516 0.151621
vt 0.843750 0.214844
vt 0.835938 0.214844
vt 0.835938 0.210938
vt 0.843750 0.210938
vt 0.814453 0.980469
vt 0.814453 0.986328
vt 0.804688 0.986328
vt 0.804688 0.980469
vt 0.814453 0.960938
vt 0.814453 0.966797
vt 0.804688 0.966797
vt 0.804688 0.960938
vt 0.871783 0.214844
vt 0.865843 0.214844
vt 0.865522 0.212891
vt 0.871462 0.212891
vt 0.863281 0.626953
vt 0.853516 0.626953
vt 0.853516 0.625000
vt 0.863281 0.625000
vt 0.863281 0.623047
vt 0.853516 0.623047
vt 0.853516 0.621094
vt 0.863281 0.621094
vt 0.804688 0.255859
vt 0.804688 0.261719
vt 0.792969 0.261719
vt 0.792969 0.255859
vt 0.804688 0.248047
vt 0.804688 0.253906
vt 0.792969 0.253906
vt 0.792969 0.248047
vt 0.871783 0.414062
vt 0.865843 0.414062
vt 0.865522 0.412109
vt 0.871462 0.412109
vt 0.859375 0.806641
vt 0.847656 0.806641
vt 0.847656 0.804688
vt 0.859375 0.804688
vt 0.859375 0.728516
vt 0.847656 0.728516
vt 0.847656 0.726562
vt 0.859375 0.726562
vt 0.804688 0.240234
vt 0.804688 0.246094
vt 0.792969 0.246094
vt 0.792969 0.240234
vt 0.804688 0.232422
vt 0.804688 0.238281
vt 0.792969 0.238281
vt 0.792969 0.232422
vt 0.848506 0.925781
vt 0.842566 0.925781
vt 0.841924 0.921875
vt 0.847864 0.921875
vt 0.845703 0.765544
vt 0.845703 0.771484
vt 0.841797 0.770842
vt 0.841797 0.764902
vt 0.828125 0.890625
vt 0.816406 0.890625
vt 0.816406 0.886719
vt 0.828125 0.886719
vt 0.148438 0.183594
vt 0.136719 0.183594
vt 0.136719 0.179688
vt 0.148438 0.179688
vt 0.814453 0.925781
vt 0.814453 0.931641
vt 0.804688 0.931641
vt 0.804688 0.925781
vt 0.083984 0.189453
vt 0.083984 0.195312
vt 0.074219 0.195312
vt 0.074219 0.189453
vt 0.703125 0.128825
vt 0.703125 0.134766
vt 0.701172 0.134445
vt 0.701172 0.128504
vt 0.863281 0.593750
vt 0.853516 0.593750
vt 0.853516 0.591797
vt 0.863281 0.591797
vt 0.775391 0.496094
vt 0.775391 0.501953
vt 0.759766 0.501953
vt 0.759766 0.496094
vt 0.775391 0.447266
vt 0.775391 0.453125
vt 0.759766 0.453125
vt 0.759766 0.447266
vt 0.871783 0.210938
vt 0.865843 0.210938
vt 0.865522 0.208984
vt 0.871462 0.208984
vt 0.849609 0.746094
vt 0.833984 0.746094
vt 0.833984 0.744141
vt 0.849609 0.744141
vt 0.849609 0.710938
vt 0.833984 0.710938
vt 0.833984 0.708984
vt 0.849609 0.708984
vt 0.095703 0.189453
vt 0.095703 0.195312
vt 0.085938 0.195312
vt 0.085938 0.189453
vt 0.814453 0.906250
vt 0.814453 0.912109
vt 0.804688 0.912109
vt 0.804688 0.906250
vt 0.871783 0.207031
vt 0.865843 0.207031
vt 0.865522 0.205078
vt 0.871462 0.205078
vt 0.798828 0.128825
vt 0.798828 0.134766
vt 0.796875 0.134445
vt 0.796875 0.128504
vt 0.863281 0.445312
vt 0.853516 0.445312
vt 0.853516 0.443359
vt 0.863281 0.443359
s 0
usemtl m_d081a7cc-887d-9614-fa7f-b4d241605a85
f 1/1/1 2/2/1 3/3/1 4/4/1
f 5/5/2 6/6/2 7/7/2 8/8/2
f 2/9/3 1/10/3 8/11/3 7/12/3
f 3/13/4 2/14/4 7/15/4 6/16/4
f 9/17/1 10/18/1 11/19/1 12/20/1
f 13/21/2 14/22/2 15/23/2 16/24/2
f 10/25/3 9/26/3 16/27/3 15/28/3
f 11/29/4 10/30/4 15/31/4 14/32/4
f 20/33/5 21/34/5 22/35/5 23/36/5
f 18/37/6 17/38/6 23/39/6 22/40/6
f 17/41/7 19/42/7 20/43/7 23/44/7
f 28/45/8 29/46/8 30/47/8 31/48/8
f 25/49/9 24/50/9 31/51/9 30/52/9
f 26/53/4 25/54/4 30/55/4 29/56/4
f 24/57/7 27/58/7 28/59/7 31/60/7
f 32/61/10 33/62/10 34/63/10 35/64/10
f 36/65/5 37/66/5 38/67/5 39/68/5
f 33/69/11 32/70/11 39/71/11 38/72/11
f 35/73/12 34/74/12 37/75/12 36/76/12
f 34/77/4 33/78/4 38/79/4 37/80/4
f 32/81/7 35/82/7 36/83/7 39/84/7
f 40/85/10 41/86/10 42/87/10 43/88/10
f 44/89/5 45/90/5 46/91/5 47/92/5
f 43/93/12 42/94/12 45/95/12 44/96/12
f 40/97/7 43/98/7 44/99/7 47/100/7
f 48/101/13 49/102/13 50/103/13 51/104/13
f 52/105/8 53/106/8 54/107/8 55/108/8
f 49/109/14 48/110/14 55/111/14 54/112/14
f 51/113/15 50/114/15 53/115/15 52/116/15
f 48/117/7 51/118/7 52/119/7 55/120/7
f 56/121/1 57/122/1 58/123/1 59/124/1
f 60/125/2 61/126/2 62/127/2 63/128/2
f 59/129/16 58/130/16 61/131/16 60/132/16
f 58/133/4 57/134/4 62/135/4 61/136/4
f 56/137/7 59/138/7 60/139/7 63/140/7
f 64/141/1 65/142/1 66/143/1 67/144/1
f 68/145/2 69/146/2 70/147/2 71/148/2
f 65/149/11 64/150/11 71/151/11 70/152/11
f 67/153/16 66/154/16 69/155/16 68/156/16
f 66/157/4 65/158/4 70/159/4 69/160/4
f 64/161/7 67/162/7 68/163/7 71/164/7
f 72/165/13 73/166/13 74/167/13 75/168/13
f 76/169/8 77/170/8 78/171/8 79/172/8
f 73/173/11 72/174/11 79/175/11 78/176/11
f 75/177/12 74/178/12 77/179/12 76/180/12
f 74/181/4 73/182/4 78/183/4 77/184/4
f 72/185/7 75/186/7 76/187/7 79/188/7
f 80/189/13 81/190/13 82/191/13 83/192/13
f 84/193/8 85/194/8 86/195/8 87/196/8
f 81/197/11 80/198/11 87/199/11 86/200/11
f 83/201/12 82/202/12 85/203/12 84/204/12
f 82/205/4 81/206/4 86/207/4 85/208/4
f 88/209/1 89/210/1 90/211/1 91/212/1
f 92/213/2 93/214/2 94/215/2 95/216/2
f 89/217/3 88/218/3 95/219/3 94/220/3
f 91/221/12 90/222/12 93/223/12 92/224/12
f 90/225/4 89/226/4 94/227/4 93/228/4
f 88/229/7 91/230/7 92/231/7 95/232/7
f 96/233/10 97/234/10 98/235/10 99/236/10
f 97/237/6 96/238/6 103/239/6 102/240/6
f 99/241/17 98/242/17 101/243/17 100/244/17
f 96/245/7 99/246/7 100/247/7 103/248/7
f 104/249/10 105/250/10 106/251/10 107/252/10
f 105/253/6 104/254/6 111/255/6 110/256/6
f 107/257/17 106/258/17 109/259/17 108/260/17
f 104/261/7 107/262/7 108/263/7 111/264/7
f 112/265/13 113/266/13 114/267/13 115/268/13
f 113/269/9 112/270/9 117/271/9 116/272/9
f 118/273/13 119/274/13 120/275/13 121/276/13
f 122/277/8 123/278/8 124/279/8 125/280/8
f 119/281/9 118/282/9 125/283/9 124/284/9
f 121/285/12 120/286/12 123/287/12 122/288/12
f 120/289/4 119/290/4 124/291/4 123/292/4
f 126/293/13 127/294/13 128/295/13 129/296/13
f 127/297/9 126/298/9 133/299/9 132/300/9
f 129/301/18 128/302/18 131/303/18 130/304/18
f 126/305/7 129/306/7 130/307/7 133/308/7
f 134/309/13 135/310/13 136/311/13 137/312/13
f 138/313/8 139/314/8 140/315/8 141/316/8
f 135/317/9 134/318/9 141/319/9 140/320/9
f 137/321/18 136/322/18 139/323/18 138/324/18
f 136/325/4 135/326/4 140/327/4 139/328/4
f 142/329/13 143/330/13 144/331/13 145/332/13
f 146/333/8 147/334/8 148/335/8 149/336/8
f 143/337/9 142/338/9 149/339/9 148/340/9
f 144/341/4 143/342/4 148/343/4 147/344/4
f 150/345/19 151/346/19 152/347/19 153/348/19
f 154/349/20 155/350/20 156/351/20 157/352/20
f 151/353/11 150/354/11 157/355/11 156/356/11
f 153/357/12 152/358/12 155/359/12 154/360/12
f 152/361/4 151/362/4 156/363/4 155/364/4
f 158/365/19 159/366/19 160/367/19 161/368/19
f 162/369/20 163/370/20 164/371/20 165/372/20
f 159/373/11 158/374/11 165/375/11 164/376/11
f 160/377/4 159/378/4 164/379/4 163/380/4
f 158/381/7 161/382/7 162/383/7 165/384/7
f 166/385/19 167/386/19 168/387/19 169/388/19
f 170/389/20 171/390/20 172/391/20 173/392/20
f 167/393/11 166/394/11 173/395/11 172/396/11
f 169/397/12 168/398/12 171/399/12 170/400/12
f 168/401/4 167/402/4 172/403/4 171/404/4
f 174/405/19 175/406/19 176/407/19 177/408/19
f 178/409/20 179/410/20 180/411/20 181/412/20
f 175/413/11 174/414/11 181/415/11 180/416/11
f 176/417/4 175/418/4 180/419/4 179/420/4
f 174/421/7 177/422/7 178/423/7 181/424/7
f 182/425/19 183/426/19 184/427/19 185/428/19
f 186/429/20 187/430/20 188/431/20 189/432/20
f 183/433/11 182/434/11 189/435/11 188/436/11
f 184/437/4 183/438/4 188/439/4 187/440/4
f 182/441/7 185/442/7 186/443/7 189/444/7
f 190/445/19 191/446/19 192/447/19 193/448/19
f 194/449/20 195/450/20 196/451/20 197/452/20
f 191/453/11 190/454/11 197/455/11 196/456/11
f 193/457/12 192/458/12 195/459/12 194/460/12
f 192/461/4 191/462/4 196/463/4 195/464/4
f 190/465/7 193/466/7 194/467/7 197/468/7
f 198/469/19 199/470/19 200/471/19 201/472/19
f 202/473/20 203/474/20 204/475/20 205/476/20
f 201/477/12 200/478/12 203/479/12 202/480/12
f 200/481/4 199/482/4 204/483/4 203/484/4
f 206/485/19 207/486/19 208/487/19 209/488/19
f 210/489/20 211/490/20 212/491/20 213/492/20
f 207/493/11 206/494/11 213/495/11 212/496/11
f 208/497/4 207/498/4 212/499/4 211/500/4
f 206/501/7 209/502/7 210/503/7 213/504/7
f 214/505/19 215/506/19 216/507/19 217/508/19
f 218/509/20 219/510/20 220/511/20 221/512/20
f 215/513/11 214/514/11 221/515/11 220/516/11
f 217/517/12 216/518/12 219/519/12 218/520/12
f 216/521/4 215/522/4 220/523/4 219/524/4
