# Blender 3.6.0
# www.blender.org
mtllib j2mwing_l.mtl
o particle
v 1.187500 0.156250 -0.750000
v -0.000000 -0.031250 -0.937500
v -0.000000 -0.031250 -0.375000
v 1.187500 0.093750 -0.187500
v -0.000000 -0.093750 -0.375000
v -0.000000 -0.093750 -0.937500
v 1.187500 0.093750 -0.750000
v 2.000000 0.281250 -0.625000
v 1.187500 0.156250 -0.750000
v 1.187500 0.156250 -0.187500
v 2.000000 0.281250 -0.062500
v 2.000000 0.218750 -0.062500
v 1.187500 0.093750 -0.187500
v 1.187500 0.093750 -0.750000
v 2.000000 0.218750 -0.625000
v 4.750000 0.812500 -0.000000
v 2.812500 0.500000 -0.250000
v 2.812500 0.500000 0.062500
v 4.750000 0.812500 0.312500
v 4.750000 0.687500 0.312500
v 2.812500 0.375000 0.062500
v 2.812500 0.375000 -0.250000
v 4.750000 0.687500 -0.000000
v 4.750000 0.781250 -0.250000
v 2.812500 0.468750 -0.500000
v 2.812500 0.468750 -0.250000
v 4.750000 0.781250 -0.000000
v 4.750000 0.718750 -0.000000
v 2.812500 0.406250 -0.250000
v 2.812500 0.406250 -0.500000
v 4.750000 0.718750 -0.250000
v 1.187500 0.281250 -0.187500
v -0.000000 0.093750 -0.375000
v 0.000000 0.093750 0.062500
v 1.187500 0.281250 0.062500
v 1.187500 0.093750 0.062500
v 0.000000 -0.093750 0.062500
v -0.000000 -0.093750 -0.375000
v 1.187500 0.093750 -0.187500
v 1.187500 0.312500 0.062500
v 0.000000 0.125000 0.062500
v 0.000000 0.125000 0.562500
v 1.187500 0.312500 0.562500
v 1.187500 0.062500 0.562500
v 0.000000 -0.125000 0.562500
v 0.000000 -0.125000 0.062500
v 1.187500 0.062500 0.062500
v 1.187500 0.281250 -0.500000
v -0.000000 0.093750 -0.687500
v -0.000000 0.093750 -0.375000
v 1.187500 0.281250 -0.187500
v 1.187500 0.156250 -0.187500
v -0.000000 -0.031250 -0.375000
v -0.000000 -0.031250 -0.687500
v 1.187500 0.156250 -0.500000
v 1.187500 0.218750 -0.750000
v -0.000000 0.031250 -0.937500
v -0.000000 0.031250 -0.687500
v 1.187500 0.218750 -0.500000
v -0.000000 -0.031250 -0.687500
v -0.000000 -0.031250 -0.937500
v 1.187500 0.156250 -0.750000
v 2.000000 0.406250 -0.375000
v 1.187500 0.281250 -0.500000
v 1.187500 0.281250 -0.187500
v 2.000000 0.406250 -0.062500
v 1.187500 0.156250 -0.187500
v 1.187500 0.156250 -0.500000
v 2.000000 0.281250 -0.375000
v 2.000000 0.343750 -0.625000
v 1.187500 0.218750 -0.750000
v 1.187500 0.218750 -0.500000
v 2.000000 0.343750 -0.375000
v 2.000000 0.281250 -0.375000
v 1.187500 0.156250 -0.500000
v 1.187500 0.156250 -0.750000
v 2.000000 0.281250 -0.625000
v 2.812500 0.531250 -0.250000
v 2.000000 0.406250 -0.375000
v 2.000000 0.406250 -0.062500
v 2.812500 0.531250 0.062500
v 2.812500 0.343750 0.062500
v 2.000000 0.218750 -0.062500
v 2.000000 0.218750 -0.375000
v 2.812500 0.343750 -0.250000
v 2.812500 0.468750 -0.500000
v 2.000000 0.343750 -0.625000
v 2.000000 0.343750 -0.312500
v 2.812500 0.468750 -0.187500
v 2.812500 0.406250 -0.187500
v 2.000000 0.281250 -0.312500
v 2.000000 0.281250 -0.625000
v 2.812500 0.406250 -0.500000
v 2.812500 0.531250 0.062500
v 1.187500 0.281250 -0.187500
v 1.187500 0.281250 0.187500
v 2.812500 0.531250 0.187500
v 2.812500 0.343750 0.187500
v 1.187500 0.093750 0.187500
v 1.187500 0.093750 -0.187500
v 2.812500 0.343750 0.062500
v 2.812500 0.562500 0.187500
v 1.187500 0.312500 0.187500
v 1.187500 0.312500 0.562500
v 2.812500 0.562500 0.562500
v 2.812500 0.312500 0.562500
v 1.187500 0.062500 0.562500
v 1.187500 0.062500 0.187500
v 2.812500 0.312500 0.187500
v 2.812500 0.625000 0.562500
v 1.187500 0.375000 0.562500
v 1.187500 0.375000 0.875000
v 2.812500 0.625000 0.875000
v 2.812500 0.312500 0.875000
v 1.187500 0.062500 0.875000
v 1.187500 0.062500 0.562500
v 2.812500 0.312500 0.562500
v 2.812500 0.562500 1.437500
v 1.187500 0.312500 1.625000
v 1.187500 0.312500 1.750000
v 2.812500 0.562500 1.562500
v 2.812500 0.437500 1.562500
v 1.187500 0.187500 1.750000
v 1.187500 0.187500 1.625000
v 2.812500 0.437500 1.437500
v 4.750000 0.875000 1.187500
v 2.812500 0.562500 1.437500
v 2.812500 0.562500 1.562500
v 4.750000 0.875000 1.312500
v 4.750000 0.750000 1.312500
v 2.812500 0.437500 1.562500
v 2.812500 0.437500 1.437500
v 4.750000 0.750000 1.187500
v 4.750000 0.875000 0.312500
v 2.812500 0.562500 0.062500
v 2.812500 0.562500 0.562500
v 4.750000 0.875000 0.562500
v 4.750000 0.687500 0.562500
v 2.812500 0.375000 0.562500
v 2.812500 0.375000 0.062500
v 4.750000 0.687500 0.312500
v 4.750000 0.937500 0.562500
v 2.812500 0.625000 0.562500
v 2.812500 0.625000 1.437500
v 4.750000 0.937500 1.187500
v 4.750000 0.687500 1.187500
v 2.812500 0.375000 1.437500
v 2.812500 0.375000 0.562500
v 4.750000 0.687500 0.562500
v 4.937500 0.843750 0.125000
v 4.750000 0.812500 0.125000
v 4.750000 0.812500 0.500000
v 4.937500 0.843750 0.500000
v 4.937500 0.718750 0.500000
v 4.750000 0.687500 0.500000
v 4.750000 0.687500 0.125000
v 4.937500 0.718750 0.125000
v 4.937500 0.812500 -0.187500
v 4.750000 0.781250 -0.187500
v 4.750000 0.781250 0.125000
v 4.937500 0.812500 0.125000
v 4.937500 0.750000 0.125000
v 4.750000 0.718750 0.125000
v 4.750000 0.718750 -0.187500
v 4.937500 0.750000 -0.187500
v 4.937500 0.906250 0.500000
v 4.750000 0.875000 0.500000
v 4.750000 0.875000 0.937500
v 4.937500 0.906250 0.937500
v 4.937500 0.718750 0.937500
v 4.750000 0.687500 0.937500
v 4.750000 0.687500 0.500000
v 4.937500 0.718750 0.500000
v 4.937500 0.906250 0.937500
v 4.750000 0.875000 0.937500
v 4.750000 0.875000 1.187500
v 4.937500 0.906250 1.187500
v 4.937500 0.781250 1.187500
v 4.750000 0.750000 1.187500
v 4.750000 0.750000 0.937500
v 4.937500 0.781250 0.937500
v 5.125000 0.875000 0.750000
v 4.937500 0.843750 0.750000
v 4.937500 0.843750 1.062500
v 5.125000 0.875000 1.062500
v 5.125000 0.812500 1.062500
v 4.937500 0.781250 1.062500
v 4.937500 0.781250 0.750000
v 5.125000 0.812500 0.750000
v 5.125000 0.906250 0.375000
v 4.937500 0.875000 0.375000
v 4.937500 0.875000 0.750000
v 5.125000 0.906250 0.750000
v 5.125000 0.781250 0.750000
v 4.937500 0.750000 0.750000
v 4.937500 0.750000 0.375000
v 5.125000 0.781250 0.375000
v 5.125000 0.843750 -0.000000
v 4.937500 0.812500 -0.000000
v 4.937500 0.812500 0.375000
v 5.125000 0.843750 0.375000
v 5.125000 0.781250 0.375000
v 4.937500 0.750000 0.375000
v 4.937500 0.750000 -0.000000
v 5.125000 0.781250 -0.000000
v 5.312500 0.906250 0.625000
v 5.125000 0.875000 0.625000
v 5.125000 0.875000 0.937500
v 5.312500 0.906250 0.937500
v 5.312500 0.843750 0.937500
v 5.125000 0.812500 0.937500
v 5.125000 0.812500 0.625000
v 5.312500 0.843750 0.625000
v 5.312500 0.875000 0.125000
v 5.125000 0.843750 0.125000
v 5.125000 0.843750 0.625000
v 5.312500 0.875000 0.625000
v 5.312500 0.812500 0.625000
v 5.125000 0.781250 0.625000
v 5.125000 0.781250 0.125000
v 5.312500 0.812500 0.125000
vn 0.1560 -0.9878 -0.0000
vn 0.1560 -0.0000 -0.9878
vn -1.0000 -0.0000 -0.0000
vn 0.1521 -0.9884 -0.0000
vn 0.1521 -0.0000 -0.9884
vn 1.0000 -0.0000 -0.0000
vn -0.1592 0.9872 -0.0000
vn 0.1592 -0.9872 -0.0000
vn 0.1280 -0.0000 -0.9918
vn -0.1280 -0.0000 0.9918
vn -0.1560 0.9878 -0.0000
vn -0.0000 -0.0000 -1.0000
vn -0.0000 -0.0000 1.0000
vn -0.1560 -0.0000 0.9878
vn -0.1521 0.9884 -0.0000
vn -0.1521 -0.0000 0.9884
vn -0.1146 -0.0000 -0.9934
vn 0.1146 -0.0000 0.9934
vn -0.1280 -0.0000 -0.9918
vn 0.1280 -0.0000 0.9918
vn -0.1644 0.9864 -0.0000
vn 0.1644 -0.9864 -0.0000
vt 0.472656 0.966513
vt 0.472656 0.928490
vt 0.490234 0.925781
vt 0.490234 0.963804
vt 0.787109 0.499086
vt 0.787109 0.537109
vt 0.785156 0.536808
vt 0.785156 0.498785
vt 0.839844 0.529297
vt 0.822266 0.529297
vt 0.822266 0.527344
vt 0.839844 0.527344
vt 0.554688 0.647768
vt 0.554688 0.621783
vt 0.572266 0.619141
vt 0.572266 0.645125
vt 0.396484 0.169328
vt 0.396484 0.195312
vt 0.394531 0.195019
vt 0.394531 0.169034
vt 0.841797 0.859375
vt 0.824219 0.859375
vt 0.824219 0.857422
vt 0.841797 0.857422
vt 0.841797 0.832031
vt 0.824219 0.832031
vt 0.824219 0.830078
vt 0.841797 0.830078
vt 0.563987 0.576172
vt 0.502162 0.576172
vt 0.503396 0.566406
vt 0.565221 0.566406
vt 0.472656 0.497629
vt 0.472656 0.435804
vt 0.482422 0.434570
vt 0.482422 0.496395
vt 0.144531 0.260441
vt 0.144531 0.322266
vt 0.140625 0.321649
vt 0.140625 0.259824
vt 0.830078 0.277344
vt 0.820312 0.277344
vt 0.820312 0.273438
vt 0.830078 0.273438
vt 0.616845 0.712891
vt 0.555020 0.712891
vt 0.556007 0.705078
vt 0.617832 0.705078
vt 0.025391 0.434882
vt 0.025391 0.373058
vt 0.033203 0.372070
vt 0.033203 0.433895
vt 0.574219 0.207706
vt 0.574219 0.269531
vt 0.572266 0.269223
vt 0.572266 0.207398
vt 0.792602 0.333984
vt 0.730777 0.333984
vt 0.730469 0.332031
vt 0.792294 0.332031
vt 0.871094 0.175781
vt 0.863281 0.175781
vt 0.863281 0.173828
vt 0.871094 0.173828
vt 0.845703 0.136719
vt 0.837891 0.136719
vt 0.837891 0.134766
vt 0.845703 0.134766
vt 0.091797 0.802734
vt 0.085938 0.765625
vt 0.099609 0.765625
vt 0.099609 0.802734
vt 0.128906 0.759766
vt 0.128906 0.722656
vt 0.142578 0.722656
vt 0.136719 0.759766
vt 0.687500 0.502992
vt 0.687500 0.541016
vt 0.681641 0.540113
vt 0.681641 0.502089
vt 0.779297 0.558594
vt 0.765625 0.558594
vt 0.765625 0.552734
vt 0.779297 0.552734
vt 0.259766 0.474609
vt 0.259766 0.437500
vt 0.275391 0.437500
vt 0.275391 0.474609
vt 0.525391 0.687500
vt 0.525391 0.650391
vt 0.541016 0.650391
vt 0.541016 0.687500
vt 0.548828 0.312040
vt 0.548828 0.349609
vt 0.541016 0.348391
vt 0.541016 0.310822
vt 0.677597 0.916016
vt 0.640028 0.916016
vt 0.638809 0.908203
vt 0.676378 0.908203
vt 0.066406 0.634766
vt 0.050781 0.634766
vt 0.050781 0.626953
vt 0.066406 0.626953
vt 0.748047 0.521484
vt 0.732422 0.521484
vt 0.732422 0.513672
vt 0.748047 0.513672
vt 0.440623 0.685547
vt 0.402599 0.685547
vt 0.404104 0.675781
vt 0.442127 0.675781
vt 0.562500 0.239320
vt 0.562500 0.277344
vt 0.558594 0.276742
vt 0.558594 0.238718
vt 0.759328 0.988281
vt 0.721305 0.988281
vt 0.720703 0.984375
vt 0.758726 0.984375
vt 0.832031 0.666016
vt 0.822266 0.666016
vt 0.822266 0.662109
vt 0.832031 0.662109
vt 0.665382 0.748047
vt 0.627359 0.748047
vt 0.628563 0.740234
vt 0.666586 0.740234
vt 0.787109 0.362367
vt 0.787109 0.400391
vt 0.785156 0.400090
vt 0.785156 0.362066
vt 0.873047 0.779297
vt 0.865234 0.779297
vt 0.865234 0.777344
vt 0.873047 0.777344
vt 0.694387 0.873047
vt 0.668403 0.873047
vt 0.669871 0.863281
vt 0.695855 0.863281
vt 0.003906 0.227922
vt 0.003906 0.253906
vt 0.000000 0.253319
vt 0.000000 0.227334
vt 0.832031 0.425781
vt 0.822266 0.425781
vt 0.822266 0.421875
vt 0.832031 0.421875
vt 0.705765 0.906250
vt 0.679780 0.906250
vt 0.680954 0.898438
vt 0.706939 0.898438
vt 0.453125 0.169328
vt 0.453125 0.195312
vt 0.451172 0.195019
vt 0.451172 0.169034
vt 0.832919 0.697266
vt 0.806934 0.697266
vt 0.806641 0.695312
vt 0.832625 0.695312
vt 0.686575 0.724609
vt 0.660590 0.724609
vt 0.662058 0.714844
vt 0.688043 0.714844
vt 0.667969 0.712023
vt 0.667969 0.686038
vt 0.677734 0.684570
vt 0.677734 0.710555
vt 0.019531 0.565812
vt 0.019531 0.591797
vt 0.013672 0.590916
vt 0.013672 0.564931
vt 0.320312 0.197266
vt 0.310547 0.197266
vt 0.310547 0.191406
vt 0.320312 0.191406
vt 0.694387 0.861328
vt 0.668403 0.861328
vt 0.669871 0.851562
vt 0.695855 0.851562
vt 0.236328 0.333117
vt 0.236328 0.307132
vt 0.246094 0.305664
vt 0.246094 0.331649
vt 0.570312 0.169328
vt 0.570312 0.195312
vt 0.568359 0.195019
vt 0.568359 0.169034
vt 0.863281 0.867188
vt 0.853516 0.867188
vt 0.853516 0.865234
vt 0.863281 0.865234
vt 0.519531 0.687500
vt 0.511719 0.636719
vt 0.523438 0.636719
vt 0.523438 0.687500
vt 0.039062 0.488281
vt 0.039062 0.437500
vt 0.050781 0.437500
vt 0.042969 0.488281
vt 0.267578 0.317172
vt 0.267578 0.369141
vt 0.261719 0.368260
vt 0.261719 0.316291
vt 0.851562 0.871094
vt 0.847656 0.871094
vt 0.847656 0.865234
vt 0.851562 0.865234
vt 0.232422 0.486328
vt 0.232422 0.435547
vt 0.244141 0.435547
vt 0.244141 0.486328
vt 0.246094 0.486328
vt 0.246094 0.435547
vt 0.257812 0.435547
vt 0.257812 0.486328
vt 0.599609 0.436903
vt 0.599609 0.488281
vt 0.591797 0.487093
vt 0.591797 0.435715
vt 0.771484 0.609375
vt 0.759766 0.609375
vt 0.759766 0.601562
vt 0.771484 0.601562
vt 0.558594 0.894531
vt 0.558594 0.843750
vt 0.568359 0.843750
vt 0.568359 0.894531
vt 0.558594 0.841797
vt 0.558594 0.791016
vt 0.568359 0.791016
vt 0.568359 0.841797
vt 0.552734 0.700574
vt 0.552734 0.751953
vt 0.542969 0.750468
vt 0.542969 0.699089
vt 0.596256 0.695312
vt 0.544877 0.695312
vt 0.543392 0.685547
vt 0.594771 0.685547
vt 0.763672 0.400391
vt 0.753906 0.400391
vt 0.753906 0.390625
vt 0.763672 0.390625
vt 0.763672 0.357422
vt 0.753906 0.357422
vt 0.753906 0.347656
vt 0.763672 0.347656
vt 0.115234 0.304688
vt 0.115234 0.252976
vt 0.119141 0.252533
vt 0.119141 0.304245
vt 0.741455 0.964844
vt 0.689743 0.964844
vt 0.690186 0.960938
vt 0.741897 0.960938
vt 0.697266 0.336960
vt 0.697266 0.388672
vt 0.693359 0.388082
vt 0.693359 0.336370
vt 0.742188 0.970703
vt 0.690476 0.970703
vt 0.689886 0.966797
vt 0.741597 0.966797
vt 0.265625 0.134766
vt 0.261719 0.134766
vt 0.261719 0.130859
vt 0.265625 0.130859
vt 0.679688 0.458984
vt 0.679688 0.397159
vt 0.683594 0.396666
vt 0.683594 0.458491
vt 0.733791 0.890625
vt 0.671966 0.890625
vt 0.672459 0.886719
vt 0.734284 0.886719
vt 0.283203 0.260441
vt 0.283203 0.322266
vt 0.279297 0.321649
vt 0.279297 0.259824
vt 0.732422 0.896484
vt 0.670597 0.896484
vt 0.669980 0.892578
vt 0.731805 0.892578
vt 0.869141 0.730469
vt 0.865234 0.730469
vt 0.865234 0.726562
vt 0.869141 0.726562
vt 0.285156 0.593750
vt 0.277344 0.533203
vt 0.292969 0.533203
vt 0.292969 0.593750
vt 0.320312 0.605469
vt 0.320312 0.544922
vt 0.335938 0.544922
vt 0.328125 0.605469
vt 0.320312 0.338566
vt 0.320312 0.400391
vt 0.314453 0.399465
vt 0.314453 0.337640
vt 0.667850 0.798828
vt 0.606521 0.798828
vt 0.605588 0.792969
vt 0.666917 0.792969
vt 0.775391 0.599609
vt 0.759766 0.599609
vt 0.759766 0.593750
vt 0.775391 0.593750
vt 0.822266 0.404297
vt 0.814453 0.404297
vt 0.814453 0.398438
vt 0.822266 0.398438
vt 0.255859 1.000000
vt 0.255859 0.939453
vt 0.283203 0.939453
vt 0.275391 1.000000
vt 0.263672 0.937500
vt 0.255859 0.876953
vt 0.283203 0.876953
vt 0.283203 0.937500
vt 0.267578 0.374218
vt 0.267578 0.435547
vt 0.259766 0.434303
vt 0.259766 0.372974
vt 0.610352 0.777344
vt 0.548527 0.777344
vt 0.547293 0.769531
vt 0.609118 0.769531
vt 0.707031 0.941406
vt 0.679688 0.941406
vt 0.679688 0.933594
vt 0.707031 0.933594
vt 0.492188 0.869141
vt 0.472656 0.869141
vt 0.472656 0.861328
vt 0.492188 0.861328
vt 0.791016 0.984375
vt 0.791016 0.978516
vt 0.802734 0.978516
vt 0.802734 0.984375
vt 0.791016 0.912109
vt 0.791016 0.906250
vt 0.802734 0.906250
vt 0.802734 0.912109
vt 0.845703 0.894450
vt 0.845703 0.900391
vt 0.841797 0.899748
vt 0.841797 0.893808
vt 0.846553 0.550781
vt 0.840613 0.550781
vt 0.839971 0.546875
vt 0.845911 0.546875
vt 0.826172 0.396484
vt 0.814453 0.396484
vt 0.814453 0.392578
vt 0.826172 0.392578
vt 0.826172 0.390625
vt 0.814453 0.390625
vt 0.814453 0.386719
vt 0.826172 0.386719
vt 0.802734 0.689453
vt 0.802734 0.683594
vt 0.812500 0.683594
vt 0.812500 0.689453
vt 0.802734 0.681641
vt 0.802734 0.675781
vt 0.812500 0.675781
vt 0.812500 0.681641
vt 0.597656 0.128825
vt 0.597656 0.134766
vt 0.595703 0.134445
vt 0.595703 0.128504
vt 0.863281 0.818359
vt 0.853516 0.818359
vt 0.853516 0.816406
vt 0.863281 0.816406
vt 0.773438 0.611328
vt 0.773438 0.605469
vt 0.787109 0.605469
vt 0.787109 0.611328
vt 0.773438 0.576172
vt 0.773438 0.570312
vt 0.787109 0.570312
vt 0.787109 0.576172
vt 0.208984 0.175700
vt 0.208984 0.181641
vt 0.203125 0.180677
vt 0.203125 0.174737
vt 0.823764 0.593750
vt 0.817824 0.593750
vt 0.816861 0.587891
vt 0.822801 0.587891
vt 0.785156 0.761719
vt 0.771484 0.761719
vt 0.771484 0.755859
vt 0.785156 0.755859
vt 0.787109 0.744141
vt 0.773438 0.744141
vt 0.773438 0.738281
vt 0.787109 0.738281
vt 0.814453 0.193359
vt 0.814453 0.187500
vt 0.822266 0.187500
vt 0.822266 0.193359
vt 0.814453 0.185547
vt 0.814453 0.179688
vt 0.822266 0.179688
vt 0.822266 0.185547
vt 0.189453 0.152263
vt 0.189453 0.158203
vt 0.185547 0.157561
vt 0.185547 0.151621
vt 0.848506 0.886719
vt 0.842566 0.886719
vt 0.841924 0.882812
vt 0.847864 0.882812
vt 0.843750 0.593750
vt 0.835938 0.593750
vt 0.835938 0.589844
vt 0.843750 0.589844
vt 0.802734 0.673828
vt 0.802734 0.667969
vt 0.812500 0.667969
vt 0.812500 0.673828
vt 0.802734 0.666016
vt 0.802734 0.660156
vt 0.812500 0.660156
vt 0.812500 0.666016
vt 0.871783 0.244141
vt 0.865843 0.244141
vt 0.865522 0.242188
vt 0.871462 0.242188
vt 0.863281 0.787109
vt 0.853516 0.787109
vt 0.853516 0.785156
vt 0.863281 0.785156
vt 0.791016 0.884766
vt 0.791016 0.878906
vt 0.802734 0.878906
vt 0.802734 0.884766
vt 0.792969 0.697266
vt 0.792969 0.691406
vt 0.804688 0.691406
vt 0.804688 0.697266
vt 0.845703 0.804607
vt 0.845703 0.810547
vt 0.841797 0.809905
vt 0.841797 0.803964
vt 0.846553 0.509766
vt 0.840613 0.509766
vt 0.839971 0.505859
vt 0.845911 0.505859
vt 0.826172 0.384766
vt 0.814453 0.384766
vt 0.814453 0.380859
vt 0.826172 0.380859
vt 0.826172 0.378906
vt 0.814453 0.378906
vt 0.814453 0.375000
vt 0.826172 0.375000
vt 0.792969 0.623047
vt 0.792969 0.617188
vt 0.804688 0.617188
vt 0.804688 0.623047
vt 0.792969 0.292969
vt 0.792969 0.287109
vt 0.804688 0.287109
vt 0.804688 0.292969
vt 0.605469 0.128825
vt 0.605469 0.134766
vt 0.603516 0.134445
vt 0.603516 0.128504
vt 0.871783 0.417969
vt 0.865843 0.417969
vt 0.865522 0.416016
vt 0.871462 0.416016
vt 0.859375 0.810547
vt 0.847656 0.810547
vt 0.847656 0.808594
vt 0.859375 0.808594
vt 0.371094 0.197266
vt 0.371094 0.191406
vt 0.380859 0.191406
vt 0.380859 0.197266
vt 0.802734 0.578125
vt 0.802734 0.572266
vt 0.812500 0.572266
vt 0.812500 0.578125
vt 0.654297 0.128825
vt 0.654297 0.134766
vt 0.652344 0.134445
vt 0.652344 0.128504
vt 0.871783 0.240234
vt 0.865843 0.240234
vt 0.865522 0.238281
vt 0.871462 0.238281
vt 0.863281 0.763672
vt 0.853516 0.763672
vt 0.853516 0.761719
vt 0.863281 0.761719
vt 0.863281 0.759766
vt 0.853516 0.759766
vt 0.853516 0.757812
vt 0.863281 0.757812
vt 0.759766 0.544922
vt 0.759766 0.539062
vt 0.775391 0.539062
vt 0.775391 0.544922
vt 0.759766 0.537109
vt 0.759766 0.531250
vt 0.775391 0.531250
vt 0.775391 0.537109
vt 0.681641 0.128825
vt 0.681641 0.134766
vt 0.679688 0.134445
vt 0.679688 0.128504
vt 0.871783 0.236328
vt 0.865843 0.236328
vt 0.865522 0.234375
vt 0.871462 0.234375
vt 0.849609 0.878906
vt 0.833984 0.878906
vt 0.833984 0.876953
vt 0.849609 0.876953
s 0
usemtl m_d081a7cc-887d-9614-fa7f-b4d241605a85.001
f 4/1/1 5/2/1 6/3/1 7/4/1
f 2/5/2 1/6/2 7/7/2 6/8/2
f 3/9/3 2/10/3 6/11/3 5/12/3
f 12/13/4 13/14/4 14/15/4 15/16/4
f 9/17/5 8/18/5 15/19/5 14/20/5
f 10/21/3 9/22/3 14/23/3 13/24/3
f 8/25/6 11/26/6 12/27/6 15/28/6
f 16/29/7 17/30/7 18/31/7 19/32/7
f 20/33/8 21/34/8 22/35/8 23/36/8
f 17/37/9 16/38/9 23/39/9 22/40/9
f 16/41/6 19/42/6 20/43/6 23/44/6
f 24/45/7 25/46/7 26/47/7 27/48/7
f 28/49/8 29/50/8 30/51/8 31/52/8
f 25/53/9 24/54/9 31/55/9 30/56/9
f 27/57/10 26/58/10 29/59/10 28/60/10
f 26/61/3 25/62/3 30/63/3 29/64/3
f 24/65/6 27/66/6 28/67/6 31/68/6
f 32/69/11 33/70/11 34/71/11 35/72/11
f 36/73/1 37/74/1 38/75/1 39/76/1
f 33/77/2 32/78/2 39/79/2 38/80/2
f 34/81/3 33/82/3 38/83/3 37/84/3
f 40/85/11 41/86/11 42/87/11 43/88/11
f 44/89/1 45/90/1 46/91/1 47/92/1
f 41/93/12 40/94/12 47/95/12 46/96/12
f 43/97/13 42/98/13 45/99/13 44/100/13
f 42/101/3 41/102/3 46/103/3 45/104/3
f 40/105/6 43/106/6 44/107/6 47/108/6
f 48/109/11 49/110/11 50/111/11 51/112/11
f 49/113/2 48/114/2 55/115/2 54/116/2
f 51/117/14 50/118/14 53/119/14 52/120/14
f 50/121/3 49/122/3 54/123/3 53/124/3
f 56/125/11 57/126/11 58/127/11 59/128/11
f 57/129/2 56/130/2 62/131/2 61/132/2
f 58/133/3 57/134/3 61/135/3 60/136/3
f 63/137/15 64/138/15 65/139/15 66/140/15
f 64/141/5 63/142/5 69/143/5 68/144/5
f 65/145/3 64/146/3 68/147/3 67/148/3
f 70/149/15 71/150/15 72/151/15 73/152/15
f 71/153/5 70/154/5 77/155/5 76/156/5
f 73/157/16 72/158/16 75/159/16 74/160/16
f 78/161/15 79/162/15 80/163/15 81/164/15
f 82/165/4 83/166/4 84/167/4 85/168/4
f 79/169/5 78/170/5 85/171/5 84/172/5
f 78/173/6 81/174/6 82/175/6 85/176/6
f 86/177/15 87/178/15 88/179/15 89/180/15
f 90/181/4 91/182/4 92/183/4 93/184/4
f 87/185/5 86/186/5 93/187/5 92/188/5
f 88/189/3 87/190/3 92/191/3 91/192/3
f 94/193/15 95/194/15 96/195/15 97/196/15
f 98/197/4 99/198/4 100/199/4 101/200/4
f 95/201/5 94/202/5 101/203/5 100/204/5
f 94/205/6 97/206/6 98/207/6 101/208/6
f 102/209/15 103/210/15 104/211/15 105/212/15
f 106/213/4 107/214/4 108/215/4 109/216/4
f 103/217/12 102/218/12 109/219/12 108/220/12
f 102/221/6 105/222/6 106/223/6 109/224/6
f 110/225/15 111/226/15 112/227/15 113/228/15
f 114/229/4 115/230/4 116/231/4 117/232/4
f 111/233/12 110/234/12 117/235/12 116/236/12
f 113/237/13 112/238/13 115/239/13 114/240/13
f 112/241/3 111/242/3 116/243/3 115/244/3
f 110/245/6 113/246/6 114/247/6 117/248/6
f 118/249/15 119/250/15 120/251/15 121/252/15
f 122/253/4 123/254/4 124/255/4 125/256/4
f 119/257/17 118/258/17 125/259/17 124/260/17
f 121/261/18 120/262/18 123/263/18 122/264/18
f 120/265/3 119/266/3 124/267/3 123/268/3
f 126/269/7 127/270/7 128/271/7 129/272/7
f 130/273/8 131/274/8 132/275/8 133/276/8
f 127/277/19 126/278/19 133/279/19 132/280/19
f 129/281/20 128/282/20 131/283/20 130/284/20
f 126/285/6 129/286/6 130/287/6 133/288/6
f 134/289/7 135/290/7 136/291/7 137/292/7
f 138/293/8 139/294/8 140/295/8 141/296/8
f 135/297/9 134/298/9 141/299/9 140/300/9
f 137/301/13 136/302/13 139/303/13 138/304/13
f 136/305/3 135/306/3 140/307/3 139/308/3
f 134/309/6 137/310/6 138/311/6 141/312/6
f 142/313/7 143/314/7 144/315/7 145/316/7
f 146/317/8 147/318/8 148/319/8 149/320/8
f 143/321/12 142/322/12 149/323/12 148/324/12
f 145/325/20 144/326/20 147/327/20 146/328/20
f 144/329/3 143/330/3 148/331/3 147/332/3
f 142/333/6 145/334/6 146/335/6 149/336/6
f 150/337/21 151/338/21 152/339/21 153/340/21
f 154/341/22 155/342/22 156/343/22 157/344/22
f 151/345/12 150/346/12 157/347/12 156/348/12
f 153/349/13 152/350/13 155/351/13 154/352/13
f 152/353/3 151/354/3 156/355/3 155/356/3
f 150/357/6 153/358/6 154/359/6 157/360/6
f 158/361/21 159/362/21 160/363/21 161/364/21
f 162/365/22 163/366/22 164/367/22 165/368/22
f 159/369/12 158/370/12 165/371/12 164/372/12
f 158/373/6 161/374/6 162/375/6 165/376/6
f 166/377/21 167/378/21 168/379/21 169/380/21
f 170/381/22 171/382/22 172/383/22 173/384/22
f 167/385/12 166/386/12 173/387/12 172/388/12
f 169/389/13 168/390/13 171/391/13 170/392/13
f 168/393/3 167/394/3 172/395/3 171/396/3
f 166/397/6 169/398/6 170/399/6 173/400/6
f 174/401/21 175/402/21 176/403/21 177/404/21
f 178/405/22 179/406/22 180/407/22 181/408/22
f 175/409/12 174/410/12 181/411/12 180/412/12
f 177/413/13 176/414/13 179/415/13 178/416/13
f 174/417/6 177/418/6 178/419/6 181/420/6
f 182/421/21 183/422/21 184/423/21 185/424/21
f 186/425/22 187/426/22 188/427/22 189/428/22
f 185/429/13 184/430/13 187/431/13 186/432/13
f 182/433/6 185/434/6 186/435/6 189/436/6
f 190/437/21 191/438/21 192/439/21 193/440/21
f 194/441/22 195/442/22 196/443/22 197/444/22
f 191/445/12 190/446/12 197/447/12 196/448/12
f 193/449/13 192/450/13 195/451/13 194/452/13
f 192/453/3 191/454/3 196/455/3 195/456/3
f 190/457/6 193/458/6 194/459/6 197/460/6
f 198/461/21 199/462/21 200/463/21 201/464/21
f 202/465/22 203/466/22 204/467/22 205/468/22
f 199/469/12 198/470/12 205/471/12 204/472/12
f 201/473/13 200/474/13 203/475/13 202/476/13
f 198/477/6 201/478/6 202/479/6 205/480/6
f 206/481/21 207/482/21 208/483/21 209/484/21
f 210/485/22 211/486/22 212/487/22 213/488/22
f 207/489/12 206/490/12 213/491/12 212/492/12
f 209/493/13 208/494/13 211/495/13 210/496/13
f 208/497/3 207/498/3 212/499/3 211/500/3
f 206/501/6 209/502/6 210/503/6 213/504/6
f 214/505/21 215/506/21 216/507/21 217/508/21
f 218/509/22 219/510/22 220/511/22 221/512/22
f 215/513/12 214/514/12 221/515/12 220/516/12
f 217/517/13 216/518/13 219/519/13 218/520/13
f 214/521/6 217/522/6 218/523/6 221/524/6
