# Blender v2.79 (sub 0) OBJ File: ''
# www.blender.org
mtllib gun20mm.mtl
o bodyModel
v -0.031250 0.031250 1.000000
v 0.031250 0.031250 1.000000
v 0.031250 0.031250 0.250000
v -0.031250 0.031250 0.250000
v -0.031250 -0.031250 0.250000
v 0.031250 -0.031250 0.250000
v 0.031250 -0.031250 1.000000
v -0.031250 -0.031250 1.000000
v -0.062500 0.093750 0.250000
v 0.062500 0.093750 0.250000
v 0.062500 0.093750 -0.250000
v -0.062500 0.093750 -0.250000
v -0.062500 -0.093750 -0.250000
v 0.062500 -0.093750 -0.250000
v 0.062500 -0.093750 0.250000
v -0.062500 -0.093750 0.250000
vt 0.406250 0.593750
vt 0.437500 0.593750
vt 0.437500 0.968750
vt 0.406250 0.968750
vt 0.437500 0.593750
vt 0.468750 0.593750
vt 0.468750 0.968750
vt 0.437500 0.968750
vt 0.406250 0.562500
vt 0.437500 0.562500
vt 0.843750 0.593750
vt 0.812500 0.593750
vt 0.812500 0.562500
vt 0.843750 0.562500
vt 0.031250 0.593750
vt 0.031250 0.562500
vt 0.281250 0.218750
vt 0.343750 0.218750
vt 0.343750 0.468750
vt 0.281250 0.468750
vt 0.343750 0.218750
vt 0.406250 0.218750
vt 0.406250 0.468750
vt 0.343750 0.468750
vt 0.281250 0.125000
vt 0.343750 0.125000
vt 0.656250 0.218750
vt 0.593750 0.218750
vt 0.593750 0.125000
vt 0.656250 0.125000
vt 0.031250 0.218750
vt 0.031250 0.125000
vn 0.0000 1.0000 0.0000
vn 0.0000 -1.0000 -0.0000
vn 0.0000 0.0000 1.0000
vn 0.0000 0.0000 -1.0000
vn 1.0000 0.0000 0.0000
vn -1.0000 0.0000 0.0000
usemtl ModelMaterial
s off
f 1/1/1 2/2/1 3/3/1 4/4/1
f 5/5/2 6/6/2 7/7/2 8/8/2
f 2/2/3 1/1/3 8/9/3 7/10/3
f 4/11/4 3/12/4 6/13/4 5/14/4
f 3/12/5 2/2/5 7/10/5 6/13/5
f 1/1/6 4/15/6 5/16/6 8/9/6
f 9/17/1 10/18/1 11/19/1 12/20/1
f 13/21/2 14/22/2 15/23/2 16/24/2
f 10/18/3 9/17/3 16/25/3 15/26/3
f 12/27/4 11/28/4 14/29/4 13/30/4
f 11/28/5 10/18/5 15/26/5 14/29/5
f 9/17/6 12/31/6 13/32/6 16/25/6
o &flash
v 0.000000 0.062500 1.250000
v 0.000000 0.062500 1.250000
v 0.000000 0.062500 1.000000
v 0.000000 0.062500 1.000000
v 0.000000 -0.062500 1.000000
v 0.000000 -0.062500 1.000000
v 0.000000 -0.062500 1.250000
v 0.000000 -0.062500 1.250000
v -0.062500 -0.000000 1.250000
v -0.062500 -0.000000 1.250000
v -0.062500 -0.000000 1.000000
v -0.062500 -0.000000 1.000000
v 0.062500 -0.000000 1.000000
v 0.062500 -0.000000 1.000000
v 0.062500 -0.000000 1.250000
v 0.062500 -0.000000 1.250000
v -0.044194 0.044194 1.250000
v -0.044194 0.044194 1.250000
v -0.044194 0.044194 1.000000
v -0.044194 0.044194 1.000000
v 0.044194 -0.044194 1.000000
v 0.044194 -0.044194 1.000000
v 0.044194 -0.044194 1.250000
v 0.044194 -0.044194 1.250000
v -0.047878 -0.040174 1.250000
v -0.047878 -0.040174 1.250000
v -0.047878 -0.040174 1.000000
v -0.047878 -0.040174 1.000000
v 0.047878 0.040174 1.000000
v 0.047878 0.040174 1.000000
v 0.047878 0.040174 1.250000
v 0.047878 0.040174 1.250000
v -0.062500 0.062500 1.000000
v 0.062500 0.062500 1.000000
v 0.062500 0.062500 1.000000
v -0.062500 0.062500 1.000000
v -0.062500 -0.062500 1.000000
v 0.062500 -0.062500 1.000000
v 0.062500 -0.062500 1.000000
v -0.062500 -0.062500 1.000000
vt 0.156250 0.750000
vt 0.156250 0.750000
vt 0.156250 0.875000
vt 0.156250 0.875000
vt 0.156250 0.750000
vt 0.156250 0.750000
vt 0.156250 0.875000
vt 0.156250 0.875000
vt 0.156250 0.687500
vt 0.156250 0.687500
vt 0.281250 0.750000
vt 0.281250 0.750000
vt 0.281250 0.687500
vt 0.281250 0.687500
vt 0.031250 0.750000
vt 0.031250 0.687500
vt 0.156250 0.750000
vt 0.156250 0.750000
vt 0.156250 0.875000
vt 0.156250 0.875000
vt 0.156250 0.750000
vt 0.156250 0.750000
vt 0.156250 0.875000
vt 0.156250 0.875000
vt 0.156250 0.687500
vt 0.156250 0.687500
vt 0.281250 0.750000
vt 0.281250 0.750000
vt 0.281250 0.687500
vt 0.281250 0.687500
vt 0.031250 0.750000
vt 0.031250 0.687500
vt 0.156250 0.750000
vt 0.156250 0.750000
vt 0.156250 0.875000
vt 0.156250 0.875000
vt 0.156250 0.750000
vt 0.156250 0.750000
vt 0.156250 0.875000
vt 0.156250 0.875000
vt 0.156250 0.687500
vt 0.156250 0.687500
vt 0.281250 0.750000
vt 0.281250 0.750000
vt 0.281250 0.687500
vt 0.281250 0.687500
vt 0.031250 0.750000
vt 0.031250 0.687500
vt 0.156250 0.750000
vt 0.156250 0.750000
vt 0.156250 0.875000
vt 0.156250 0.875000
vt 0.156250 0.750000
vt 0.156250 0.750000
vt 0.156250 0.875000
vt 0.156250 0.875000
vt 0.156250 0.687500
vt 0.156250 0.687500
vt 0.281250 0.750000
vt 0.281250 0.750000
vt 0.281250 0.687500
vt 0.281250 0.687500
vt 0.031250 0.750000
vt 0.031250 0.687500
vt 0.031250 0.968750
vt 0.093750 0.968750
vt 0.093750 0.968750
vt 0.031250 0.968750
vt 0.093750 0.968750
vt 0.156250 0.968750
vt 0.156250 0.968750
vt 0.093750 0.968750
vt 0.031250 0.906250
vt 0.093750 0.906250
vt 0.156250 0.968750
vt 0.093750 0.906250
vt 0.156250 0.906250
vt 0.031250 0.906250
vn 0.0000 0.0000 1.0000
vn 1.0000 0.0000 0.0000
vn -1.0000 0.0000 0.0000
vn 0.0000 1.0000 0.0000
vn 0.0000 -1.0000 -0.0000
vn 0.7071 0.7071 0.0000
vn -0.7071 -0.7071 -0.0000
vn -0.6428 0.7660 0.0000
vn 0.6428 -0.7660 -0.0000
vn 0.0000 0.0000 -1.0000
usemtl ModelMaterial
s off
f 17/33/7 18/34/7 19/35/7 20/36/7
f 21/37/7 22/38/7 23/39/7 24/40/7
f 18/34/7 17/33/7 24/41/7 23/42/7
f 20/43/7 19/44/7 22/45/7 21/46/7
f 19/44/8 18/34/8 23/42/8 22/45/8
f 17/33/9 20/47/9 21/48/9 24/41/9
f 25/49/7 26/50/7 27/51/7 28/52/7
f 29/53/7 30/54/7 31/55/7 32/56/7
f 26/50/7 25/49/7 32/57/7 31/58/7
f 28/59/7 27/60/7 30/61/7 29/62/7
f 27/60/10 26/50/10 31/58/10 30/61/10
f 25/49/11 28/63/11 29/64/11 32/57/11
f 33/65/7 34/66/7 35/67/7 36/68/7
f 37/69/7 38/70/7 39/71/7 40/72/7
f 34/66/7 33/65/7 40/73/7 39/74/7
f 36/75/7 35/76/7 38/77/7 37/78/7
f 35/76/12 34/66/12 39/74/12 38/77/12
f 33/65/13 36/79/13 37/80/13 40/73/13
f 41/81/7 42/82/7 43/83/7 44/84/7
f 45/85/7 46/86/7 47/87/7 48/88/7
f 42/82/7 41/81/7 48/89/7 47/90/7
f 44/91/7 43/92/7 46/93/7 45/94/7
f 43/92/14 42/82/14 47/90/14 46/93/14
f 41/81/15 44/95/15 45/96/15 48/89/15
f 49/97/7 50/98/7 51/99/7 52/100/7
f 53/101/7 54/102/7 55/103/7 56/104/7
f 50/98/7 49/97/7 56/105/7 55/106/7
f 52/107/16 51/99/16 54/108/16 53/109/16
f 51/99/7 50/98/7 55/106/7 54/108/7
f 49/97/7 52/100/7 53/110/7 56/105/7
