# Blender v2.79 (sub 0) OBJ File: ''
# www.blender.org
mtllib vehiclegatling.mtl
o $barrels
v 0.140625 -0.093750 0.375000
v 0.140625 -0.218750 0.375000
v 0.140625 -0.218750 0.312500
v 0.140625 -0.093750 0.312500
v -0.000000 -0.000000 0.312500
v 0.000000 -0.312500 0.312500
v 0.000000 -0.312500 0.375000
v -0.000000 -0.000000 0.375000
v -0.140625 -0.218750 0.375000
v -0.140625 -0.093750 0.375000
v -0.140625 -0.093750 0.312500
v -0.140625 -0.218750 0.312500
v -0.000000 -0.312500 0.312500
v 0.000000 -0.000000 0.312500
v 0.000000 -0.000000 0.375000
v -0.000000 -0.312500 0.375000
v -0.018750 -0.025000 1.312500
v 0.018750 -0.025000 1.312500
v 0.018750 -0.025000 0.375000
v -0.018750 -0.025000 0.375000
v -0.018750 -0.062500 0.375000
v 0.018750 -0.062500 0.375000
v 0.018750 -0.062500 1.312500
v -0.018750 -0.062500 1.312500
v -0.018750 -0.250000 1.312500
v 0.018750 -0.250000 1.312500
v 0.018750 -0.250000 0.375000
v -0.018750 -0.250000 0.375000
v -0.018750 -0.287500 0.375000
v 0.018750 -0.287500 0.375000
v 0.018750 -0.287500 1.312500
v -0.018750 -0.287500 1.312500
v -0.090565 -0.186887 1.312500
v -0.071815 -0.219363 1.312500
v -0.071815 -0.219363 0.375000
v -0.090565 -0.186887 0.375000
v -0.123041 -0.205637 0.375000
v -0.104291 -0.238113 0.375000
v -0.104291 -0.238113 1.312500
v -0.123041 -0.205637 1.312500
v 0.104291 -0.074387 1.312500
v 0.123041 -0.106863 1.312500
v 0.123041 -0.106863 0.375000
v 0.104291 -0.074387 0.375000
v 0.071815 -0.093137 0.375000
v 0.090565 -0.125613 0.375000
v 0.090565 -0.125613 1.312500
v 0.071815 -0.093137 1.312500
v 0.071815 -0.219363 1.312500
v 0.090565 -0.186887 1.312500
v 0.090565 -0.186887 0.375000
v 0.071815 -0.219363 0.375000
v 0.104291 -0.238113 0.375000
v 0.123041 -0.205637 0.375000
v 0.123041 -0.205637 1.312500
v 0.104291 -0.238113 1.312500
v -0.123041 -0.106863 1.312500
v -0.104291 -0.074387 1.312500
v -0.104291 -0.074387 0.375000
v -0.123041 -0.106863 0.375000
v -0.090565 -0.125613 0.375000
v -0.071815 -0.093137 0.375000
v -0.071815 -0.093137 1.312500
v -0.090565 -0.125613 1.312500
v 0.140625 -0.093750 1.250000
v 0.140625 -0.218750 1.250000
v 0.140625 -0.218750 1.187500
v 0.140625 -0.093750 1.187500
v -0.000000 -0.000000 1.187500
v 0.000000 -0.312500 1.187500
v 0.000000 -0.312500 1.250000
v -0.000000 -0.000000 1.250000
v -0.140625 -0.218750 1.250000
v -0.140625 -0.093750 1.250000
v -0.140625 -0.093750 1.187500
v -0.140625 -0.218750 1.187500
v -0.000000 -0.312500 1.187500
v 0.000000 -0.000000 1.187500
v 0.000000 -0.000000 1.250000
v -0.000000 -0.312500 1.250000
v 0.140625 -0.093750 0.843750
v 0.140625 -0.218750 0.843750
v 0.140625 -0.218750 0.781250
v 0.140625 -0.093750 0.781250
v -0.000000 -0.000000 0.781250
v 0.000000 -0.312500 0.781250
v 0.000000 -0.312500 0.843750
v -0.000000 -0.000000 0.843750
v -0.140625 -0.218750 0.843750
v -0.140625 -0.093750 0.843750
v -0.140625 -0.093750 0.781250
v -0.140625 -0.218750 0.781250
v -0.000000 -0.312500 0.781250
v 0.000000 -0.000000 0.781250
v 0.000000 -0.000000 0.843750
v -0.000000 -0.312500 0.843750
vt 0.625000 0.625000
vt 0.781250 0.625000
vt 0.781250 0.656250
vt 0.625000 0.656250
vt 0.781250 0.625000
vt 0.937500 0.625000
vt 0.937500 0.656250
vt 0.781250 0.656250
vt 0.625000 0.562500
vt 0.781250 0.562500
vt 0.968750 0.625000
vt 0.812500 0.625000
vt 0.812500 0.562500
vt 0.968750 0.562500
vt 0.593750 0.625000
vt 0.593750 0.562500
vt 0.062500 0.625000
vt 0.218750 0.625000
vt 0.218750 0.656250
vt 0.062500 0.656250
vt 0.218750 0.625000
vt 0.375000 0.625000
vt 0.375000 0.656250
vt 0.218750 0.656250
vt 0.062500 0.562500
vt 0.218750 0.562500
vt 0.406250 0.625000
vt 0.250000 0.625000
vt 0.250000 0.562500
vt 0.406250 0.562500
vt 0.031250 0.625000
vt 0.031250 0.562500
vt 0.468750 0.531250
vt 0.500000 0.531250
vt 0.500000 1.000000
vt 0.468750 1.000000
vt 0.500000 0.531250
vt 0.531250 0.531250
vt 0.531250 1.000000
vt 0.500000 1.000000
vt 0.468750 0.500000
vt 0.500000 0.500000
vt 1.000000 0.531250
vt 0.968750 0.531250
vt 0.968750 0.500000
vt 1.000000 0.500000
vt -0.000000 0.531250
vt -0.000000 0.500000
vt 0.468750 0.531250
vt 0.500000 0.531250
vt 0.500000 1.000000
vt 0.468750 1.000000
vt 0.500000 0.531250
vt 0.531250 0.531250
vt 0.531250 1.000000
vt 0.500000 1.000000
vt 0.468750 0.500000
vt 0.500000 0.500000
vt 1.000000 0.531250
vt 0.968750 0.531250
vt 0.968750 0.500000
vt 1.000000 0.500000
vt -0.000000 0.531250
vt -0.000000 0.500000
vt 0.468750 0.531250
vt 0.500000 0.531250
vt 0.500000 1.000000
vt 0.468750 1.000000
vt 0.500000 0.531250
vt 0.531250 0.531250
vt 0.531250 1.000000
vt 0.500000 1.000000
vt 0.468750 0.500000
vt 0.500000 0.500000
vt 1.000000 0.531250
vt 0.968750 0.531250
vt 0.968750 0.500000
vt 1.000000 0.500000
vt -0.000000 0.531250
vt -0.000000 0.500000
vt 0.468750 0.531250
vt 0.500000 0.531250
vt 0.500000 1.000000
vt 0.468750 1.000000
vt 0.500000 0.531250
vt 0.531250 0.531250
vt 0.531250 1.000000
vt 0.500000 1.000000
vt 0.468750 0.500000
vt 0.500000 0.500000
vt 1.000000 0.531250
vt 0.968750 0.531250
vt 0.968750 0.500000
vt 1.000000 0.500000
vt -0.000000 0.531250
vt -0.000000 0.500000
vt 0.468750 0.531250
vt 0.500000 0.531250
vt 0.500000 1.000000
vt 0.468750 1.000000
vt 0.500000 0.531250
vt 0.531250 0.531250
vt 0.531250 1.000000
vt 0.500000 1.000000
vt 0.468750 0.500000
vt 0.500000 0.500000
vt 1.000000 0.531250
vt 0.968750 0.531250
vt 0.968750 0.500000
vt 1.000000 0.500000
vt -0.000000 0.531250
vt -0.000000 0.500000
vt 0.468750 0.531250
vt 0.500000 0.531250
vt 0.500000 1.000000
vt 0.468750 1.000000
vt 0.500000 0.531250
vt 0.531250 0.531250
vt 0.531250 1.000000
vt 0.500000 1.000000
vt 0.468750 0.500000
vt 0.500000 0.500000
vt 1.000000 0.531250
vt 0.968750 0.531250
vt 0.968750 0.500000
vt 1.000000 0.500000
vt -0.000000 0.531250
vt -0.000000 0.500000
vt 0.625000 0.625000
vt 0.781250 0.625000
vt 0.781250 0.656250
vt 0.625000 0.656250
vt 0.781250 0.625000
vt 0.937500 0.625000
vt 0.937500 0.656250
vt 0.781250 0.656250
vt 0.625000 0.562500
vt 0.781250 0.562500
vt 0.968750 0.625000
vt 0.812500 0.625000
vt 0.812500 0.562500
vt 0.968750 0.562500
vt 0.593750 0.625000
vt 0.593750 0.562500
vt 0.062500 0.625000
vt 0.218750 0.625000
vt 0.218750 0.656250
vt 0.062500 0.656250
vt 0.218750 0.625000
vt 0.375000 0.625000
vt 0.375000 0.656250
vt 0.218750 0.656250
vt 0.062500 0.562500
vt 0.218750 0.562500
vt 0.406250 0.625000
vt 0.250000 0.625000
vt 0.250000 0.562500
vt 0.406250 0.562500
vt 0.031250 0.625000
vt 0.031250 0.562500
vt 0.625000 0.625000
vt 0.781250 0.625000
vt 0.781250 0.656250
vt 0.625000 0.656250
vt 0.781250 0.625000
vt 0.937500 0.625000
vt 0.937500 0.656250
vt 0.781250 0.656250
vt 0.625000 0.562500
vt 0.781250 0.562500
vt 0.968750 0.625000
vt 0.812500 0.625000
vt 0.812500 0.562500
vt 0.968750 0.562500
vt 0.593750 0.625000
vt 0.593750 0.562500
vt 0.062500 0.625000
vt 0.218750 0.625000
vt 0.218750 0.656250
vt 0.062500 0.656250
vt 0.218750 0.625000
vt 0.375000 0.625000
vt 0.375000 0.656250
vt 0.218750 0.656250
vt 0.062500 0.562500
vt 0.218750 0.562500
vt 0.406250 0.625000
vt 0.250000 0.625000
vt 0.250000 0.562500
vt 0.406250 0.562500
vt 0.031250 0.625000
vt 0.031250 0.562500
vn 1.0000 0.0000 0.0000
vn -1.0000 -0.0000 0.0000
vn 0.0000 -0.0000 1.0000
vn 0.0000 0.0000 -1.0000
vn 0.5547 -0.8321 0.0000
vn 0.5547 0.8321 0.0000
vn -0.5547 0.8321 0.0000
vn -0.5547 -0.8321 0.0000
vn 0.0000 1.0000 0.0000
vn 0.0000 -1.0000 -0.0000
vn 0.8660 0.5000 0.0000
vn -0.8660 -0.5000 -0.0000
vn 0.5000 -0.8660 -0.0000
vn -0.5000 0.8660 0.0000
vn -0.8660 0.5000 0.0000
vn 0.8660 -0.5000 -0.0000
vn 0.5000 0.8660 0.0000
vn -0.5000 -0.8660 -0.0000
usemtl ModelMaterial
s off
f 1/1/1 2/2/1 3/3/1 4/4/1
f 5/5/2 6/6/2 7/7/2 8/8/2
f 2/2/3 1/1/3 8/9/3 7/10/3
f 4/11/4 3/12/4 6/13/4 5/14/4
f 3/12/5 2/2/5 7/10/5 6/13/5
f 1/1/6 4/15/6 5/16/6 8/9/6
f 9/17/2 10/18/2 11/19/2 12/20/2
f 13/21/1 14/22/1 15/23/1 16/24/1
f 10/18/3 9/17/3 16/25/3 15/26/3
f 12/27/4 11/28/4 14/29/4 13/30/4
f 11/28/7 10/18/7 15/26/7 14/29/7
f 9/17/8 12/31/8 13/32/8 16/25/8
f 17/33/9 18/34/9 19/35/9 20/36/9
f 21/37/10 22/38/10 23/39/10 24/40/10
f 18/34/3 17/33/3 24/41/3 23/42/3
f 20/43/4 19/44/4 22/45/4 21/46/4
f 19/44/1 18/34/1 23/42/1 22/45/1
f 17/33/2 20/47/2 21/48/2 24/41/2
f 25/49/9 26/50/9 27/51/9 28/52/9
f 29/53/10 30/54/10 31/55/10 32/56/10
f 26/50/3 25/49/3 32/57/3 31/58/3
f 28/59/4 27/60/4 30/61/4 29/62/4
f 27/60/1 26/50/1 31/58/1 30/61/1
f 25/49/2 28/63/2 29/64/2 32/57/2
f 33/65/11 34/66/11 35/67/11 36/68/11
f 37/69/12 38/70/12 39/71/12 40/72/12
f 34/66/3 33/65/3 40/73/3 39/74/3
f 36/75/4 35/76/4 38/77/4 37/78/4
f 35/76/13 34/66/13 39/74/13 38/77/13
f 33/65/14 36/79/14 37/80/14 40/73/14
f 41/81/11 42/82/11 43/83/11 44/84/11
f 45/85/12 46/86/12 47/87/12 48/88/12
f 42/82/3 41/81/3 48/89/3 47/90/3
f 44/91/4 43/92/4 46/93/4 45/94/4
f 43/92/13 42/82/13 47/90/13 46/93/13
f 41/81/14 44/95/14 45/96/14 48/89/14
f 49/97/15 50/98/15 51/99/15 52/100/15
f 53/101/16 54/102/16 55/103/16 56/104/16
f 50/98/3 49/97/3 56/105/3 55/106/3
f 52/107/4 51/108/4 54/109/4 53/110/4
f 51/108/17 50/98/17 55/106/17 54/109/17
f 49/97/18 52/111/18 53/112/18 56/105/18
f 57/113/15 58/114/15 59/115/15 60/116/15
f 61/117/16 62/118/16 63/119/16 64/120/16
f 58/114/3 57/113/3 64/121/3 63/122/3
f 60/123/4 59/124/4 62/125/4 61/126/4
f 59/124/17 58/114/17 63/122/17 62/125/17
f 57/113/18 60/127/18 61/128/18 64/121/18
f 65/129/1 66/130/1 67/131/1 68/132/1
f 69/133/2 70/134/2 71/135/2 72/136/2
f 66/130/3 65/129/3 72/137/3 71/138/3
f 68/139/4 67/140/4 70/141/4 69/142/4
f 67/140/5 66/130/5 71/138/5 70/141/5
f 65/129/6 68/143/6 69/144/6 72/137/6
f 73/145/2 74/146/2 75/147/2 76/148/2
f 77/149/1 78/150/1 79/151/1 80/152/1
f 74/146/3 73/145/3 80/153/3 79/154/3
f 76/155/4 75/156/4 78/157/4 77/158/4
f 75/156/7 74/146/7 79/154/7 78/157/7
f 73/145/8 76/159/8 77/160/8 80/153/8
f 81/161/1 82/162/1 83/163/1 84/164/1
f 85/165/2 86/166/2 87/167/2 88/168/2
f 82/162/3 81/161/3 88/169/3 87/170/3
f 84/171/4 83/172/4 86/173/4 85/174/4
f 83/172/5 82/162/5 87/170/5 86/173/5
f 81/161/6 84/175/6 85/176/6 88/169/6
f 89/177/2 90/178/2 91/179/2 92/180/2
f 93/181/1 94/182/1 95/183/1 96/184/1
f 90/178/3 89/177/3 96/185/3 95/186/3
f 92/187/4 91/188/4 94/189/4 93/190/4
f 91/188/7 90/178/7 95/186/7 94/189/7
f 89/177/8 92/191/8 93/192/8 96/185/8
o &flash
v -0.031250 -0.268750 1.500000
v 0.031250 -0.268750 1.500000
v 0.031250 -0.268750 1.312500
v -0.031250 -0.268750 1.312500
v -0.031250 -0.268750 1.312500
v 0.031250 -0.268750 1.312500
v 0.031250 -0.268750 1.500000
v -0.031250 -0.268750 1.500000
v -0.022097 -0.246653 1.500000
v 0.022097 -0.290847 1.500000
v 0.022097 -0.290847 1.312500
v -0.022097 -0.246653 1.312500
v -0.022097 -0.246653 1.312500
v 0.022097 -0.290847 1.312500
v 0.022097 -0.290847 1.500000
v -0.022097 -0.246653 1.500000
v -0.000000 -0.300000 1.500000
v 0.000000 -0.237500 1.500000
v 0.000000 -0.237500 1.312500
v -0.000000 -0.300000 1.312500
v -0.000000 -0.300000 1.312500
v 0.000000 -0.237500 1.312500
v 0.000000 -0.237500 1.500000
v -0.000000 -0.300000 1.500000
v -0.022097 -0.290847 1.500000
v 0.022097 -0.246653 1.500000
v 0.022097 -0.246653 1.312500
v -0.022097 -0.290847 1.312500
v -0.022097 -0.290847 1.312500
v 0.022097 -0.246653 1.312500
v 0.022097 -0.246653 1.500000
v -0.022097 -0.290847 1.500000
v -0.031250 -0.237500 1.312500
v 0.031250 -0.237500 1.312500
v 0.031250 -0.237500 1.312500
v -0.031250 -0.237500 1.312500
v -0.031250 -0.300000 1.312500
v 0.031250 -0.300000 1.312500
v 0.031250 -0.300000 1.312500
v -0.031250 -0.300000 1.312500
vt 0.750000 0.843750
vt 0.781250 0.843750
vt 0.781250 0.937500
vt 0.750000 0.937500
vt 0.781250 0.843750
vt 0.812500 0.843750
vt 0.812500 0.937500
vt 0.781250 0.937500
vt 0.750000 0.843750
vt 0.781250 0.843750
vt 0.906250 0.843750
vt 0.875000 0.843750
vt 0.875000 0.843750
vt 0.906250 0.843750
vt 0.656250 0.843750
vt 0.656250 0.843750
vt 0.750000 0.843750
vt 0.781250 0.843750
vt 0.781250 0.937500
vt 0.750000 0.937500
vt 0.781250 0.843750
vt 0.812500 0.843750
vt 0.812500 0.937500
vt 0.781250 0.937500
vt 0.750000 0.843750
vt 0.781250 0.843750
vt 0.906250 0.843750
vt 0.875000 0.843750
vt 0.875000 0.843750
vt 0.906250 0.843750
vt 0.656250 0.843750
vt 0.656250 0.843750
vt 0.750000 0.843750
vt 0.781250 0.843750
vt 0.781250 0.937500
vt 0.750000 0.937500
vt 0.781250 0.843750
vt 0.812500 0.843750
vt 0.812500 0.937500
vt 0.781250 0.937500
vt 0.750000 0.843750
vt 0.781250 0.843750
vt 0.906250 0.843750
vt 0.875000 0.843750
vt 0.875000 0.843750
vt 0.906250 0.843750
vt 0.656250 0.843750
vt 0.656250 0.843750
vt 0.750000 0.843750
vt 0.781250 0.843750
vt 0.781250 0.937500
vt 0.750000 0.937500
vt 0.781250 0.843750
vt 0.812500 0.843750
vt 0.812500 0.937500
vt 0.781250 0.937500
vt 0.750000 0.843750
vt 0.781250 0.843750
vt 0.906250 0.843750
vt 0.875000 0.843750
vt 0.875000 0.843750
vt 0.906250 0.843750
vt 0.656250 0.843750
vt 0.656250 0.843750
vt 0.750000 0.812500
vt 0.781250 0.812500
vt 0.781250 0.812500
vt 0.750000 0.812500
vt 0.781250 0.812500
vt 0.812500 0.812500
vt 0.812500 0.812500
vt 0.781250 0.812500
vt 0.750000 0.781250
vt 0.781250 0.781250
vt 0.812500 0.812500
vt 0.781250 0.781250
vt 0.812500 0.781250
vt 0.750000 0.781250
vn 0.0000 1.0000 0.0000
vn 0.0000 -1.0000 -0.0000
vn 0.0000 0.0000 1.0000
vn 0.7071 0.7071 0.0000
vn -0.7071 -0.7071 -0.0000
vn -1.0000 0.0000 0.0000
vn 1.0000 -0.0000 -0.0000
vn -0.7071 0.7071 0.0000
vn 0.7071 -0.7071 -0.0000
vn 0.0000 0.0000 -1.0000
usemtl ModelMaterial
s off
f 97/193/19 98/194/19 99/195/19 100/196/19
f 101/197/20 102/198/20 103/199/20 104/200/20
f 98/194/21 97/193/21 104/201/21 103/202/21
f 100/203/21 99/204/21 102/205/21 101/206/21
f 99/204/21 98/194/21 103/202/21 102/205/21
f 97/193/21 100/207/21 101/208/21 104/201/21
f 105/209/22 106/210/22 107/211/22 108/212/22
f 109/213/23 110/214/23 111/215/23 112/216/23
f 106/210/21 105/209/21 112/217/21 111/218/21
f 108/219/21 107/220/21 110/221/21 109/222/21
f 107/220/21 106/210/21 111/218/21 110/221/21
f 105/209/21 108/223/21 109/224/21 112/217/21
f 113/225/24 114/226/24 115/227/24 116/228/24
f 117/229/25 118/230/25 119/231/25 120/232/25
f 114/226/21 113/225/21 120/233/21 119/234/21
f 116/235/21 115/236/21 118/237/21 117/238/21
f 115/236/21 114/226/21 119/234/21 118/237/21
f 113/225/21 116/239/21 117/240/21 120/233/21
f 121/241/26 122/242/26 123/243/26 124/244/26
f 125/245/27 126/246/27 127/247/27 128/248/27
f 122/242/21 121/241/21 128/249/21 127/250/21
f 124/251/21 123/252/21 126/253/21 125/254/21
f 123/252/21 122/242/21 127/250/21 126/253/21
f 121/241/21 124/255/21 125/256/21 128/249/21
f 129/257/21 130/258/21 131/259/21 132/260/21
f 133/261/21 134/262/21 135/263/21 136/264/21
f 130/258/21 129/257/21 136/265/21 135/266/21
f 132/267/28 131/259/28 134/268/28 133/269/28
f 131/259/21 130/258/21 135/266/21 134/268/21
f 129/257/21 132/260/21 133/270/21 136/265/21
o body
v -0.156250 -0.000000 0.250000
v 0.156250 -0.000000 0.250000
v 0.156250 0.000000 -0.250000
v -0.156250 0.000000 -0.250000
v -0.156250 -0.312500 -0.250000
v 0.156250 -0.312500 -0.250000
v 0.156250 -0.312500 0.250000
v -0.156250 -0.312500 0.250000
v -0.125000 -0.031250 0.312500
v 0.125000 -0.031250 0.312500
v 0.125000 -0.031250 0.250000
v -0.125000 -0.031250 0.250000
v -0.125000 -0.281250 0.250000
v 0.125000 -0.281250 0.250000
v 0.125000 -0.281250 0.312500
v -0.125000 -0.281250 0.312500
vt 0.250000 0.218750
vt 0.406250 0.218750
vt 0.406250 0.468750
vt 0.250000 0.468750
vt 0.406250 0.218750
vt 0.562500 0.218750
vt 0.562500 0.468750
vt 0.406250 0.468750
vt 0.250000 0.062500
vt 0.406250 0.062500
vt 0.812500 0.218750
vt 0.656250 0.218750
vt 0.656250 0.062500
vt 0.812500 0.062500
vt -0.000000 0.218750
vt -0.000000 0.062500
vt 0.031250 0.968750
vt 0.156250 0.968750
vt 0.156250 1.000000
vt 0.031250 1.000000
vt 0.156250 0.968750
vt 0.281250 0.968750
vt 0.281250 1.000000
vt 0.156250 1.000000
vt 0.031250 0.843750
vt 0.156250 0.843750
vt 0.312500 0.968750
vt 0.187500 0.968750
vt 0.187500 0.843750
vt 0.312500 0.843750
vt -0.000000 0.968750
vt -0.000000 0.843750
vn 0.0000 1.0000 0.0000
vn 0.0000 -1.0000 -0.0000
vn 0.0000 -0.0000 1.0000
vn 0.0000 0.0000 -1.0000
vn 1.0000 0.0000 0.0000
vn -1.0000 0.0000 0.0000
usemtl ModelMaterial
s off
f 137/271/29 138/272/29 139/273/29 140/274/29
f 141/275/30 142/276/30 143/277/30 144/278/30
f 138/272/31 137/271/31 144/279/31 143/280/31
f 140/281/32 139/282/32 142/283/32 141/284/32
f 139/282/33 138/272/33 143/280/33 142/283/33
f 137/271/34 140/285/34 141/286/34 144/279/34
f 145/287/29 146/288/29 147/289/29 148/290/29
f 149/291/30 150/292/30 151/293/30 152/294/30
f 146/288/31 145/287/31 152/295/31 151/296/31
f 148/297/32 147/298/32 150/299/32 149/300/32
f 147/298/33 146/288/33 151/296/33 150/299/33
f 145/287/34 148/301/34 149/302/34 152/295/34
