# Made in Blockbench 4.10.3
mtllib pylon_agm_light.mtl

o hardpoint
v 0.03125 0 0.375
v 0.03125 0 -0.4375
v 0.03125 -0.125 0.375
v 0.03125 -0.125 -0.4375
v -0.03125 0 0.375
v -0.03125 0 -0.4375
v -0.03125 -0.125 0.375
v -0.03125 -0.125 -0.4375
v 0.03125 -0.0625 0.5
v 0.03125 -0.0625 0.375
v 0.03125 -0.125 0.5
v 0.03125 -0.125 0.375
v -0.03125 -0.0625 0.5
v -0.03125 -0.0625 0.375
v -0.03125 -0.125 0.5
v -0.03125 -0.125 0.375
v 0.015625 -0.125 0.28125
v 0.015625 -0.125 -0.3671875
v 0.015625 -0.140625 0.28125
v 0.015625 -0.140625 -0.3671875
v -0.015625 -0.125 0.28125
v -0.015625 -0.125 -0.3671875
v -0.015625 -0.140625 0.28125
v -0.015625 -0.140625 -0.3671875
vt 1 0
vt 1 0.0625
vt 0.59375 0.0625
vt 0.59375 0
vt 0.59375 0
vt 0.59375 0.03125
vt 0.390625 0.03125
vt 0.390625 0
vt 0.59375 0.0625
vt 1 0.0625
vt 1 0.09375
vt 0.59375 0.09375
vt 0.59375 0.09375
vt 1 0.09375
vt 1 0.125
vt 0.59375 0.125
vt 0.6875 0.125
vt 0.6875 0.1875
vt 0.65625 0.1875
vt 0.65625 0.125
vt 0.65625 0.125
vt 0.65625 0.1875
vt 0.625 0.1875
vt 0.625 0.125
vt 0.59375 0.03125
vt 0.59375 0.0625
vt 0.53125 0.0625
vt 0.53125 0.03125
vt 0.59375 0.125
vt 0.625 0.125
vt 0.625 0.1875
vt 0.59375 0.1875
vt 0.59375 0.125
vt 0.59375 0.1875
vt 0.5625 0.1875
vt 0.5625 0.125
vt 0.59375 0.0625
vt 0.59375 0.125
vt 0.5625 0.125
vt 0.5625 0.0625
vt 0.5625 0.15625
vt 0.5625 0.1875
vt 0.53125 0.1875
vt 0.53125 0.15625
vt 0.8125 1
vt 0.78125 1
vt 0.78125 0.6875
vt 0.8125 0.6875
vt 0.84375 1
vt 0.8125 1
vt 0.8125 0.6875
vt 0.84375 0.6875
vt 0.6875 0.125
vt 1 0.125
vt 1 0.15625
vt 0.6875 0.15625
vt 0.5625 0.125
vt 0.5625 0.15625
vt 0.53125 0.15625
vt 0.53125 0.125
vt 0.5625 0.0625
vt 0.5625 0.09375
vt 0.53125 0.09375
vt 0.53125 0.0625
vn 1 0 0
vn -1 0 0
vn 0 1 0
vn 0 -1 0
vn 0 0 1
vn 0 0 -1
vn 1 0 0
vn -1 0 0
vn 0 1 0
vn 0 -1 0
vn 0 0 1
vn 1 0 0
vn -1 0 0
vn 0 -1 0
vn 0 0 1
vn 0 0 -1
usemtl m_78b014c4-3eea-14df-408a-0384d9d3c6c9
f 4/1/1 2/2/1 1/3/1 3/4/1
f 7/5/2 5/6/2 6/7/2 8/8/2
f 1/9/3 2/10/3 6/11/3 5/12/3
f 4/13/4 3/14/4 7/15/4 8/16/4
f 3/17/5 1/18/5 5/19/5 7/20/5
f 8/21/6 6/22/6 2/23/6 4/24/6
f 12/25/7 10/26/7 9/27/7 11/28/7
f 15/29/8 13/30/8 14/31/8 16/32/8
f 9/33/9 10/34/9 14/35/9 13/36/9
f 12/37/10 11/38/10 15/39/10 16/40/10
f 11/41/11 9/42/11 13/43/11 15/44/11
f 20/45/12 18/46/12 17/47/12 19/48/12
f 23/49/13 21/50/13 22/51/13 24/52/13
f 20/53/14 19/54/14 23/55/14 24/56/14
f 19/57/15 17/58/15 21/59/15 23/60/15
f 24/61/16 22/62/16 18/63/16 20/64/16
o missile
v 0.043079 -0.2696415 0.71052
v 0.043079 -0.1834835 0.71052
v 0.043079 -0.1834835 0.722447
v 0.043079 -0.2696415 0.722447
v -0.043079 -0.2696415 0.722447
v -0.043079 -0.1834835 0.722447
v -0.043079 -0.1834835 0.71052
v -0.043079 -0.2696415 0.71052
v 0.02872 -0.25528249999999997 0.722447
v 0.02872 -0.1978425 0.722447
v 0.02872 -0.1978425 0.734375
v 0.02872 -0.25528249999999997 0.734375
v -0.02872 -0.25528249999999997 0.734375
v -0.02872 -0.1978425 0.734375
v -0.02872 -0.1978425 0.722447
v -0.02872 -0.25528249999999997 0.722447
v 0.057439 -0.1547635 -0.673097
v 0.057439 -0.14040350000000001 -0.673097
v 0.057439 -0.14040350000000001 0.6237465
v 0.057439 -0.1547635 0.6237465
v -0.057439 -0.1547635 0.6237465
v -0.057439 -0.14040350000000001 0.6237465
v -0.057439 -0.14040350000000001 -0.673097
v -0.057439 -0.1547635 -0.673097
v 0.057439 -0.3127215 -0.673097
v 0.057439 -0.2983615 -0.673097
v 0.057439 -0.2983615 0.6237465
v 0.057439 -0.3127215 0.6237465
v -0.057439 -0.3127215 0.6237465
v -0.057439 -0.2983615 0.6237465
v -0.057439 -0.2983615 -0.673097
v -0.057439 -0.3127215 -0.673097
v -0.086159 -0.2840015 0.6237465
v -0.086159 -0.1691235 0.6237465
v -0.086159 -0.1691235 -0.673097
v -0.086159 -0.2840015 -0.673097
v -0.071799 -0.1691235 0.6237465
v -0.071799 -0.1691235 -0.673097
v -0.071799 -0.2840015 -0.673097
v -0.071799 -0.2840015 0.6237465
v 0.086159 -0.2840015 -0.673097
v 0.086159 -0.1691235 -0.673097
v 0.086159 -0.1691235 0.6237465
v 0.086159 -0.2840015 0.6237465
v 0.071799 -0.1691235 -0.673097
v 0.071799 -0.1691235 0.6237465
v 0.071799 -0.2840015 0.6237465
v 0.071799 -0.2840015 -0.673097
v 0.057439 -0.2696415 -0.714844
v 0.057439 -0.1834835 -0.714844
v 0.057439 -0.1834835 -0.673097
v 0.057439 -0.2696415 -0.673097
v 0.043079 -0.2696415 -0.673097
v 0.043079 -0.1834835 -0.673097
v 0.043079 -0.1834835 -0.714844
v 0.043079 -0.2696415 -0.714844
v -0.043079 -0.2696415 -0.714844
v -0.043079 -0.1834835 -0.714844
v -0.043079 -0.1834835 -0.673097
v -0.043079 -0.2696415 -0.673097
v -0.057439 -0.2696415 -0.673097
v -0.057439 -0.1834835 -0.673097
v -0.057439 -0.1834835 -0.714844
v -0.057439 -0.2696415 -0.714844
v 0.043079 -0.1691235 -0.714844
v 0.043079 -0.1691235 -0.673097
v -0.043079 -0.1691235 -0.673097
v -0.043079 -0.1691235 -0.714844
v 0.043079 -0.2840015 -0.714844
v 0.043079 -0.2840015 -0.673097
v -0.043079 -0.2840015 -0.673097
v -0.043079 -0.2840015 -0.714844
v 0.05077 -0.18594650000000001 0.424254
v 0.111693 -0.1250235 0.424254
v 0.111693 -0.1250235 0.555459
v 0.05077 -0.18594650000000001 0.555459
v 0.040616 -0.1757925 0.555459
v 0.101539 -0.1148695 0.555459
v 0.101539 -0.1148695 0.424254
v 0.040616 -0.1757925 0.424254
v 0.040616 -0.2773315 0.424254
v 0.101539 -0.3382555 0.424254
v 0.101539 -0.3382555 0.555459
v 0.040616 -0.2773315 0.555459
v 0.05077 -0.2671785 0.555459
v 0.111693 -0.3281015 0.555459
v 0.111693 -0.3281015 0.424254
v 0.05077 -0.2671785 0.424254
v -0.05077 -0.2671785 0.424254
v -0.111693 -0.3281015 0.424254
v -0.111693 -0.3281015 0.555459
v -0.05077 -0.2671785 0.555459
v -0.040616 -0.2773315 0.555459
v -0.101539 -0.3382555 0.555459
v -0.101539 -0.3382555 0.424254
v -0.040616 -0.2773315 0.424254
v -0.040616 -0.1757925 0.424254
v -0.101539 -0.1148695 0.424254
v -0.101539 -0.1148695 0.555459
v -0.040616 -0.1757925 0.555459
v -0.05077 -0.18594650000000001 0.555459
v -0.111693 -0.1250235 0.555459
v -0.111693 -0.1250235 0.424254
v -0.05077 -0.18594650000000001 0.424254
v 0.071799 -0.2983615 -0.673097
v 0.071799 -0.1547635 -0.673097
v 0.071799 -0.1547635 0.686664
v 0.071799 -0.2983615 0.686664
v -0.071799 -0.2983615 0.686664
v -0.071799 -0.1547635 0.686664
v -0.071799 -0.1547635 -0.673097
v -0.071799 -0.2983615 -0.673097
v 0.057439 -0.2840015 0.686664
v 0.057439 -0.1691235 0.686664
v 0.057439 -0.1691235 0.71052
v 0.057439 -0.2840015 0.71052
v -0.057439 -0.2840015 0.71052
v -0.057439 -0.1691235 0.71052
v -0.057439 -0.1691235 0.686664
v -0.057439 -0.2840015 0.686664
v -0.040616 -0.1757935 -0.625386
v -0.126924 -0.0894845 -0.625386
v -0.040616 -0.1757935 -0.398759
v -0.05077 -0.18594650000000001 -0.398759
v -0.137078 -0.09963849999999999 -0.625386
v -0.05077 -0.18594650000000001 -0.625386
v -0.0734706207341898 -0.14293838146852636 -0.309301
v -0.040616 -0.1757935 -0.309301
v -0.05077 -0.18594650000000001 -0.309301
v -0.0836246207341898 -0.15309238146852636 -0.309301
v -0.126924 -0.0894845 -0.398759
v -0.13679533330642682 -0.0999208632794322 -0.398759
v 0.050768999999999995 -0.1859465 -0.625386
v 0.13707799999999998 -0.09963849999999996 -0.625386
v 0.050768999999999995 -0.1859465 -0.398759
v 0.040615999999999985 -0.1757925 -0.398759
v 0.12692399999999998 -0.08948449999999997 -0.625386
v 0.040615999999999985 -0.1757925 -0.625386
v 0.08362411853147363 -0.1530918792658102 -0.309301
v 0.050768999999999995 -0.1859465 -0.309301
v 0.040615999999999985 -0.1757925 -0.309301
v 0.07347011853147363 -0.1429378792658102 -0.309301
v 0.13707799999999998 -0.09963849999999996 -0.398759
v 0.12664163672056777 -0.08976716669357315 -0.398759
v 0.040616000000000076 -0.27733149999999995 -0.625386
v 0.1269240000000002 -0.3636404999999998 -0.625386
v 0.040616000000000076 -0.27733149999999995 -0.398759
v 0.050770000000000065 -0.26717849999999993 -0.398759
v 0.1370780000000002 -0.3534864999999998 -0.625386
v 0.050770000000000065 -0.26717849999999993 -0.625386
v 0.07347062073418993 -0.31018661853147356 -0.309301
v 0.040616000000000076 -0.27733149999999995 -0.309301
v 0.050770000000000065 -0.26717849999999993 -0.309301
v 0.08362462073418991 -0.3000326185314735 -0.309301
v 0.1269240000000002 -0.3636404999999998 -0.398759
v 0.136795333306427 -0.3532041367205676 -0.398759
v -0.0507689999999999 -0.26717850000000015 -0.625386
v -0.13707799999999967 -0.3534865000000004 -0.625386
v -0.0507689999999999 -0.26717850000000015 -0.398759
v -0.04061599999999986 -0.27733250000000015 -0.398759
v -0.12692399999999965 -0.36364050000000037 -0.625386
v -0.04061599999999986 -0.27733250000000015 -0.625386
v -0.08362411853147345 -0.3000331207341901 -0.309301
v -0.0507689999999999 -0.26717850000000015 -0.309301
v -0.04061599999999986 -0.27733250000000015 -0.309301
v -0.07347011853147342 -0.31018712073419 -0.309301
v -0.13707799999999967 -0.3534865000000004 -0.398759
v -0.12664163672056744 -0.36335783330642724 -0.398759
vt 0.78125 0.75
vt 0.78125 0.78125
vt 0.75 0.78125
vt 0.75 0.75
vt 0.78125 0.3125
vt 0.78125 0.34375
vt 0.75 0.34375
vt 0.75 0.3125
vt 0.75 0.28125
vt 0.75 0.3125
vt 0.71875 0.3125
vt 0.71875 0.28125
vt 0.78125 0.34375
vt 0.78125 0.375
vt 0.75 0.375
vt 0.75 0.34375
vt 0.03125 0.09375
vt 0.03125 0.125
vt 0 0.125
vt 0 0.09375
vt 0.375 0
vt 0.375 0.03125
vt 0.34375 0.03125
vt 0.34375 0
vt 0.0625 0.09375
vt 0.0625 0.125
vt 0.03125 0.125
vt 0.03125 0.09375
vt 0.78125 0.96875
vt 0.78125 1
vt 0.75 1
vt 0.75 0.96875
vt 0.09375 0.09375
vt 0.09375 0.125
vt 0.0625 0.125
vt 0.0625 0.09375
vt 0.78125 0.9375
vt 0.78125 0.96875
vt 0.75 0.96875
vt 0.75 0.9375
vt 0.65625 0.71875
vt 0.65625 0.75
vt 0 0.75
vt 0 0.71875
vt 0.65625 0.6875
vt 0.65625 0.71875
vt 0 0.71875
vt 0 0.6875
vt 0 0.4375
vt 0.65625 0.4375
vt 0.65625 0.5
vt 0 0.5
vt 0.6875 0.3125
vt 0.71875 0.3125
vt 0.71875 0.375
vt 0.6875 0.375
vt 0.6875 0.4375
vt 0.71875 0.4375
vt 0.71875 0.5
vt 0.6875 0.5
vt 0.65625 0.65625
vt 0.65625 0.6875
vt 0 0.6875
vt 0 0.65625
vt 0.65625 0.625
vt 0.65625 0.65625
vt 0 0.65625
vt 0 0.625
vt 0 0.375
vt 0.65625 0.375
vt 0.65625 0.4375
vt 0 0.4375
vt 0.71875 0.4375
vt 0.75 0.4375
vt 0.75 0.5
vt 0.71875 0.5
vt 0.6875 0.375
vt 0.71875 0.375
vt 0.71875 0.4375
vt 0.6875 0.4375
vt 0.65625 0.8125
vt 0.65625 0.875
vt 0 0.875
vt 0 0.8125
vt 0 0.34375
vt 0.65625 0.34375
vt 0.65625 0.375
vt 0 0.375
vt 0 0.3125
vt 0.65625 0.3125
vt 0.65625 0.34375
vt 0 0.34375
vt 0.6875 0.375
vt 0.6875 0.4375
vt 0.65625 0.4375
vt 0.65625 0.375
vt 0.6875 0.3125
vt 0.6875 0.375
vt 0.65625 0.375
vt 0.65625 0.3125
vt 0.65625 0.75
vt 0.65625 0.8125
vt 0 0.8125
vt 0 0.75
vt 0 0.28125
vt 0.65625 0.28125
vt 0.65625 0.3125
vt 0 0.3125
vt 0 0.25
vt 0.65625 0.25
vt 0.65625 0.28125
vt 0 0.28125
vt 0.6875 0.25
vt 0.6875 0.3125
vt 0.65625 0.3125
vt 0.65625 0.25
vt 0.71875 0.1875
vt 0.71875 0.25
vt 0.6875 0.25
vt 0.6875 0.1875
vt 0.125 0.09375
vt 0.125 0.125
vt 0.09375 0.125
vt 0.09375 0.09375
vt 0.78125 0.90625
vt 0.78125 0.9375
vt 0.75 0.9375
vt 0.75 0.90625
vt 0.15625 0.09375
vt 0.15625 0.125
vt 0.125 0.125
vt 0.125 0.09375
vt 0.78125 0.875
vt 0.78125 0.90625
vt 0.75 0.90625
vt 0.75 0.875
vt 0.1875 0.09375
vt 0.1875 0.125
vt 0.15625 0.125
vt 0.15625 0.09375
vt 0.78125 0.84375
vt 0.78125 0.875
vt 0.75 0.875
vt 0.75 0.84375
vt 0.21875 0.09375
vt 0.21875 0.125
vt 0.1875 0.125
vt 0.1875 0.09375
vt 0.78125 0.8125
vt 0.78125 0.84375
vt 0.75 0.84375
vt 0.75 0.8125
vt 0.25 0.09375
vt 0.25 0.125
vt 0.21875 0.125
vt 0.21875 0.09375
vt 0.78125 0.78125
vt 0.78125 0.8125
vt 0.75 0.8125
vt 0.75 0.78125
vt 0.28125 0.09375
vt 0.28125 0.125
vt 0.25 0.125
vt 0.25 0.09375
vt 0.3125 0.09375
vt 0.3125 0.125
vt 0.28125 0.125
vt 0.28125 0.09375
vt 0.34375 0.09375
vt 0.34375 0.125
vt 0.3125 0.125
vt 0.3125 0.09375
vt 0.375 0.03125
vt 0.375 0.0625
vt 0.34375 0.0625
vt 0.34375 0.03125
vt 0.375 0.09375
vt 0.375 0.125
vt 0.34375 0.125
vt 0.34375 0.09375
vt 0.78125 0.71875
vt 0.78125 0.75
vt 0.75 0.75
vt 0.75 0.71875
vt 0.78125 0.6875
vt 0.78125 0.71875
vt 0.75 0.71875
vt 0.75 0.6875
vt 0.78125 0.65625
vt 0.78125 0.6875
vt 0.75 0.6875
vt 0.75 0.65625
vt 0.78125 0.625
vt 0.78125 0.65625
vt 0.75 0.65625
vt 0.75 0.625
vt 0.375 0.0625
vt 0.375 0.09375
vt 0.34375 0.09375
vt 0.34375 0.0625
vt 0.71875 0.3125
vt 0.75 0.3125
vt 0.75 0.375
vt 0.71875 0.375
vt 0.6875 0.5
vt 0.71875 0.5
vt 0.71875 0.5625
vt 0.6875 0.5625
vt 0.71875 0.75
vt 0.71875 0.6875
vt 0.75 0.6875
vt 0.75 0.75
vt 0.3125 0
vt 0.34375 0
vt 0.34375 0.03125
vt 0.3125 0.03125
vt 0.34375 0.03125
vt 0.34375 0.0625
vt 0.3125 0.0625
vt 0.3125 0.03125
vt 0.75 0.9375
vt 0.71875 0.9375
vt 0.71875 0.875
vt 0.75 0.875
vt 0.71875 0.875
vt 0.6875 0.875
vt 0.6875 0.8125
vt 0.71875 0.8125
vt 0.6875 0.9375
vt 0.6875 0.875
vt 0.71875 0.875
vt 0.71875 0.9375
vt 0.75 0.28125
vt 0.75 0.25
vt 0.78125 0.25
vt 0.78125 0.28125
vt 0.0625 0.09375
vt 0.03125 0.09375
vt 0.03125 0.0625
vt 0.0625 0.0625
vt 0.71875 0.75
vt 0.6875 0.75
vt 0.6875 0.6875
vt 0.71875 0.6875
vt 0.75 0.4375
vt 0.71875 0.4375
vt 0.71875 0.375
vt 0.75 0.375
vt 0.71875 0.625
vt 0.71875 0.6875
vt 0.6875 0.6875
vt 0.6875 0.625
vt 0.78125 0.625
vt 0.75 0.625
vt 0.75 0.59375
vt 0.78125 0.59375
vt 0.0625 0.09375
vt 0.0625 0.0625
vt 0.09375 0.0625
vt 0.09375 0.09375
vt 0.71875 0.625
vt 0.75 0.625
vt 0.75 0.6875
vt 0.71875 0.6875
vt 0.6875 0.5625
vt 0.71875 0.5625
vt 0.71875 0.625
vt 0.6875 0.625
vt 0.75 0.5
vt 0.75 0.5625
vt 0.71875 0.5625
vt 0.71875 0.5
vt 0.78125 0.5625
vt 0.78125 0.59375
vt 0.75 0.59375
vt 0.75 0.5625
vt 0.09375 0.0625
vt 0.125 0.0625
vt 0.125 0.09375
vt 0.09375 0.09375
vt 0.6875 0.9375
vt 0.6875 1
vt 0 1
vt 0 0.9375
vt 0.6875 0.875
vt 0.6875 0.9375
vt 0 0.9375
vt 0 0.875
vt 0 0.5625
vt 0.6875 0.5625
vt 0.6875 0.625
vt 0 0.625
vt 0 0.5
vt 0.6875 0.5
vt 0.6875 0.5625
vt 0 0.5625
vt 0.6875 0.1875
vt 0.6875 0.25
vt 0.625 0.25
vt 0.625 0.1875
vt 0.3125 0
vt 0.3125 0.0625
vt 0.25 0.0625
vt 0.25 0
vt 0.6875 0.625
vt 0.6875 0.6875
vt 0.65625 0.6875
vt 0.65625 0.625
vt 0.6875 0.4375
vt 0.6875 0.5
vt 0.65625 0.5
vt 0.65625 0.4375
vt 0.71875 0.8125
vt 0.75 0.8125
vt 0.75 0.875
vt 0.71875 0.875
vt 0.6875 0.25
vt 0.71875 0.25
vt 0.71875 0.3125
vt 0.6875 0.3125
vt 0.4375 0.125
vt 0.4375 0.1875
vt 0.375 0.1875
vt 0.375 0.125
vt 0.125 0.1875
vt 0.125 0.25
vt 0 0.25
vt 0 0.1875
vt 0.375 0.1875
vt 0.375 0.25
vt 0.25 0.25
vt 0.25 0.1875
vt 0.125 0.0625
vt 0 0.0625
vt 0 0.03125
vt 0.125 0.03125
vt 0.6875 0.75
vt 0.6875 0.8125
vt 0.65625 0.8125
vt 0.65625 0.75
vt 0.6875 1
vt 0.6875 0.9375
vt 0.71875 0.9375
vt 0.71875 1
vt 0.78125 0.53125
vt 0.78125 0.5625
vt 0.75 0.5625
vt 0.75 0.53125
vt 0.78125 0.4375
vt 0.78125 0.46875
vt 0.75 0.46875
vt 0.75 0.4375
vt 0.78125 0.40625
vt 0.75 0.40625
vt 0.75 0.375
vt 0.78125 0.375
vt 0.78125 0.28125
vt 0.78125 0.3125
vt 0.75 0.3125
vt 0.75 0.28125
vt 0.125 0.1875
vt 0.125 0.25
vt 0 0.25
vt 0 0.1875
vt 0.375 0.1875
vt 0.375 0.25
vt 0.25 0.25
vt 0.25 0.1875
vt 0.125 0.0625
vt 0 0.0625
vt 0 0.03125
vt 0.125 0.03125
vt 0.6875 0.75
vt 0.6875 0.8125
vt 0.65625 0.8125
vt 0.65625 0.75
vt 0.6875 1
vt 0.6875 0.9375
vt 0.71875 0.9375
vt 0.71875 1
vt 0.78125 0.53125
vt 0.78125 0.5625
vt 0.75 0.5625
vt 0.75 0.53125
vt 0.78125 0.4375
vt 0.78125 0.46875
vt 0.75 0.46875
vt 0.75 0.4375
vt 0.78125 0.40625
vt 0.75 0.40625
vt 0.75 0.375
vt 0.78125 0.375
vt 0.78125 0.28125
vt 0.78125 0.3125
vt 0.75 0.3125
vt 0.75 0.28125
vt 0.125 0.1875
vt 0.125 0.25
vt 0 0.25
vt 0 0.1875
vt 0.375 0.1875
vt 0.375 0.25
vt 0.25 0.25
vt 0.25 0.1875
vt 0.125 0.0625
vt 0 0.0625
vt 0 0.03125
vt 0.125 0.03125
vt 0.6875 0.75
vt 0.6875 0.8125
vt 0.65625 0.8125
vt 0.65625 0.75
vt 0.6875 1
vt 0.6875 0.9375
vt 0.71875 0.9375
vt 0.71875 1
vt 0.78125 0.53125
vt 0.78125 0.5625
vt 0.75 0.5625
vt 0.75 0.53125
vt 0.78125 0.4375
vt 0.78125 0.46875
vt 0.75 0.46875
vt 0.75 0.4375
vt 0.78125 0.40625
vt 0.75 0.40625
vt 0.75 0.375
vt 0.78125 0.375
vt 0.78125 0.28125
vt 0.78125 0.3125
vt 0.75 0.3125
vt 0.75 0.28125
vt 0.125 0.1875
vt 0.125 0.25
vt 0 0.25
vt 0 0.1875
vt 0.375 0.1875
vt 0.375 0.25
vt 0.25 0.25
vt 0.25 0.1875
vt 0.125 0.0625
vt 0 0.0625
vt 0 0.03125
vt 0.125 0.03125
vt 0.6875 0.75
vt 0.6875 0.8125
vt 0.65625 0.8125
vt 0.65625 0.75
vt 0.6875 1
vt 0.6875 0.9375
vt 0.71875 0.9375
vt 0.71875 1
vt 0.78125 0.53125
vt 0.78125 0.5625
vt 0.75 0.5625
vt 0.75 0.53125
vt 0.78125 0.4375
vt 0.78125 0.46875
vt 0.75 0.46875
vt 0.75 0.4375
vt 0.78125 0.40625
vt 0.75 0.40625
vt 0.75 0.375
vt 0.78125 0.375
vt 0.78125 0.28125
vt 0.78125 0.3125
vt 0.75 0.3125
vt 0.75 0.28125
vn 1 0 0
vn -1 0 0
vn 0 1 0
vn 0 -1 0
vn 0 0 1
vn 1 0 0
vn -1 0 0
vn 0 1 0
vn 0 -1 0
vn 0 0 1
vn 1 0 0
vn -1 0 0
vn 0 1 0
vn 0 0 1
vn 0 0 -1
vn 1 0 0
vn -1 0 0
vn 0 -1 0
vn 0 0 1
vn 0 0 -1
vn -1 0 0
vn 0 1 0
vn 0 -1 0
vn 0 0 1
vn 0 0 -1
vn 1 0 0
vn 0 1 0
vn 0 -1 0
vn 0 0 1
vn 0 0 -1
vn 1 0 0
vn -1 0 0
vn 0 1 0
vn 0 -1 0
vn 0 0 -1
vn 1 0 0
vn -1 0 0
vn 0 1 0
vn 0 -1 0
vn 0 0 -1
vn 1 0 0
vn -1 0 0
vn 0 1 0
vn 0 -1 0
vn 0 0 -1
vn 1 0 0
vn -1 0 0
vn 0 1 0
vn 0 -1 0
vn 0 0 -1
vn 0.7071067811865476 -0.7071067811865475 0
vn -0.7071067811865475 0.7071067811865476 0
vn 0.707106781186548 0.707106781186547 0
vn 0 0 1
vn 0 0 -1
vn -0.7071125843977839 -0.7071009779276839 0
vn 0.7071067811865476 0.7071067811865475 0
vn 0.7071067811865476 -0.7071067811865476 0
vn 0 0 1
vn 0 0 -1
vn -0.7071067811865476 0.7071067811865475 0
vn 0.7071125843977839 -0.7071009779276839 0
vn -0.7071067811865476 -0.7071067811865476 0
vn 0 0 1
vn 0 0 -1
vn 0.7071067811865475 0.7071067811865476 0
vn -0.7071067811865476 -0.7071067811865475 0
vn -0.707106781186548 0.707106781186547 0
vn 0 0 1
vn 0 0 -1
vn 1 0 0
vn -1 0 0
vn 0 1 0
vn 0 -1 0
vn 0 0 1
vn 0 0 -1
vn 1 0 0
vn -1 0 0
vn 0 1 0
vn 0 -1 0
vn 0 0 1
vn 0.7071108775660059 0.707102684783358 0
vn -0.7071080281772069 -0.7071055341930512 9.498020293162435e-7
vn -0.7071067811865476 0.7071067811865476 0
vn 0 0 1
vn 0 0 -1
vn 0.7071108775657029 0.707102684783055 -9.25831442854948e-7
vn -0.707101376789679 -0.7071121854264004 -0.000012792197599857865
vn -0.5549963446557823 0.5249485625651602 0.6452968805747417
vn 0 0 1
vn 0.7071026847833581 -0.7071108775660059 0
vn -0.7071055341930514 0.7071080281772066 9.498020293162435e-7
vn 0.7071067811865476 0.7071067811865476 0
vn 0 0 1
vn 0 0 -1
vn 0.707102684783055 -0.7071108775657028 -9.258314430535355e-7
vn -0.7071121854264005 0.7071013767896789 -0.000012792197599649194
vn 0.5249485625651601 0.5549963446557824 0.6452968805747417
vn 0 0 1
vn -0.7071108775660049 -0.7071026847833591 0
vn 0.7071080281772057 0.7071055341930523 9.498020293162435e-7
vn 0.7071067811865476 -0.7071067811865476 0
vn 0 0 1
vn 0 0 -1
vn -0.7071108775657018 -0.707102684783056 -9.258314430535357e-7
vn 0.7071013767896775 0.707112185426402 -0.000012792197600379563
vn 0.5549963446557825 -0.5249485625651602 0.6452968805747414
vn 0 0 1
vn -0.7071026847833601 0.7071108775660039 0
vn 0.7071055341930533 -0.7071080281772048 9.498020291274887e-7
vn -0.7071067811865447 -0.7071067811865503 0
vn 0 0 1
vn 0 0 -1
vn -0.7071026847830569 0.7071108775657009 -9.258314426960774e-7
vn 0.7071121854264024 -0.7071013767896772 -0.00001279219759944052
vn -0.5249485625651594 -0.554996344655783 0.6452968805747418
vn 0 0 1
usemtl m_78b014c4-3eea-14df-408a-0384d9d3c6c9
f 25/65/17 26/66/17 27/67/17 28/68/17
f 29/69/18 30/70/18 31/71/18 32/72/18
f 27/73/19 26/74/19 31/75/19 30/76/19
f 25/77/20 28/78/20 29/79/20 32/80/20
f 28/81/21 27/82/21 30/83/21 29/84/21
f 33/85/22 34/86/22 35/87/22 36/88/22
f 37/89/23 38/90/23 39/91/23 40/92/23
f 35/93/24 34/94/24 39/95/24 38/96/24
f 33/97/25 36/98/25 37/99/25 40/100/25
f 36/101/26 35/102/26 38/103/26 37/104/26
f 41/105/27 42/106/27 43/107/27 44/108/27
f 45/109/28 46/110/28 47/111/28 48/112/28
f 43/113/29 42/114/29 47/115/29 46/116/29
f 44/117/30 43/118/30 46/119/30 45/120/30
f 48/121/31 47/122/31 42/123/31 41/124/31
f 49/125/32 50/126/32 51/127/32 52/128/32
f 53/129/33 54/130/33 55/131/33 56/132/33
f 49/133/34 52/134/34 53/135/34 56/136/34
f 52/137/35 51/138/35 54/139/35 53/140/35
f 56/141/36 55/142/36 50/143/36 49/144/36
f 57/145/37 58/146/37 59/147/37 60/148/37
f 61/149/38 62/150/38 59/151/38 58/152/38
f 63/153/39 64/154/39 57/155/39 60/156/39
f 64/157/40 61/158/40 58/159/40 57/160/40
f 60/161/41 59/162/41 62/163/41 63/164/41
f 65/165/42 66/166/42 67/167/42 68/168/42
f 67/169/43 66/170/43 69/171/43 70/172/43
f 65/173/44 68/174/44 71/175/44 72/176/44
f 68/177/45 67/178/45 70/179/45 71/180/45
f 72/181/46 69/182/46 66/183/46 65/184/46
f 73/185/47 74/186/47 75/187/47 76/188/47
f 77/189/48 78/190/48 79/191/48 80/192/48
f 75/193/49 74/194/49 79/195/49 78/196/49
f 73/197/50 76/198/50 77/199/50 80/200/50
f 80/201/51 79/202/51 74/203/51 73/204/51
f 81/205/52 82/206/52 83/207/52 84/208/52
f 85/209/53 86/210/53 87/211/53 88/212/53
f 83/213/54 82/214/54 87/215/54 86/216/54
f 81/217/55 84/218/55 85/219/55 88/220/55
f 88/221/56 87/222/56 82/223/56 81/224/56
f 79/225/57 89/226/57 90/227/57 78/228/57
f 83/229/58 91/230/58 92/231/58 82/232/58
f 90/233/59 89/234/59 92/235/59 91/236/59
f 79/237/60 78/238/60 83/239/60 82/240/60
f 82/241/61 92/242/61 89/243/61 79/244/61
f 93/245/62 80/246/62 77/247/62 94/248/62
f 95/249/63 84/250/63 81/251/63 96/252/63
f 77/253/64 80/254/64 81/255/64 84/256/64
f 93/257/65 94/258/65 95/259/65 96/260/65
f 96/261/66 81/262/66 80/263/66 93/264/66
f 97/265/67 98/266/67 99/267/67 100/268/67
f 101/269/68 102/270/68 103/271/68 104/272/68
f 99/273/69 98/274/69 103/275/69 102/276/69
f 100/277/70 99/278/70 102/279/70 101/280/70
f 104/281/71 103/282/71 98/283/71 97/284/71
f 105/285/72 106/286/72 107/287/72 108/288/72
f 109/289/73 110/290/73 111/291/73 112/292/73
f 107/293/74 106/294/74 111/295/74 110/296/74
f 108/297/75 107/298/75 110/299/75 109/300/75
f 112/301/76 111/302/76 106/303/76 105/304/76
f 113/305/77 114/306/77 115/307/77 116/308/77
f 117/309/78 118/310/78 119/311/78 120/312/78
f 115/313/79 114/314/79 119/315/79 118/316/79
f 116/317/80 115/318/80 118/319/80 117/320/80
f 120/321/81 119/322/81 114/323/81 113/324/81
f 121/325/82 122/326/82 123/327/82 124/328/82
f 125/329/83 126/330/83 127/331/83 128/332/83
f 123/333/84 122/334/84 127/335/84 126/336/84
f 124/337/85 123/338/85 126/339/85 125/340/85
f 128/341/86 127/342/86 122/343/86 121/344/86
f 129/345/87 130/346/87 131/347/87 132/348/87
f 133/349/88 134/350/88 135/351/88 136/352/88
f 131/353/89 130/354/89 135/355/89 134/356/89
f 129/357/90 132/358/90 133/359/90 136/360/90
f 132/361/91 131/362/91 134/363/91 133/364/91
f 136/365/92 135/366/92 130/367/92 129/368/92
f 137/369/93 138/370/93 139/371/93 140/372/93
f 141/373/94 142/374/94 143/375/94 144/376/94
f 139/377/95 138/378/95 143/379/95 142/380/95
f 137/381/96 140/382/96 141/383/96 144/384/96
f 140/385/97 139/386/97 142/387/97 141/388/97
f 145/389/98 146/390/98 155/391/98 147/392/98
f 148/393/99 156/394/99 149/395/99 150/396/99
f 155/397/100 146/398/100 149/399/100 156/400/100
f 147/401/101 155/402/101 156/403/101 148/404/101
f 150/405/102 149/406/102 146/407/102 145/408/102
f 147/409/103 155/410/103 151/411/103 152/412/103
f 153/413/104 154/414/104 156/415/104 148/416/104
f 151/417/105 155/418/105 156/419/105 154/420/105
f 152/421/106 151/422/106 154/423/106 153/424/106
f 157/425/107 158/426/107 167/427/107 159/428/107
f 160/429/108 168/430/108 161/431/108 162/432/108
f 167/433/109 158/434/109 161/435/109 168/436/109
f 159/437/110 167/438/110 168/439/110 160/440/110
f 162/441/111 161/442/111 158/443/111 157/444/111
f 159/445/112 167/446/112 163/447/112 164/448/112
f 165/449/113 166/450/113 168/451/113 160/452/113
f 163/453/114 167/454/114 168/455/114 166/456/114
f 164/457/115 163/458/115 166/459/115 165/460/115
f 169/461/116 170/462/116 179/463/116 171/464/116
f 172/465/117 180/466/117 173/467/117 174/468/117
f 179/469/118 170/470/118 173/471/118 180/472/118
f 171/473/119 179/474/119 180/475/119 172/476/119
f 174/477/120 173/478/120 170/479/120 169/480/120
f 171/481/121 179/482/121 175/483/121 176/484/121
f 177/485/122 178/486/122 180/487/122 172/488/122
f 175/489/123 179/490/123 180/491/123 178/492/123
f 176/493/124 175/494/124 178/495/124 177/496/124
f 181/497/125 182/498/125 191/499/125 183/500/125
f 184/501/126 192/502/126 185/503/126 186/504/126
f 191/505/127 182/506/127 185/507/127 192/508/127
f 183/509/128 191/510/128 192/511/128 184/512/128
f 186/513/129 185/514/129 182/515/129 181/516/129
f 183/517/130 191/518/130 187/519/130 188/520/130
f 189/521/131 190/522/131 192/523/131 184/524/131
f 187/525/132 191/526/132 192/527/132 190/528/132
f 188/529/133 187/530/133 190/531/133 189/532/133