# Blender 3.6.0
# www.blender.org
mtllib mig21wing_r.mtl
o Wing_R
v -3.312500 0.062500 -1.500000
v 0.000000 0.062500 3.687500
v 0.000000 0.062500 3.187500
v -3.312500 0.062500 -2.000000
v -3.312500 -0.062500 -2.000000
v 0.000000 -0.062500 3.187500
v 0.000000 -0.062500 3.687500
v -3.312500 -0.062500 -1.500000
v -3.312500 0.125000 -2.000000
v 0.000000 0.125000 3.187500
v 0.000000 0.125000 1.062500
v -3.312500 0.125000 -2.250000
v -3.312500 -0.125000 -2.250000
v 0.000000 -0.125000 1.062500
v 0.000000 -0.125000 3.187500
v -3.312500 -0.125000 -2.000000
v -1.125000 0.125000 -0.562500
v 0.000000 0.125000 0.562500
v 0.000000 0.125000 -2.062500
v -1.125000 0.125000 -2.062500
v -1.125000 -0.125000 -2.062500
v 0.000000 -0.125000 -2.062500
v 0.000000 -0.125000 0.562500
v -1.125000 -0.125000 -0.562500
v -1.687500 0.125000 -0.625000
v -1.125000 0.125000 -0.062500
v -1.125000 0.125000 -2.062500
v -1.687500 0.125000 -2.062500
v -1.687500 -0.125000 -2.062500
v -1.125000 -0.125000 -2.062500
v -1.125000 -0.125000 -0.062500
v -1.687500 -0.125000 -0.625000
v -3.312500 0.125000 -2.250000
v -1.687500 0.125000 -0.625000
v -1.687500 0.125000 -2.062500
v -3.312500 0.125000 -2.562500
v -3.312500 -0.125000 -2.562500
v -1.687500 -0.125000 -2.062500
v -1.687500 -0.125000 -0.625000
v -3.312500 -0.125000 -2.250000
v -3.875000 0.062500 -2.312500
v -3.312500 0.062500 -1.500000
v -3.312500 0.062500 -2.937500
v -3.875000 0.062500 -2.937500
v -3.875000 -0.062500 -2.937500
v -3.312500 -0.062500 -2.937500
v -3.312500 -0.062500 -1.500000
v -3.875000 -0.062500 -2.312500
v -3.625000 0.125000 -2.500000
v -3.312500 0.125000 -2.000000
v -3.312500 0.125000 -2.562500
v -3.625000 0.125000 -2.687500
v -3.625000 0.062500 -2.687500
v -3.312500 0.062500 -2.562500
v -3.312500 0.062500 -2.000000
v -3.625000 0.062500 -2.500000
v -1.687500 0.093750 -2.062500
v -1.625000 0.093750 -2.062500
v -1.625000 0.093750 -3.000000
v -1.687500 0.093750 -3.000000
v -1.687500 -0.093750 -3.000000
v -1.625000 -0.093750 -3.000000
v -1.625000 -0.093750 -2.062500
v -1.687500 -0.093750 -2.062500
v -3.375000 0.125000 -2.687500
v -3.312500 0.125000 -2.687500
v -3.312500 0.125000 -2.875000
v -3.375000 0.125000 -2.875000
v -3.375000 0.062500 -2.875000
v -3.312500 0.062500 -2.875000
v -3.312500 0.062500 -2.687500
v -3.375000 0.062500 -2.687500
v -3.375000 0.187500 -1.937500
v -3.312500 0.187500 -1.937500
v -3.312500 0.187500 -2.687500
v -3.375000 0.187500 -2.687500
v -3.375000 0.062500 -2.687500
v -3.312500 0.062500 -2.687500
v -3.312500 0.062500 -1.937500
v -3.375000 0.062500 -1.937500
v -3.375000 0.125000 -1.687500
v -3.312500 0.125000 -1.687500
v -3.312500 0.125000 -1.937500
v -3.375000 0.125000 -1.937500
v -3.375000 0.062500 -1.937500
v -3.312500 0.062500 -1.937500
v -3.312500 0.062500 -1.687500
v -3.375000 0.062500 -1.687500
v -1.290891 -0.093750 -0.432301
v -1.290891 -0.156250 -0.432301
v -1.158308 -0.093750 -0.299718
v -1.158308 -0.156250 -0.299718
v -1.141735 -0.093750 -0.581456
v -1.141735 -0.156250 -0.581456
v -1.009153 -0.093750 -0.448874
v -1.009153 -0.156250 -0.448874
v -3.875000 0.054687 -2.328125
v -3.875000 0.054687 -2.437500
v -3.875000 -0.054688 -2.328125
v -3.875000 -0.054688 -2.437500
v -3.890625 0.054687 -2.328125
v -3.890625 0.054687 -2.437500
v -3.890625 -0.054688 -2.328125
v -3.890625 -0.054688 -2.437500
vn -0.0000 1.0000 -0.0000
vn -0.0000 -1.0000 -0.0000
vn -0.8428 -0.0000 0.5382
vn 1.0000 -0.0000 -0.0000
vn 0.7071 -0.0000 -0.7071
vn -1.0000 -0.0000 -0.0000
vn -0.7071 -0.0000 0.7071
vn -0.0000 -0.0000 -1.0000
vn 0.2941 -0.0000 -0.9558
vn -0.8222 -0.0000 0.5692
vn -0.8480 -0.0000 0.5300
vn 0.3714 -0.0000 -0.9285
vn -0.0000 -0.0000 1.0000
vn -0.7071 -0.0000 -0.7071
vn 0.7071 -0.0000 0.7071
vt 0.158203 0.561050
vt 0.158203 0.368709
vt 0.166016 0.381878
vt 0.166016 0.574219
vt 0.402616 0.660156
vt 0.594957 0.660156
vt 0.608126 0.667969
vt 0.415785 0.667969
vt 0.652344 0.833984
vt 0.460938 0.833984
vt 0.460938 0.830078
vt 0.652344 0.830078
vt 0.685547 0.568359
vt 0.669922 0.568359
vt 0.669922 0.564453
vt 0.685547 0.564453
vt 0.000197 0.866462
vt 0.000197 0.674122
vt 0.035936 0.730090
vt 0.004401 0.873047
vt 0.095850 0.852824
vt 0.238806 0.821289
vt 0.294775 0.857028
vt 0.102434 0.857028
vt 0.609375 0.701172
vt 0.417969 0.701172
vt 0.417969 0.693359
vt 0.609375 0.693359
vt 0.593750 0.871094
vt 0.447266 0.871094
vt 0.447266 0.863281
vt 0.593750 0.863281
vt 0.617188 0.636719
vt 0.550781 0.636719
vt 0.550781 0.628906
vt 0.617188 0.628906
vt 0.326172 0.703125
vt 0.318359 0.703125
vt 0.318359 0.695312
vt 0.326172 0.695312
vt 0.380859 0.589844
vt 0.416016 0.554688
vt 0.416016 0.636719
vt 0.380859 0.636719
vt 0.240234 0.558594
vt 0.275391 0.558594
vt 0.275391 0.640625
vt 0.240234 0.605469
vt 0.625000 0.531250
vt 0.576172 0.531250
vt 0.576172 0.523438
vt 0.625000 0.523438
vt 0.574219 0.404297
vt 0.539062 0.404297
vt 0.539062 0.396484
vt 0.574219 0.396484
vt 0.605469 0.843750
vt 0.523438 0.843750
vt 0.523438 0.835938
vt 0.605469 0.835938
vt 0.027344 0.505859
vt 0.044922 0.488281
vt 0.044922 0.550781
vt 0.027344 0.550781
vt 0.062500 0.488281
vt 0.062500 0.550781
vt 0.044922 0.533203
vt 0.662109 0.765625
vt 0.644531 0.765625
vt 0.644531 0.757812
vt 0.662109 0.757812
vt 0.617188 0.787109
vt 0.554688 0.787109
vt 0.554688 0.779297
vt 0.617188 0.779297
vt 0.125231 0.579032
vt 0.125231 0.507217
vt 0.156996 0.538981
vt 0.132136 0.585938
vt 0.031440 0.887164
vt 0.078397 0.862305
vt 0.110161 0.894069
vt 0.038346 0.894069
vt 0.626953 0.507812
vt 0.574219 0.507812
vt 0.574219 0.500000
vt 0.626953 0.500000
vt 0.228516 0.890625
vt 0.218750 0.890625
vt 0.218750 0.882812
vt 0.228516 0.882812
vt 0.097656 0.490234
vt 0.115234 0.464844
vt 0.115234 0.509766
vt 0.097656 0.509766
vt 0.125000 0.476562
vt 0.142578 0.476562
vt 0.142578 0.521484
vt 0.125000 0.496094
vt 0.677734 0.945312
vt 0.646484 0.945312
vt 0.646484 0.941406
vt 0.677734 0.941406
vt 0.253906 1.000000
vt 0.236328 1.000000
vt 0.236328 0.996094
vt 0.253906 0.996094
vt 0.673828 0.908203
vt 0.628906 0.908203
vt 0.628906 0.904297
vt 0.673828 0.904297
vt 0.408203 0.667969
vt 0.388672 0.667969
vt 0.388672 0.664062
vt 0.408203 0.664062
vt 0.285156 0.761719
vt 0.294922 0.746094
vt 0.294922 0.763672
vt 0.285156 0.767578
vt 0.541016 0.533203
vt 0.523438 0.533203
vt 0.523438 0.531250
vt 0.541016 0.531250
vt 0.171875 0.835938
vt 0.162109 0.835938
vt 0.162109 0.833984
vt 0.171875 0.833984
vt 0.330078 0.638672
vt 0.324219 0.638672
vt 0.324219 0.636719
vt 0.330078 0.636719
vt 0.296875 0.294922
vt 0.298828 0.294922
vt 0.298828 0.324219
vt 0.296875 0.324219
vt 0.300781 0.294922
vt 0.300781 0.324219
vt 0.009766 0.636719
vt 0.007812 0.636719
vt 0.007812 0.630859
vt 0.009766 0.630859
vt 0.660156 0.779297
vt 0.630859 0.779297
vt 0.630859 0.773438
vt 0.660156 0.773438
vt 0.662109 0.380859
vt 0.632812 0.380859
vt 0.632812 0.375000
vt 0.662109 0.375000
vt 0.148438 0.617188
vt 0.150391 0.617188
vt 0.150391 0.623047
vt 0.148438 0.623047
vt 0.162109 0.837891
vt 0.160156 0.837891
vt 0.160156 0.835938
vt 0.382812 0.667969
vt 0.382812 0.666016
vt 0.388672 0.666016
vt 0.414062 0.660156
vt 0.408203 0.660156
vt 0.408203 0.658203
vt 0.414062 0.658203
vt 0.683594 0.783203
vt 0.685547 0.783203
vt 0.685547 0.806641
vt 0.683594 0.806641
vt 0.142578 0.574219
vt 0.140625 0.574219
vt 0.140625 0.570312
vt 0.142578 0.570312
vt 0.214844 0.574219
vt 0.212891 0.574219
vt 0.212891 0.570312
vt 0.214844 0.570312
vt 0.679688 0.587891
vt 0.656250 0.587891
vt 0.656250 0.583984
vt 0.679688 0.583984
vt 0.681641 0.904297
vt 0.658203 0.904297
vt 0.658203 0.900391
vt 0.681641 0.900391
vt 0.699219 0.974609
vt 0.701172 0.974609
vt 0.701172 0.982422
vt 0.699219 0.982422
vt 0.042969 0.835938
vt 0.041016 0.835938
vt 0.041016 0.833984
vt 0.042969 0.833984
vt 0.371094 0.574219
vt 0.363281 0.574219
vt 0.363281 0.572266
vt 0.371094 0.572266
vt 0.353516 0.496094
vt 0.345703 0.496094
vt 0.345703 0.494141
vt 0.353516 0.494141
vt 0.312500 0.587891
vt 0.312500 0.585938
vt 0.318359 0.585938
vt 0.318359 0.587891
vt 0.439453 0.650391
vt 0.439453 0.652344
vt 0.433594 0.652344
vt 0.433594 0.650391
vt 0.455078 0.923828
vt 0.460938 0.923828
vt 0.460938 0.925781
vt 0.455078 0.925781
vt 0.505859 0.763672
vt 0.500000 0.763672
vt 0.500000 0.761719
vt 0.505859 0.761719
vt 0.693359 0.761719
vt 0.693359 0.767578
vt 0.687500 0.767578
vt 0.687500 0.761719
vt 0.693359 0.757812
vt 0.687500 0.757812
vt 0.687500 0.751953
vt 0.693359 0.751953
vt 0.060547 0.656250
vt 0.060547 0.660156
vt 0.056641 0.660156
vt 0.056641 0.656250
vt 0.318359 0.568359
vt 0.318359 0.572266
vt 0.316406 0.572266
vt 0.316406 0.568359
vt 0.398438 0.568359
vt 0.398438 0.572266
vt 0.396484 0.572266
vt 0.396484 0.568359
vt 0.193359 0.566406
vt 0.193359 0.570312
vt 0.191406 0.570312
vt 0.191406 0.566406
vt 0.087891 0.564453
vt 0.087891 0.568359
vt 0.085938 0.568359
vt 0.085938 0.564453
s 0
usemtl m_7b790a68-76aa-c224-ea77-9059fe8b5fdb
f 1/1/1 2/2/1 3/3/1 4/4/1
f 5/5/2 6/6/2 7/7/2 8/8/2
f 2/9/3 1/10/3 8/11/3 7/12/3
f 3/13/4 2/14/4 7/15/4 6/16/4
f 9/17/1 10/18/1 11/19/1 12/20/1
f 13/21/2 14/22/2 15/23/2 16/24/2
f 10/25/3 9/26/3 16/27/3 15/28/3
f 12/29/5 11/30/5 14/31/5 13/32/5
f 11/33/4 10/34/4 15/35/4 14/36/4
f 9/37/6 12/38/6 13/39/6 16/40/6
f 17/41/1 18/42/1 19/43/1 20/44/1
f 21/45/2 22/46/2 23/47/2 24/48/2
f 18/49/7 17/50/7 24/51/7 23/52/7
f 20/53/8 19/54/8 22/55/8 21/56/8
f 19/57/4 18/58/4 23/59/4 22/60/4
f 25/61/1 26/62/1 27/63/1 28/64/1
f 29/62/2 30/65/2 31/66/2 32/67/2
f 28/68/8 27/69/8 30/70/8 29/71/8
f 27/72/4 26/73/4 31/74/4 30/75/4
f 33/76/1 34/77/1 35/78/1 36/79/1
f 37/80/2 38/81/2 39/82/2 40/83/2
f 36/84/9 35/85/9 38/86/9 37/87/9
f 33/88/6 36/89/6 37/90/6 40/91/6
f 41/92/1 42/93/1 43/94/1 44/95/1
f 45/96/2 46/97/2 47/98/2 48/99/2
f 42/100/10 41/101/10 48/102/10 47/103/10
f 44/104/8 43/105/8 46/106/8 45/107/8
f 43/108/4 42/109/4 47/110/4 46/111/4
f 41/112/6 44/113/6 45/114/6 48/115/6
f 49/116/1 50/117/1 51/118/1 52/119/1
f 50/120/11 49/121/11 56/122/11 55/123/11
f 52/124/12 51/125/12 54/126/12 53/127/12
f 49/128/6 52/129/6 53/130/6 56/131/6
f 57/132/1 58/133/1 59/134/1 60/135/1
f 61/133/2 62/136/2 63/137/2 64/134/2
f 60/138/8 59/139/8 62/140/8 61/141/8
f 59/142/4 58/143/4 63/144/4 62/145/4
f 57/146/6 60/147/6 61/148/6 64/149/6
f 65/150/1 66/151/1 67/152/1 68/153/1
f 68/154/8 67/155/8 70/156/8 69/125/8
f 67/113/4 66/157/4 71/158/4 70/159/4
f 65/160/6 68/161/6 69/162/6 72/163/6
f 73/164/1 74/165/1 75/166/1 76/167/1
f 74/168/13 73/169/13 80/170/13 79/171/13
f 76/172/8 75/173/8 78/174/8 77/175/8
f 75/176/4 74/177/4 79/178/4 78/179/4
f 73/180/6 76/181/6 77/182/6 80/183/6
f 81/184/1 82/185/1 83/186/1 84/187/1
f 82/188/13 81/189/13 88/190/13 87/191/13
f 83/192/4 82/193/4 87/194/4 86/195/4
f 81/196/6 84/197/6 85/198/6 88/199/6
f 89/200/7 90/201/7 92/202/7 91/203/7
f 94/204/5 93/205/5 95/206/5 96/207/5
f 94/208/14 90/209/14 89/210/14 93/211/14
f 95/212/15 91/213/15 92/214/15 96/215/15
f 93/216/1 89/217/1 91/218/1 95/219/1
f 90/220/2 94/221/2 96/222/2 92/223/2
f 103/224/6 101/225/6 102/226/6 104/227/6
f 97/228/1 98/229/1 102/230/1 101/231/1
f 100/232/2 99/233/2 103/234/2 104/235/2
f 99/236/13 97/237/13 101/238/13 103/239/13
f 104/240/8 102/241/8 98/242/8 100/243/8
