# Made in Blockbench 4.9.4
mtllib mig21wing_l.mtl

o Wing_L
v 0 0.0625 3.6875
v 3.3125 0.0625 -1.5
v 3.3125 0.0625 -2
v 0 0.0625 3.1875
v 0 -0.0625 3.1875
v 3.3125 -0.0625 -2
v 3.3125 -0.0625 -1.5
v 0 -0.0625 3.6875
v 0 0.125 3.1875
v 3.3125 0.125 -2
v 3.3125 0.125 -2.25
v 0 0.125 1.0625
v 0 -0.125 1.0625
v 3.3125 -0.125 -2.25
v 3.3125 -0.125 -2
v 0 -0.125 3.1875
v 0 0.125 0.5625
v 1.125 0.125 -0.5625
v 1.125 0.125 -2.0625
v 0 0.125 -2.0625
v 0 -0.125 -2.0625
v 1.125 -0.125 -2.0625
v 1.125 -0.125 -0.5625
v 0 -0.125 0.5625
v 1.125 0.125 -0.0625
v 1.6875 0.125 -0.625
v 1.6875 0.125 -2.0625
v 1.125 0.125 -2.0625
v 1.125 -0.125 -2.0625
v 1.6875 -0.125 -2.0625
v 1.6875 -0.125 -0.625
v 1.125 -0.125 -0.0625
v 1.6875 0.125 -0.625
v 3.3125 0.125 -2.25
v 3.3125 0.125 -2.5625
v 1.6875 0.125 -2.0625
v 1.6875 -0.125 -2.0625
v 3.3125 -0.125 -2.5625
v 3.3125 -0.125 -2.25
v 1.6875 -0.125 -0.625
v 3.3125 0.0625 -1.5
v 3.875 0.0625 -2.3125
v 3.875 0.0625 -2.9375
v 3.3125 0.0625 -2.9375
v 3.3125 -0.0625 -2.9375
v 3.875 -0.0625 -2.9375
v 3.875 -0.0625 -2.3125
v 3.3125 -0.0625 -1.5
v 3.3125 0.125 -2
v 3.625 0.125 -2.5
v 3.625 0.125 -2.6875
v 3.3125 0.125 -2.5625
v 3.3125 0.0625 -2.5625
v 3.625 0.0625 -2.6875
v 3.625 0.0625 -2.5
v 3.3125 0.0625 -2
v 1.625 0.09375 -2.0625
v 1.6875 0.09375 -2.0625
v 1.6875 0.09375 -3
v 1.625 0.09375 -3
v 1.625 -0.09375 -3
v 1.6875 -0.09375 -3
v 1.6875 -0.09375 -2.0625
v 1.625 -0.09375 -2.0625
v 3.3125 0.1875 -1.9375
v 3.375 0.1875 -1.9375
v 3.375 0.1875 -2.6875
v 3.3125 0.1875 -2.6875
v 3.3125 0.0625 -2.6875
v 3.375 0.0625 -2.6875
v 3.375 0.0625 -1.9375
v 3.3125 0.0625 -1.9375
v 3.3125 0.125 -1.6875
v 3.375 0.125 -1.6875
v 3.375 0.125 -1.9375
v 3.3125 0.125 -1.9375
v 3.3125 0.0625 -1.9375
v 3.375 0.0625 -1.9375
v 3.375 0.0625 -1.6875
v 3.3125 0.0625 -1.6875
v 3.3125 0.125 -2.6875
v 3.375 0.125 -2.6875
v 3.375 0.125 -2.875
v 3.3125 0.125 -2.875
v 3.3125 0.0625 -2.875
v 3.375 0.0625 -2.875
v 3.375 0.0625 -2.6875
v 3.3125 0.0625 -2.6875
v 1.2908907712169353 -0.09374999999999976 -0.4323009670246569
v 1.2908907712169353 -0.15624999999999978 -0.4323009670246569
v 1.158308249744458 -0.09374999999999989 -0.2997184455521792
v 1.158308249744458 -0.1562499999999999 -0.2997184455521792
v 1.141735434560398 -0.09374999999999988 -0.5814563036811943
v 1.141735434560398 -0.15624999999999986 -0.5814563036811943
v 1.0091529130879204 -0.09375 -0.44887378220871654
v 1.0091529130879204 -0.15625 -0.44887378220871654
v 3.890625 0.0546875 -2.328125
v 3.890625 0.0546875 -2.4375
v 3.890625 -0.0546875 -2.328125
v 3.890625 -0.0546875 -2.4375
v 3.875 0.0546875 -2.328125
v 3.875 0.0546875 -2.4375
v 3.875 -0.0546875 -2.328125
v 3.875 -0.0546875 -2.4375
vt 0.4006630686348106 0.986328125
vt 0.5930037405740322 0.986328125
vt 0.6061728688651894 0.994140625
vt 0.41383219692596784 0.994140625
vt 0.384765625 0.5644109844392216
vt 0.384765625 0.3720703125
vt 0.392578125 0.38523944079115724
vt 0.392578125 0.5775801127303788
vt 0.60546875 0.998046875
vt 0.4140625 0.998046875
vt 0.4140625 0.994140625
vt 0.60546875 0.994140625
vt 0.685546875 0.572265625
vt 0.669921875 0.572265625
vt 0.669921875 0.568359375
vt 0.685546875 0.568359375
vt 0.16225613195759991 0.96484375
vt 0.35459680389682147 0.96484375
vt 0.3611813680424001 0.968465490989548
vt 0.2182249271950183 1
vt 0.126953125 0.7796751908473818
vt 0.15848763401045185 0.63671875
vt 0.162109375 0.6433033141455786
vt 0.162109375 0.8356439860848002
vt 0.609375 0.708984375
vt 0.41796875 0.708984375
vt 0.41796875 0.701171875
vt 0.609375 0.701171875
vt 0.5859375 0.65234375
vt 0.439453125 0.65234375
vt 0.439453125 0.64453125
vt 0.5859375 0.64453125
vt 0.3125 1
vt 0.3046875 1
vt 0.3046875 0.9921875
vt 0.3125 0.9921875
vt 0.337890625 0.92578125
vt 0.271484375 0.92578125
vt 0.271484375 0.91796875
vt 0.337890625 0.91796875
vt 0.2421875 0.611328125
vt 0.27734375 0.646484375
vt 0.27734375 0.693359375
vt 0.2421875 0.693359375
vt 0.275390625 0.560546875
vt 0.310546875 0.560546875
vt 0.310546875 0.607421875
vt 0.275390625 0.642578125
vt 0.623046875 0.46484375
vt 0.57421875 0.46484375
vt 0.57421875 0.45703125
vt 0.623046875 0.45703125
vt 0.630859375 0.779296875
vt 0.595703125 0.779296875
vt 0.595703125 0.771484375
vt 0.630859375 0.771484375
vt 0.60546875 0.8515625
vt 0.5234375 0.8515625
vt 0.5234375 0.84375
vt 0.60546875 0.84375
vt 0.091796875 0.505859375
vt 0.109375 0.5234375
vt 0.109375 0.568359375
vt 0.091796875 0.568359375
vt 0.19921875 0.5
vt 0.216796875 0.5
vt 0.216796875 0.544921875
vt 0.19921875 0.5625
vt 0.662109375 0.7734375
vt 0.64453125 0.7734375
vt 0.64453125 0.765625
vt 0.662109375 0.765625
vt 0.6171875 0.794921875
vt 0.5546875 0.794921875
vt 0.5546875 0.787109375
vt 0.6171875 0.787109375
vt 0.3048778451878582 0.5546875
vt 0.3766933776521169 0.5546875
vt 0.3835987173121418 0.5610782772239105
vt 0.33664240762397263 0.5859375
vt 0.208984375 0.5635578721881691
vt 0.23384359777608957 0.5166015625
vt 0.240234375 0.5235069021600249
vt 0.240234375 0.5953224346242836
vt 0.626953125 0.515625
vt 0.57421875 0.515625
vt 0.57421875 0.5078125
vt 0.626953125 0.5078125
vt 0.037109375 0.841796875
vt 0.02734375 0.841796875
vt 0.02734375 0.833984375
vt 0.037109375 0.833984375
vt 0.27734375 0.650390625
vt 0.294921875 0.67578125
vt 0.294921875 0.6953125
vt 0.27734375 0.6953125
vt 0.03125 0.642578125
vt 0.048828125 0.642578125
vt 0.048828125 0.662109375
vt 0.03125 0.6875
vt 0.67578125 0.48046875
vt 0.64453125 0.48046875
vt 0.64453125 0.4765625
vt 0.67578125 0.4765625
vt 0.1796875 0.833984375
vt 0.162109375 0.833984375
vt 0.162109375 0.830078125
vt 0.1796875 0.830078125
vt 0.380859375 0.96875
vt 0.361328125 0.96875
vt 0.361328125 0.96484375
vt 0.380859375 0.96484375
vt 0.673828125 0.94921875
vt 0.62890625 0.94921875
vt 0.62890625 0.9453125
vt 0.673828125 0.9453125
vt 0.134765625 0.802734375
vt 0.14453125 0.818359375
vt 0.14453125 0.82421875
vt 0.134765625 0.8203125
vt 0.51953125 0.873046875
vt 0.501953125 0.873046875
vt 0.501953125 0.87109375
vt 0.51953125 0.87109375
vt 0.119140625 0.84765625
vt 0.109375 0.84765625
vt 0.109375 0.845703125
vt 0.119140625 0.845703125
vt 0.173828125 0.974609375
vt 0.16796875 0.974609375
vt 0.16796875 0.97265625
vt 0.173828125 0.97265625
vt 0.310546875 0.5859375
vt 0.3125 0.5859375
vt 0.3125 0.615234375
vt 0.310546875 0.615234375
vt 0.294921875 0.294921875
vt 0.296875 0.294921875
vt 0.296875 0.32421875
vt 0.294921875 0.32421875
vt 0.005859375 0.6484375
vt 0.00390625 0.6484375
vt 0.00390625 0.642578125
vt 0.005859375 0.642578125
vt 0.658203125 0.904296875
vt 0.62890625 0.904296875
vt 0.62890625 0.8984375
vt 0.658203125 0.8984375
vt 0.658203125 0.654296875
vt 0.62890625 0.654296875
vt 0.62890625 0.6484375
vt 0.658203125 0.6484375
vt 0.17578125 0.55078125
vt 0.177734375 0.55078125
vt 0.177734375 0.57421875
vt 0.17578125 0.57421875
vt 0.01171875 0.603515625
vt 0.009765625 0.603515625
vt 0.009765625 0.599609375
vt 0.01171875 0.599609375
vt 0.005859375 0.59765625
vt 0.00390625 0.59765625
vt 0.00390625 0.59375
vt 0.005859375 0.59375
vt 0.220703125 0.82421875
vt 0.197265625 0.82421875
vt 0.197265625 0.8203125
vt 0.220703125 0.8203125
vt 0.560546875 0.94140625
vt 0.537109375 0.94140625
vt 0.537109375 0.9375
vt 0.560546875 0.9375
vt 0.6953125 0.822265625
vt 0.697265625 0.822265625
vt 0.697265625 0.830078125
vt 0.6953125 0.830078125
vt 0.0390625 0.83984375
vt 0.037109375 0.83984375
vt 0.037109375 0.837890625
vt 0.0390625 0.837890625
vt 0.42578125 0.689453125
vt 0.41796875 0.689453125
vt 0.41796875 0.6875
vt 0.42578125 0.6875
vt 0.427734375 0.65625
vt 0.419921875 0.65625
vt 0.419921875 0.654296875
vt 0.427734375 0.654296875
vt 0.154296875 0.640625
vt 0.15625 0.640625
vt 0.15625 0.646484375
vt 0.154296875 0.646484375
vt 0.1640625 0.96875
vt 0.162109375 0.96875
vt 0.162109375 0.966796875
vt 0.1640625 0.966796875
vt 0.28125 0.90234375
vt 0.275390625 0.90234375
vt 0.275390625 0.900390625
vt 0.28125 0.900390625
vt 0.05859375 0.716796875
vt 0.052734375 0.716796875
vt 0.052734375 0.71484375
vt 0.05859375 0.71484375
vt 0.0625 0.7109375
vt 0.068359375 0.7109375
vt 0.068359375 0.712890625
vt 0.0625 0.712890625
vt 0.27734375 0.6953125
vt 0.271484375 0.6953125
vt 0.271484375 0.693359375
vt 0.27734375 0.693359375
vt 0.306640625 0.986328125
vt 0.306640625 0.984375
vt 0.3125 0.984375
vt 0.3125 0.986328125
vt 0.349609375 0.97265625
vt 0.349609375 0.974609375
vt 0.34375 0.974609375
vt 0.34375 0.97265625
vt 0.6875 0.78125
vt 0.693359375 0.78125
vt 0.693359375 0.787109375
vt 0.6875 0.787109375
vt 0.109375 0.6640625
vt 0.109375 0.66796875
vt 0.10546875 0.66796875
vt 0.10546875 0.6640625
vt 0.228515625 0.583984375
vt 0.228515625 0.587890625
vt 0.2265625 0.587890625
vt 0.2265625 0.583984375
vt 0.33203125 0.58203125
vt 0.33203125 0.5859375
vt 0.330078125 0.5859375
vt 0.330078125 0.58203125
vt 0.138671875 0.578125
vt 0.138671875 0.58203125
vt 0.13671875 0.58203125
vt 0.13671875 0.578125
vt 0.390625 0.576171875
vt 0.390625 0.580078125
vt 0.388671875 0.580078125
vt 0.388671875 0.576171875
vt 0.583984375 0.724609375
vt 0.583984375 0.73046875
vt 0.578125 0.73046875
vt 0.578125 0.724609375
vn 0 1 0
vn 0 -1 0
vn 0.8428242106340647 0 0.5381889537783786
vn -1 0 0
vn 0 1 0
vn 0 -1 0
vn 0.8428242106340647 0 0.5381889537783786
vn -0.7071067811865476 0 -0.7071067811865476
vn 1 0 0
vn -1 0 0
vn 0 1 0
vn 0 -1 0
vn 0.7071067811865476 0 0.7071067811865476
vn 0 0 -1
vn -1 0 0
vn 0 1 0
vn 0 -1 0
vn 0 0 -1
vn -1 0 0
vn 0 1 0
vn 0 -1 0
vn -0.29408584883752314 0 -0.9557790087219502
vn 1 0 0
vn 0 1 0
vn 0 -1 0
vn 0.8221921916437787 0 0.5692099788303083
vn 0 0 -1
vn 1 0 0
vn -1 0 0
vn 0 1 0
vn 0.847998304005088 0 0.52999894000318
vn -0.3713906763541037 0 -0.9284766908852594
vn 1 0 0
vn 0 1 0
vn 0 -1 0
vn 0 0 -1
vn 1 0 0
vn -1 0 0
vn 0 1 0
vn 0 0 1
vn 0 0 -1
vn 1 0 0
vn -1 0 0
vn 0 1 0
vn 0 0 1
vn 1 0 0
vn -1 0 0
vn 0 1 0
vn 0 0 -1
vn 1 0 0
vn -1 0 0
vn 0.7071067811865485 0 0.7071067811865467
vn -0.7071067811865479 0 -0.7071067811865472
vn 0.7071067811865478 0 -0.7071067811865472
vn -0.7071067811865472 0 0.7071067811865478
vn 8.024917011050409e-16 -1 -2.4423660468414253e-16
vn 1 0 0
vn 0 1 0
vn 0 -1 0
vn 0 0 1
vn 0 0 -1
vn -8.431978018857322e-16 1 9.885767332453443e-17
usemtl m_7b790a68-76aa-c224-ea77-9059fe8b5fdb
f 1/1/1 2/2/1 3/3/1 4/4/1
f 5/5/2 6/6/2 7/7/2 8/8/2
f 2/9/3 1/10/3 8/11/3 7/12/3
f 1/13/4 4/14/4 5/15/4 8/16/4
f 9/17/5 10/18/5 11/19/5 12/20/5
f 13/21/6 14/22/6 15/23/6 16/24/6
f 10/25/7 9/26/7 16/27/7 15/28/7
f 12/29/8 11/30/8 14/31/8 13/32/8
f 11/33/9 10/34/9 15/35/9 14/36/9
f 9/37/10 12/38/10 13/39/10 16/40/10
f 17/41/11 18/42/11 19/43/11 20/44/11
f 21/45/12 22/46/12 23/47/12 24/48/12
f 18/49/13 17/50/13 24/51/13 23/52/13
f 20/53/14 19/54/14 22/55/14 21/56/14
f 17/57/15 20/58/15 21/59/15 24/60/15
f 25/61/16 26/62/16 27/63/16 28/64/16
f 29/65/17 30/66/17 31/67/17 32/68/17
f 28/69/18 27/70/18 30/71/18 29/72/18
f 25/73/19 28/74/19 29/75/19 32/76/19
f 33/77/20 34/78/20 35/79/20 36/80/20
f 37/81/21 38/82/21 39/83/21 40/84/21
f 36/85/22 35/86/22 38/87/22 37/88/22
f 35/89/23 34/90/23 39/91/23 38/92/23
f 41/93/24 42/94/24 43/95/24 44/96/24
f 45/97/25 46/98/25 47/99/25 48/100/25
f 42/101/26 41/102/26 48/103/26 47/104/26
f 44/105/27 43/106/27 46/107/27 45/108/27
f 43/109/28 42/110/28 47/111/28 46/112/28
f 41/113/29 44/114/29 45/115/29 48/116/29
f 49/117/30 50/118/30 51/119/30 52/120/30
f 50/121/31 49/122/31 56/123/31 55/124/31
f 52/125/32 51/126/32 54/127/32 53/128/32
f 51/129/33 50/130/33 55/131/33 54/132/33
f 57/133/34 58/134/34 59/135/34 60/136/34
f 61/137/35 62/138/35 63/139/35 64/140/35
f 60/141/36 59/142/36 62/143/36 61/144/36
f 59/145/37 58/146/37 63/147/37 62/148/37
f 57/149/38 60/150/38 61/151/38 64/152/38
f 65/153/39 66/154/39 67/155/39 68/156/39
f 66/157/40 65/158/40 72/159/40 71/160/40
f 68/161/41 67/162/41 70/163/41 69/164/41
f 67/165/42 66/166/42 71/167/42 70/168/42
f 65/169/43 68/170/43 69/171/43 72/172/43
f 73/173/44 74/174/44 75/175/44 76/176/44
f 74/177/45 73/178/45 80/179/45 79/180/45
f 75/181/46 74/182/46 79/183/46 78/184/46
f 73/185/47 76/186/47 77/187/47 80/188/47
f 81/189/48 82/190/48 83/191/48 84/192/48
f 84/193/49 83/194/49 86/195/49 85/196/49
f 83/197/50 82/198/50 87/199/50 86/200/50
f 81/201/51 84/202/51 85/203/51 88/204/51
f 92/205/52 90/206/52 89/207/52 91/208/52
f 95/209/53 93/210/53 94/211/53 96/212/53
f 89/213/54 90/214/54 94/215/54 93/216/54
f 92/217/55 91/218/55 95/219/55 96/220/55
f 96/221/56 94/222/56 90/223/56 92/224/56
f 100/225/57 98/226/57 97/227/57 99/228/57
f 97/229/58 98/230/58 102/231/58 101/232/58
f 100/233/59 99/234/59 103/235/59 104/236/59
f 99/237/60 97/238/60 101/239/60 103/240/60
f 104/241/61 102/242/61 98/243/61 100/244/61
f 91/245/62 89/246/62 93/247/62 95/248/62