# Made in Blockbench 4.9.4
mtllib mig21wing_r.mtl

o Wing_R
v -3.3125 0.0625 -1.5
v 0 0.0625 3.6875
v 0 0.0625 3.1875
v -3.3125 0.0625 -2
v -3.3125 -0.0625 -2
v 0 -0.0625 3.1875
v 0 -0.0625 3.6875
v -3.3125 -0.0625 -1.5
v -3.3125 0.125 -2
v 0 0.125 3.1875
v 0 0.125 1.0625
v -3.3125 0.125 -2.25
v -3.3125 -0.125 -2.25
v 0 -0.125 1.0625
v 0 -0.125 3.1875
v -3.3125 -0.125 -2
v -1.125 0.125 -0.5625
v 0 0.125 0.5625
v 0 0.125 -2.0625
v -1.125 0.125 -2.0625
v -1.125 -0.125 -2.0625
v 0 -0.125 -2.0625
v 0 -0.125 0.5625
v -1.125 -0.125 -0.5625
v -1.6875 0.125 -0.625
v -1.125 0.125 -0.0625
v -1.125 0.125 -2.0625
v -1.6875 0.125 -2.0625
v -1.6875 -0.125 -2.0625
v -1.125 -0.125 -2.0625
v -1.125 -0.125 -0.0625
v -1.6875 -0.125 -0.625
v -3.3125 0.125 -2.25
v -1.6875 0.125 -0.625
v -1.6875 0.125 -2.0625
v -3.3125 0.125 -2.5625
v -3.3125 -0.125 -2.5625
v -1.6875 -0.125 -2.0625
v -1.6875 -0.125 -0.625
v -3.3125 -0.125 -2.25
v -3.875 0.0625 -2.3125
v -3.3125 0.0625 -1.5
v -3.3125 0.0625 -2.9375
v -3.875 0.0625 -2.9375
v -3.875 -0.0625 -2.9375
v -3.3125 -0.0625 -2.9375
v -3.3125 -0.0625 -1.5
v -3.875 -0.0625 -2.3125
v -3.625 0.125 -2.5
v -3.3125 0.125 -2
v -3.3125 0.125 -2.5625
v -3.625 0.125 -2.6875
v -3.625 0.0625 -2.6875
v -3.3125 0.0625 -2.5625
v -3.3125 0.0625 -2
v -3.625 0.0625 -2.5
v -1.6875 0.09375 -2.0625
v -1.625 0.09375 -2.0625
v -1.625 0.09375 -3
v -1.6875 0.09375 -3
v -1.6875 -0.09375 -3
v -1.625 -0.09375 -3
v -1.625 -0.09375 -2.0625
v -1.6875 -0.09375 -2.0625
v -3.375 0.125 -2.6875
v -3.3125 0.125 -2.6875
v -3.3125 0.125 -2.875
v -3.375 0.125 -2.875
v -3.375 0.0625 -2.875
v -3.3125 0.0625 -2.875
v -3.3125 0.0625 -2.6875
v -3.375 0.0625 -2.6875
v -3.375 0.1875 -1.9375
v -3.3125 0.1875 -1.9375
v -3.3125 0.1875 -2.6875
v -3.375 0.1875 -2.6875
v -3.375 0.0625 -2.6875
v -3.3125 0.0625 -2.6875
v -3.3125 0.0625 -1.9375
v -3.375 0.0625 -1.9375
v -3.375 0.125 -1.6875
v -3.3125 0.125 -1.6875
v -3.3125 0.125 -1.9375
v -3.375 0.125 -1.9375
v -3.375 0.0625 -1.9375
v -3.3125 0.0625 -1.9375
v -3.3125 0.0625 -1.6875
v -3.375 0.0625 -1.6875
v -1.2908907712169353 -0.09374999999999976 -0.4323009670246569
v -1.2908907712169353 -0.15624999999999978 -0.4323009670246569
v -1.158308249744458 -0.09374999999999989 -0.2997184455521792
v -1.158308249744458 -0.1562499999999999 -0.2997184455521792
v -1.141735434560398 -0.09374999999999988 -0.5814563036811943
v -1.141735434560398 -0.15624999999999986 -0.5814563036811943
v -1.0091529130879204 -0.09375 -0.44887378220871654
v -1.0091529130879204 -0.15625 -0.44887378220871654
v -3.875 0.0546875 -2.328125
v -3.875 0.0546875 -2.4375
v -3.875 -0.0546875 -2.328125
v -3.875 -0.0546875 -2.4375
v -3.890625 0.0546875 -2.328125
v -3.890625 0.0546875 -2.4375
v -3.890625 -0.0546875 -2.328125
v -3.890625 -0.0546875 -2.4375
vt 0.158203125 0.5610496217088428
vt 0.158203125 0.3687089497696212
vt 0.166015625 0.38187807806077845
vt 0.166015625 0.57421875
vt 0.4026161936348106 0.66015625
vt 0.5949568655740322 0.66015625
vt 0.6081259938651894 0.66796875
vt 0.41578532192596784 0.66796875
vt 0.65234375 0.833984375
vt 0.4609375 0.833984375
vt 0.4609375 0.830078125
vt 0.65234375 0.830078125
vt 0.685546875 0.568359375
vt 0.669921875 0.568359375
vt 0.669921875 0.564453125
vt 0.685546875 0.564453125
vt 0.0001968511440772376 0.8664623108544214
vt 0.0001968511440772376 0.6741216389151998
vt 0.035935961355922766 0.7300904341526182
vt 0.004401452345470822 0.873046875
vt 0.09584988195759991 0.852823571510452
vt 0.2388063228049817 0.8212890625
vt 0.2947751180424001 0.8570281727118455
vt 0.10243444610317853 0.8570281727118455
vt 0.609375 0.701171875
vt 0.41796875 0.701171875
vt 0.41796875 0.693359375
vt 0.609375 0.693359375
vt 0.59375 0.87109375
vt 0.447265625 0.87109375
vt 0.447265625 0.86328125
vt 0.59375 0.86328125
vt 0.6171875 0.63671875
vt 0.55078125 0.63671875
vt 0.55078125 0.62890625
vt 0.6171875 0.62890625
vt 0.326171875 0.703125
vt 0.318359375 0.703125
vt 0.318359375 0.6953125
vt 0.326171875 0.6953125
vt 0.380859375 0.58984375
vt 0.416015625 0.5546875
vt 0.416015625 0.63671875
vt 0.380859375 0.63671875
vt 0.240234375 0.55859375
vt 0.275390625 0.55859375
vt 0.275390625 0.640625
vt 0.240234375 0.60546875
vt 0.625 0.53125
vt 0.576171875 0.53125
vt 0.576171875 0.5234375
vt 0.625 0.5234375
vt 0.57421875 0.404296875
vt 0.5390625 0.404296875
vt 0.5390625 0.396484375
vt 0.57421875 0.396484375
vt 0.60546875 0.84375
vt 0.5234375 0.84375
vt 0.5234375 0.8359375
vt 0.60546875 0.8359375
vt 0.02734375 0.505859375
vt 0.044921875 0.48828125
vt 0.044921875 0.55078125
vt 0.02734375 0.55078125
vt 0.044921875 0.48828125
vt 0.0625 0.48828125
vt 0.0625 0.55078125
vt 0.044921875 0.533203125
vt 0.662109375 0.765625
vt 0.64453125 0.765625
vt 0.64453125 0.7578125
vt 0.662109375 0.7578125
vt 0.6171875 0.787109375
vt 0.5546875 0.787109375
vt 0.5546875 0.779296875
vt 0.6171875 0.779296875
vt 0.1252310000319428 0.5790321603399751
vt 0.1252310000319428 0.5072166278757164
vt 0.1569955624680572 0.5389811903118309
vt 0.13213633969196764 0.5859375
vt 0.031440345187858196 0.8871639102760895
vt 0.07839665487602737 0.8623046875
vt 0.1101612173121418 0.8940692499361145
vt 0.038345684847883074 0.8940692499361145
vt 0.626953125 0.5078125
vt 0.57421875 0.5078125
vt 0.57421875 0.5
vt 0.626953125 0.5
vt 0.228515625 0.890625
vt 0.21875 0.890625
vt 0.21875 0.8828125
vt 0.228515625 0.8828125
vt 0.09765625 0.490234375
vt 0.115234375 0.46484375
vt 0.115234375 0.509765625
vt 0.09765625 0.509765625
vt 0.125 0.4765625
vt 0.142578125 0.4765625
vt 0.142578125 0.521484375
vt 0.125 0.49609375
vt 0.677734375 0.9453125
vt 0.646484375 0.9453125
vt 0.646484375 0.94140625
vt 0.677734375 0.94140625
vt 0.25390625 1
vt 0.236328125 1
vt 0.236328125 0.99609375
vt 0.25390625 0.99609375
vt 0.673828125 0.908203125
vt 0.62890625 0.908203125
vt 0.62890625 0.904296875
vt 0.673828125 0.904296875
vt 0.408203125 0.66796875
vt 0.388671875 0.66796875
vt 0.388671875 0.6640625
vt 0.408203125 0.6640625
vt 0.28515625 0.76171875
vt 0.294921875 0.74609375
vt 0.294921875 0.763671875
vt 0.28515625 0.767578125
vt 0.541015625 0.533203125
vt 0.5234375 0.533203125
vt 0.5234375 0.53125
vt 0.541015625 0.53125
vt 0.171875 0.8359375
vt 0.162109375 0.8359375
vt 0.162109375 0.833984375
vt 0.171875 0.833984375
vt 0.330078125 0.638671875
vt 0.32421875 0.638671875
vt 0.32421875 0.63671875
vt 0.330078125 0.63671875
vt 0.296875 0.294921875
vt 0.298828125 0.294921875
vt 0.298828125 0.32421875
vt 0.296875 0.32421875
vt 0.298828125 0.294921875
vt 0.30078125 0.294921875
vt 0.30078125 0.32421875
vt 0.298828125 0.32421875
vt 0.009765625 0.63671875
vt 0.0078125 0.63671875
vt 0.0078125 0.630859375
vt 0.009765625 0.630859375
vt 0.66015625 0.779296875
vt 0.630859375 0.779296875
vt 0.630859375 0.7734375
vt 0.66015625 0.7734375
vt 0.662109375 0.380859375
vt 0.6328125 0.380859375
vt 0.6328125 0.375
vt 0.662109375 0.375
vt 0.1484375 0.6171875
vt 0.150390625 0.6171875
vt 0.150390625 0.623046875
vt 0.1484375 0.623046875
vt 0.162109375 0.837890625
vt 0.16015625 0.837890625
vt 0.16015625 0.8359375
vt 0.162109375 0.8359375
vt 0.388671875 0.66796875
vt 0.3828125 0.66796875
vt 0.3828125 0.666015625
vt 0.388671875 0.666015625
vt 0.4140625 0.66015625
vt 0.408203125 0.66015625
vt 0.408203125 0.658203125
vt 0.4140625 0.658203125
vt 0.68359375 0.783203125
vt 0.685546875 0.783203125
vt 0.685546875 0.806640625
vt 0.68359375 0.806640625
vt 0.142578125 0.57421875
vt 0.140625 0.57421875
vt 0.140625 0.5703125
vt 0.142578125 0.5703125
vt 0.21484375 0.57421875
vt 0.212890625 0.57421875
vt 0.212890625 0.5703125
vt 0.21484375 0.5703125
vt 0.6796875 0.587890625
vt 0.65625 0.587890625
vt 0.65625 0.583984375
vt 0.6796875 0.583984375
vt 0.681640625 0.904296875
vt 0.658203125 0.904296875
vt 0.658203125 0.900390625
vt 0.681640625 0.900390625
vt 0.69921875 0.974609375
vt 0.701171875 0.974609375
vt 0.701171875 0.982421875
vt 0.69921875 0.982421875
vt 0.04296875 0.8359375
vt 0.041015625 0.8359375
vt 0.041015625 0.833984375
vt 0.04296875 0.833984375
vt 0.37109375 0.57421875
vt 0.36328125 0.57421875
vt 0.36328125 0.572265625
vt 0.37109375 0.572265625
vt 0.353515625 0.49609375
vt 0.345703125 0.49609375
vt 0.345703125 0.494140625
vt 0.353515625 0.494140625
vt 0.3125 0.587890625
vt 0.3125 0.5859375
vt 0.318359375 0.5859375
vt 0.318359375 0.587890625
vt 0.439453125 0.650390625
vt 0.439453125 0.65234375
vt 0.43359375 0.65234375
vt 0.43359375 0.650390625
vt 0.455078125 0.923828125
vt 0.4609375 0.923828125
vt 0.4609375 0.92578125
vt 0.455078125 0.92578125
vt 0.505859375 0.763671875
vt 0.5 0.763671875
vt 0.5 0.76171875
vt 0.505859375 0.76171875
vt 0.693359375 0.76171875
vt 0.693359375 0.767578125
vt 0.6875 0.767578125
vt 0.6875 0.76171875
vt 0.693359375 0.7578125
vt 0.6875 0.7578125
vt 0.6875 0.751953125
vt 0.693359375 0.751953125
vt 0.060546875 0.65625
vt 0.060546875 0.66015625
vt 0.056640625 0.66015625
vt 0.056640625 0.65625
vt 0.318359375 0.568359375
vt 0.318359375 0.572265625
vt 0.31640625 0.572265625
vt 0.31640625 0.568359375
vt 0.3984375 0.568359375
vt 0.3984375 0.572265625
vt 0.396484375 0.572265625
vt 0.396484375 0.568359375
vt 0.193359375 0.56640625
vt 0.193359375 0.5703125
vt 0.19140625 0.5703125
vt 0.19140625 0.56640625
vt 0.087890625 0.564453125
vt 0.087890625 0.568359375
vt 0.0859375 0.568359375
vt 0.0859375 0.564453125
vn 0 1 0
vn 0 -1 0
vn -0.8428242106340647 0 0.5381889537783786
vn 1 0 0
vn 0 1 0
vn 0 -1 0
vn -0.8428242106340647 0 0.5381889537783786
vn 0.7071067811865476 0 -0.7071067811865476
vn 1 0 0
vn -1 0 0
vn 0 1 0
vn 0 -1 0
vn -0.7071067811865476 0 0.7071067811865476
vn 0 0 -1
vn 1 0 0
vn 0 1 0
vn 0 -1 0
vn 0 0 -1
vn 1 0 0
vn 0 1 0
vn 0 -1 0
vn 0.29408584883752314 0 -0.9557790087219502
vn -1 0 0
vn 0 1 0
vn 0 -1 0
vn -0.8221921916437787 0 0.5692099788303083
vn 0 0 -1
vn 1 0 0
vn -1 0 0
vn 0 1 0
vn -0.847998304005088 0 0.52999894000318
vn 0.3713906763541037 0 -0.9284766908852594
vn -1 0 0
vn 0 1 0
vn 0 -1 0
vn 0 0 -1
vn 1 0 0
vn -1 0 0
vn 0 1 0
vn 0 0 -1
vn 1 0 0
vn -1 0 0
vn 0 1 0
vn 0 0 1
vn 0 0 -1
vn 1 0 0
vn -1 0 0
vn 0 1 0
vn 0 0 1
vn 1 0 0
vn -1 0 0
vn -0.7071067811865485 0 0.7071067811865467
vn 0.7071067811865479 0 -0.7071067811865472
vn -0.7071067811865478 0 -0.7071067811865472
vn 0.7071067811865472 0 0.7071067811865478
vn 8.431978018857322e-16 1 9.885767332453443e-17
vn -8.024917011050409e-16 -1 -2.4423660468414253e-16
vn -1 0 0
vn 0 1 0
vn 0 -1 0
vn 0 0 1
vn 0 0 -1
usemtl m_7b790a68-76aa-c224-ea77-9059fe8b5fdb
f 1/1/1 2/2/1 3/3/1 4/4/1
f 5/5/2 6/6/2 7/7/2 8/8/2
f 2/9/3 1/10/3 8/11/3 7/12/3
f 3/13/4 2/14/4 7/15/4 6/16/4
f 9/17/5 10/18/5 11/19/5 12/20/5
f 13/21/6 14/22/6 15/23/6 16/24/6
f 10/25/7 9/26/7 16/27/7 15/28/7
f 12/29/8 11/30/8 14/31/8 13/32/8
f 11/33/9 10/34/9 15/35/9 14/36/9
f 9/37/10 12/38/10 13/39/10 16/40/10
f 17/41/11 18/42/11 19/43/11 20/44/11
f 21/45/12 22/46/12 23/47/12 24/48/12
f 18/49/13 17/50/13 24/51/13 23/52/13
f 20/53/14 19/54/14 22/55/14 21/56/14
f 19/57/15 18/58/15 23/59/15 22/60/15
f 25/61/16 26/62/16 27/63/16 28/64/16
f 29/65/17 30/66/17 31/67/17 32/68/17
f 28/69/18 27/70/18 30/71/18 29/72/18
f 27/73/19 26/74/19 31/75/19 30/76/19
f 33/77/20 34/78/20 35/79/20 36/80/20
f 37/81/21 38/82/21 39/83/21 40/84/21
f 36/85/22 35/86/22 38/87/22 37/88/22
f 33/89/23 36/90/23 37/91/23 40/92/23
f 41/93/24 42/94/24 43/95/24 44/96/24
f 45/97/25 46/98/25 47/99/25 48/100/25
f 42/101/26 41/102/26 48/103/26 47/104/26
f 44/105/27 43/106/27 46/107/27 45/108/27
f 43/109/28 42/110/28 47/111/28 46/112/28
f 41/113/29 44/114/29 45/115/29 48/116/29
f 49/117/30 50/118/30 51/119/30 52/120/30
f 50/121/31 49/122/31 56/123/31 55/124/31
f 52/125/32 51/126/32 54/127/32 53/128/32
f 49/129/33 52/130/33 53/131/33 56/132/33
f 57/133/34 58/134/34 59/135/34 60/136/34
f 61/137/35 62/138/35 63/139/35 64/140/35
f 60/141/36 59/142/36 62/143/36 61/144/36
f 59/145/37 58/146/37 63/147/37 62/148/37
f 57/149/38 60/150/38 61/151/38 64/152/38
f 65/153/39 66/154/39 67/155/39 68/156/39
f 68/157/40 67/158/40 70/159/40 69/160/40
f 67/161/41 66/162/41 71/163/41 70/164/41
f 65/165/42 68/166/42 69/167/42 72/168/42
f 73/169/43 74/170/43 75/171/43 76/172/43
f 74/173/44 73/174/44 80/175/44 79/176/44
f 76/177/45 75/178/45 78/179/45 77/180/45
f 75/181/46 74/182/46 79/183/46 78/184/46
f 73/185/47 76/186/47 77/187/47 80/188/47
f 81/189/48 82/190/48 83/191/48 84/192/48
f 82/193/49 81/194/49 88/195/49 87/196/49
f 83/197/50 82/198/50 87/199/50 86/200/50
f 81/201/51 84/202/51 85/203/51 88/204/51
f 89/205/52 90/206/52 92/207/52 91/208/52
f 94/209/53 93/210/53 95/211/53 96/212/53
f 94/213/54 90/214/54 89/215/54 93/216/54
f 95/217/55 91/218/55 92/219/55 96/220/55
f 93/221/56 89/222/56 91/223/56 95/224/56
f 90/225/57 94/226/57 96/227/57 92/228/57
f 103/229/58 101/230/58 102/231/58 104/232/58
f 97/233/59 98/234/59 102/235/59 101/236/59
f 100/237/60 99/238/60 103/239/60 104/240/60
f 99/241/61 97/242/61 101/243/61 103/244/61
f 104/245/62 102/246/62 98/247/62 100/248/62