# Blender 3.6.0
# www.blender.org
mtllib mig21tail.mtl
o Tail
v -0.062500 1.750000 -2.250000
v 0.062500 1.750000 -2.250000
v 0.062500 1.750000 -3.437500
v -0.062500 1.750000 -3.437500
v -0.062500 -0.000000 -1.687500
v 0.062500 -0.000000 -1.687500
v 0.062500 0.000000 1.500000
v -0.062500 0.000000 1.500000
v -0.031250 1.750000 -1.500000
v 0.031250 1.750000 -1.500000
v 0.031250 1.750000 -2.250000
v -0.031250 1.750000 -2.250000
v -0.031250 0.000000 1.500000
v 0.031250 0.000000 1.500000
v 0.031250 0.000000 2.250000
v -0.031250 0.000000 2.250000
v -0.062500 1.875000 -1.500000
v 0.062500 1.875000 -1.500000
v 0.062500 1.875000 -4.250000
v -0.062500 1.875000 -4.250000
v -0.062500 1.750000 -4.250000
v 0.062500 1.750000 -4.250000
v 0.062500 1.750000 -1.500000
v -0.062500 1.750000 -1.500000
v -0.062500 2.000000 -2.000000
v 0.062500 2.000000 -2.000000
v 0.062500 2.000000 -4.375000
v -0.062500 2.000000 -4.375000
v -0.062500 1.875000 -4.375000
v 0.062500 1.875000 -4.375000
v 0.062500 1.875000 -2.000000
v -0.062500 1.875000 -2.000000
v -0.031250 2.062500 -2.000000
v 0.031250 2.062500 -2.000000
v 0.031250 2.062500 -4.375000
v -0.031250 2.062500 -4.375000
v -0.031250 2.000000 -4.375000
v 0.031250 2.000000 -4.375000
v 0.031250 2.000000 -2.000000
v -0.031250 2.000000 -2.000000
v -0.031250 1.968750 -4.375000
v 0.031250 1.968750 -4.375000
v 0.031250 1.968750 -4.500000
v -0.031250 1.968750 -4.500000
v -0.031250 1.906250 -4.500000
v 0.031250 1.906250 -4.500000
v 0.031250 1.906250 -4.375000
v -0.031250 1.906250 -4.375000
v -0.031250 2.000000 -1.687500
v 0.031250 2.000000 -1.687500
v 0.031250 2.000000 -2.000000
v -0.031250 2.000000 -2.000000
v -0.031250 1.875000 -2.000000
v 0.031250 1.875000 -2.000000
v 0.031250 1.875000 -1.687500
v -0.031250 1.875000 -1.687500
vn -0.0000 -1.0000 -0.0000
vn -0.0000 0.9062 0.4229
vn -0.0000 -0.7071 -0.7071
vn 1.0000 -0.0000 -0.0000
vn -1.0000 -0.0000 -0.0000
vn -0.0000 1.0000 -0.0000
vn -0.0000 -0.0000 1.0000
vn -0.0000 -0.0000 -1.0000
vt 0.505859 0.345703
vt 0.509766 0.345703
vt 0.509766 0.445312
vt 0.505859 0.445312
vt 0.263672 0.466797
vt 0.259766 0.466797
vt 0.259766 0.337891
vt 0.263672 0.337891
vt 0.154297 0.410156
vt 0.150391 0.410156
vt 0.150391 0.332031
vt 0.154297 0.332031
vt 0.238281 0.912109
vt 0.201172 0.912109
vt 0.083984 0.857422
vt 0.183594 0.857422
vt 0.037109 0.878906
vt 0.000000 0.878906
vt 0.054688 0.824219
vt 0.154297 0.824219
vt 0.683594 0.310547
vt 0.685547 0.310547
vt 0.685547 0.333984
vt 0.683594 0.333984
vt 0.375000 0.429688
vt 0.373047 0.429688
vt 0.373047 0.300781
vt 0.375000 0.300781
vt 0.568932 0.683594
vt 0.547693 0.693359
vt 0.418373 0.693359
vt 0.439612 0.683594
vt 0.402344 0.554933
vt 0.392578 0.576172
vt 0.392578 0.446852
vt 0.402344 0.425613
vt 0.335938 0.330078
vt 0.339844 0.330078
vt 0.339844 0.416016
vt 0.335938 0.416016
vt 0.343750 0.330078
vt 0.343750 0.416016
vt 0.101562 0.660156
vt 0.097656 0.660156
vt 0.097656 0.656250
vt 0.101562 0.656250
vt 0.068359 0.652344
vt 0.064453 0.652344
vt 0.064453 0.648438
vt 0.068359 0.648438
vt 0.648438 0.798828
vt 0.562500 0.798828
vt 0.562500 0.794922
vt 0.648438 0.794922
vt 0.656250 0.685547
vt 0.570312 0.685547
vt 0.570312 0.681641
vt 0.656250 0.681641
vt 0.154297 0.335938
vt 0.158203 0.335938
vt 0.158203 0.410156
vt 0.212891 0.333984
vt 0.216797 0.333984
vt 0.216797 0.408203
vt 0.212891 0.408203
vt 0.093750 0.652344
vt 0.089844 0.652344
vt 0.089844 0.648438
vt 0.093750 0.648438
vt 0.291016 0.634766
vt 0.287109 0.634766
vt 0.287109 0.630859
vt 0.291016 0.630859
vt 0.646484 0.945312
vt 0.572266 0.945312
vt 0.572266 0.941406
vt 0.646484 0.941406
vt 0.646484 0.886719
vt 0.572266 0.886719
vt 0.572266 0.882812
vt 0.646484 0.882812
vt 0.531250 0.287109
vt 0.533203 0.287109
vt 0.533203 0.361328
vt 0.531250 0.361328
vt 0.136719 0.835938
vt 0.134766 0.835938
vt 0.134766 0.833984
vt 0.136719 0.833984
vt 0.169922 0.972656
vt 0.167969 0.972656
vt 0.167969 0.970703
vt 0.169922 0.970703
vt 0.570312 0.835938
vt 0.496094 0.835938
vt 0.496094 0.833984
vt 0.570312 0.833984
vt 0.582031 1.000000
vt 0.507812 1.000000
vt 0.507812 0.998047
vt 0.582031 0.998047
vt 0.158203 0.564453
vt 0.160156 0.564453
vt 0.160156 0.568359
vt 0.158203 0.568359
vt 0.310547 0.562500
vt 0.312500 0.562500
vt 0.312500 0.566406
vt 0.310547 0.566406
vt 0.046875 0.832031
vt 0.044922 0.832031
vt 0.044922 0.830078
vt 0.046875 0.830078
vt 0.224609 0.824219
vt 0.220703 0.824219
vt 0.220703 0.822266
vt 0.224609 0.822266
vt 0.128906 0.740234
vt 0.125000 0.740234
vt 0.125000 0.738281
vt 0.128906 0.738281
vt 0.238281 0.507812
vt 0.240234 0.507812
vt 0.240234 0.519531
vt 0.238281 0.519531
vt 0.189453 0.564453
vt 0.187500 0.564453
vt 0.187500 0.560547
vt 0.189453 0.560547
vt 0.687500 0.427734
vt 0.675781 0.427734
vt 0.675781 0.423828
vt 0.687500 0.423828
vt 0.687500 0.380859
vt 0.675781 0.380859
vt 0.675781 0.376953
vt 0.687500 0.376953
s 0
usemtl m_7b790a68-76aa-c224-ea77-9059fe8b5fdb
f 5/1/1 6/2/1 7/3/1 8/4/1
f 2/5/2 1/6/2 8/7/2 7/8/2
f 4/9/3 3/10/3 6/11/3 5/12/3
f 3/13/4 2/14/4 7/15/4 6/16/4
f 1/17/5 4/18/5 5/19/5 8/20/5
f 13/21/1 14/22/1 15/23/1 16/24/1
f 10/25/2 9/26/2 16/27/2 15/28/2
f 11/29/4 10/30/4 15/31/4 14/32/4
f 9/33/5 12/34/5 13/35/5 16/36/5
f 17/37/6 18/38/6 19/39/6 20/40/6
f 21/38/1 22/41/1 23/42/1 24/39/1
f 18/43/7 17/44/7 24/45/7 23/46/7
f 20/47/8 19/48/8 22/49/8 21/50/8
f 19/51/4 18/52/4 23/53/4 22/54/4
f 17/55/5 20/56/5 21/57/5 24/58/5
f 25/59/6 26/60/6 27/61/6 28/9/6
f 29/62/1 30/63/1 31/64/1 32/65/1
f 26/66/7 25/67/7 32/68/7 31/69/7
f 28/70/8 27/71/8 30/72/8 29/73/8
f 27/74/4 26/75/4 31/76/4 30/77/4
f 25/78/5 28/79/5 29/80/5 32/81/5
f 33/82/6 34/83/6 35/84/6 36/85/6
f 34/86/7 33/87/7 40/88/7 39/89/7
f 36/90/8 35/91/8 38/92/8 37/93/8
f 35/94/4 34/95/4 39/96/4 38/97/4
f 33/98/5 36/99/5 37/100/5 40/101/5
f 41/102/6 42/103/6 43/104/6 44/105/6
f 45/106/1 46/107/1 47/108/1 48/109/1
f 44/110/8 43/111/8 46/112/8 45/113/8
f 43/114/4 42/115/4 47/116/4 46/117/4
f 41/118/5 44/119/5 45/120/5 48/121/5
f 49/122/6 50/123/6 51/124/6 52/125/6
f 50/126/7 49/127/7 56/128/7 55/129/7
f 51/130/4 50/131/4 55/132/4 54/133/4
f 49/134/5 52/135/5 53/136/5 56/137/5
